solid OpenSCAD_Model
  facet normal -0.951057 0.309017 0
    outer loop
      vertex -12.4225 2.64048 0
      vertex -11.602 5.16556 6.35
      vertex -11.602 5.16556 0
    endloop
  endfacet
  facet normal -0.951057 0.309017 0
    outer loop
      vertex -11.602 5.16556 6.35
      vertex -12.4225 2.64048 0
      vertex -12.4225 2.64048 6.35
    endloop
  endfacet
  facet normal 0.866025 0.5 0
    outer loop
      vertex 11.602 5.16556 6.35
      vertex 10.2745 7.46487 0
      vertex 10.2745 7.46487 6.35
    endloop
  endfacet
  facet normal 0.866025 0.5 0
    outer loop
      vertex 10.2745 7.46487 0
      vertex 11.602 5.16556 6.35
      vertex 11.602 5.16556 0
    endloop
  endfacet
  facet normal 0.951057 0.309017 0
    outer loop
      vertex 12.4225 2.64048 6.35
      vertex 11.602 5.16556 0
      vertex 11.602 5.16556 6.35
    endloop
  endfacet
  facet normal 0.951057 0.309017 0
    outer loop
      vertex 11.602 5.16556 0
      vertex 12.4225 2.64048 6.35
      vertex 12.4225 2.64048 0
    endloop
  endfacet
  facet normal 0.207912 0.978148 -0
    outer loop
      vertex 3.92452 12.0784 0
      vertex 1.32751 12.6304 6.35
      vertex 3.92452 12.0784 6.35
    endloop
  endfacet
  facet normal 0.207912 0.978148 0
    outer loop
      vertex 1.32751 12.6304 6.35
      vertex 3.92452 12.0784 0
      vertex 1.32751 12.6304 0
    endloop
  endfacet
  facet normal 0.406737 0.913545 1.89768e-07
    outer loop
      vertex 5.91841 11.1907 2.23524
      vertex 6.35 10.9985 0
      vertex 5.5 11.377 2.1463
    endloop
  endfacet
  facet normal 0.406735 0.913546 -2.29752e-07
    outer loop
      vertex 6.26447 11.0366 2.48666
      vertex 6.35 10.9985 0
      vertex 5.91841 11.1907 2.23524
    endloop
  endfacet
  facet normal 0.40674 0.913544 -0
    outer loop
      vertex 6.35 10.9985 0
      vertex 6.26447 11.0366 2.48666
      vertex 6.35 10.9985 2.6348
    endloop
  endfacet
  facet normal 0.406736 0.913546 3.68925e-07
    outer loop
      vertex 5.28612 11.4722 4.18122
      vertex 6.35 10.9985 6.35
      vertex 5.71388 11.2817 4.18122
    endloop
  endfacet
  facet normal 0.406737 0.913545 5.06489e-08
    outer loop
      vertex 6.35 10.9985 6.35
      vertex 6.10465 11.1078 4.00724
      vertex 5.71388 11.2817 4.18122
    endloop
  endfacet
  facet normal 0.406737 0.913545 0
    outer loop
      vertex 6.10465 11.1078 4.00724
      vertex 6.35 10.9985 6.35
      vertex 6.35 10.9985 3.73475
    endloop
  endfacet
  facet normal 0.406737 0.913545 -1.87691e-07
    outer loop
      vertex 6.35 10.9985 6.35
      vertex 5.28612 11.4722 4.18122
      vertex 3.92452 12.0784 6.35
    endloop
  endfacet
  facet normal 0.406737 0.913545 -1.82075e-07
    outer loop
      vertex 4.89534 11.6462 4.00724
      vertex 3.92452 12.0784 6.35
      vertex 5.28612 11.4722 4.18122
    endloop
  endfacet
  facet normal 0.406738 0.913545 6.91366e-07
    outer loop
      vertex 4.60912 11.7736 3.68935
      vertex 3.92452 12.0784 6.35
      vertex 4.89534 11.6462 4.00724
    endloop
  endfacet
  facet normal 0.406735 0.913546 -2.70953e-07
    outer loop
      vertex 4.47693 11.8325 3.28253
      vertex 3.92452 12.0784 6.35
      vertex 4.60912 11.7736 3.68935
    endloop
  endfacet
  facet normal 0.406739 0.913544 -5.76447e-07
    outer loop
      vertex 3.92452 12.0784 0
      vertex 4.47693 11.8325 3.28253
      vertex 4.52165 11.8126 2.85711
    endloop
  endfacet
  facet normal 0.406737 0.913545 1.89181e-07
    outer loop
      vertex 3.92452 12.0784 0
      vertex 5.5 11.377 2.1463
      vertex 6.35 10.9985 0
    endloop
  endfacet
  facet normal 0.406738 0.913545 -5.96403e-07
    outer loop
      vertex 5.5 11.377 2.1463
      vertex 3.92452 12.0784 0
      vertex 5.08159 11.5633 2.23524
    endloop
  endfacet
  facet normal 0.406737 0.913545 0
    outer loop
      vertex 4.47693 11.8325 3.28253
      vertex 3.92452 12.0784 0
      vertex 3.92452 12.0784 6.35
    endloop
  endfacet
  facet normal 0.406735 0.913546 4.31664e-07
    outer loop
      vertex 4.73553 11.7173 2.48666
      vertex 3.92452 12.0784 0
      vertex 4.52165 11.8126 2.85711
    endloop
  endfacet
  facet normal 0.406737 0.913545 -9.82888e-08
    outer loop
      vertex 5.08159 11.5633 2.23524
      vertex 3.92452 12.0784 0
      vertex 4.73553 11.7173 2.48666
    endloop
  endfacet
  facet normal -0.207912 0.978148 0
    outer loop
      vertex -1.32751 12.6304 0
      vertex -3.92452 12.0784 6.35
      vertex -1.32751 12.6304 6.35
    endloop
  endfacet
  facet normal -0.207912 0.978148 0
    outer loop
      vertex -3.92452 12.0784 6.35
      vertex -1.32751 12.6304 0
      vertex -3.92452 12.0784 0
    endloop
  endfacet
  facet normal -0.866025 0.5 0
    outer loop
      vertex -11.602 5.16556 0
      vertex -10.2745 7.46487 6.35
      vertex -10.2745 7.46487 0
    endloop
  endfacet
  facet normal -0.866025 0.5 0
    outer loop
      vertex -10.2745 7.46487 6.35
      vertex -11.602 5.16556 0
      vertex -11.602 5.16556 6.35
    endloop
  endfacet
  facet normal 0.994522 -0.104529 0
    outer loop
      vertex 12.4225 -2.64048 6.35
      vertex 12.7 0 0
      vertex 12.7 0 6.35
    endloop
  endfacet
  facet normal 0.994522 -0.104529 0
    outer loop
      vertex 12.7 0 0
      vertex 12.4225 -2.64048 6.35
      vertex 12.4225 -2.64048 0
    endloop
  endfacet
  facet normal 0.743145 0.669131 0
    outer loop
      vertex 10.2745 7.46487 6.35
      vertex 8.49796 9.43794 0
      vertex 8.49796 9.43794 6.35
    endloop
  endfacet
  facet normal 0.743145 0.669131 0
    outer loop
      vertex 8.49796 9.43794 0
      vertex 10.2745 7.46487 6.35
      vertex 10.2745 7.46487 0
    endloop
  endfacet
  facet normal 0 1 -0
    outer loop
      vertex 1.32751 12.6304 0
      vertex -1.32751 12.6304 6.35
      vertex 1.32751 12.6304 6.35
    endloop
  endfacet
  facet normal 0 1 0
    outer loop
      vertex -1.32751 12.6304 6.35
      vertex 1.32751 12.6304 0
      vertex -1.32751 12.6304 0
    endloop
  endfacet
  facet normal 0.587785 0.809017 0
    outer loop
      vertex 8.49796 9.43794 6.35
      vertex 6.35 10.9985 3.73475
      vertex 6.35 10.9985 6.35
    endloop
  endfacet
  facet normal 0.587785 0.809017 -2.70558e-07
    outer loop
      vertex 8.49796 9.43794 6.35
      vertex 6.39088 10.9688 3.68935
      vertex 6.35 10.9985 3.73475
    endloop
  endfacet
  facet normal 0.587785 0.809017 1.80391e-07
    outer loop
      vertex 8.49796 9.43794 6.35
      vertex 6.52306 10.8728 3.28253
      vertex 6.39088 10.9688 3.68935
    endloop
  endfacet
  facet normal 0.587785 0.809017 -0
    outer loop
      vertex 8.49796 9.43794 0
      vertex 6.52306 10.8728 3.28253
      vertex 8.49796 9.43794 6.35
    endloop
  endfacet
  facet normal 0.587785 0.809017 8.82052e-08
    outer loop
      vertex 6.52306 10.8728 3.28253
      vertex 8.49796 9.43794 0
      vertex 6.47835 10.9053 2.85711
    endloop
  endfacet
  facet normal 0.587785 0.809017 -3.29783e-07
    outer loop
      vertex 6.47835 10.9053 2.85711
      vertex 8.49796 9.43794 0
      vertex 6.35 10.9985 2.6348
    endloop
  endfacet
  facet normal 0.587785 0.809017 0
    outer loop
      vertex 6.35 10.9985 2.6348
      vertex 8.49796 9.43794 0
      vertex 6.35 10.9985 0
    endloop
  endfacet
  facet normal -0.994522 0.104529 0
    outer loop
      vertex -12.7 0 0
      vertex -12.4225 2.64048 6.35
      vertex -12.4225 2.64048 0
    endloop
  endfacet
  facet normal -0.994522 0.104529 0
    outer loop
      vertex -12.4225 2.64048 6.35
      vertex -12.7 0 0
      vertex -12.7 0 6.35
    endloop
  endfacet
  facet normal -0.743145 0.669131 0
    outer loop
      vertex -10.2745 7.46487 0
      vertex -8.49796 9.43794 6.35
      vertex -8.49796 9.43794 0
    endloop
  endfacet
  facet normal -0.743145 0.669131 0
    outer loop
      vertex -8.49796 9.43794 6.35
      vertex -10.2745 7.46487 0
      vertex -10.2745 7.46487 6.35
    endloop
  endfacet
  facet normal -0.406737 0.913545 -1.87691e-07
    outer loop
      vertex -3.92452 12.0784 6.35
      vertex -5.28612 11.4722 4.18122
      vertex -6.35 10.9985 6.35
    endloop
  endfacet
  facet normal -0.406737 0.913545 -1.82075e-07
    outer loop
      vertex -3.92452 12.0784 6.35
      vertex -4.89534 11.6462 4.00724
      vertex -5.28612 11.4722 4.18122
    endloop
  endfacet
  facet normal -0.406738 0.913545 6.91366e-07
    outer loop
      vertex -3.92452 12.0784 6.35
      vertex -4.60912 11.7736 3.68935
      vertex -4.89534 11.6462 4.00724
    endloop
  endfacet
  facet normal -0.406735 0.913546 -2.70953e-07
    outer loop
      vertex -3.92452 12.0784 6.35
      vertex -4.47693 11.8325 3.28253
      vertex -4.60912 11.7736 3.68935
    endloop
  endfacet
  facet normal -0.406737 0.913545 0
    outer loop
      vertex -3.92452 12.0784 0
      vertex -4.47693 11.8325 3.28253
      vertex -3.92452 12.0784 6.35
    endloop
  endfacet
  facet normal -0.406738 0.913545 -5.96403e-07
    outer loop
      vertex -5.08159 11.5633 2.23524
      vertex -3.92452 12.0784 0
      vertex -5.5 11.377 2.1463
    endloop
  endfacet
  facet normal -0.406737 0.913545 -9.82888e-08
    outer loop
      vertex -4.73553 11.7173 2.48666
      vertex -3.92452 12.0784 0
      vertex -5.08159 11.5633 2.23524
    endloop
  endfacet
  facet normal -0.406735 0.913546 4.31664e-07
    outer loop
      vertex -4.52165 11.8126 2.85711
      vertex -3.92452 12.0784 0
      vertex -4.73553 11.7173 2.48666
    endloop
  endfacet
  facet normal -0.406739 0.913544 -5.76447e-07
    outer loop
      vertex -4.47693 11.8325 3.28253
      vertex -3.92452 12.0784 0
      vertex -4.52165 11.8126 2.85711
    endloop
  endfacet
  facet normal -0.406736 0.913546 3.68925e-07
    outer loop
      vertex -5.71388 11.2817 4.18122
      vertex -6.35 10.9985 6.35
      vertex -5.28612 11.4722 4.18122
    endloop
  endfacet
  facet normal -0.406737 0.913545 5.06489e-08
    outer loop
      vertex -6.10465 11.1078 4.00724
      vertex -6.35 10.9985 6.35
      vertex -5.71388 11.2817 4.18122
    endloop
  endfacet
  facet normal -0.406737 0.913545 0
    outer loop
      vertex -6.35 10.9985 6.35
      vertex -6.10465 11.1078 4.00724
      vertex -6.35 10.9985 3.73475
    endloop
  endfacet
  facet normal -0.406737 0.913545 1.89181e-07
    outer loop
      vertex -6.35 10.9985 0
      vertex -5.5 11.377 2.1463
      vertex -3.92452 12.0784 0
    endloop
  endfacet
  facet normal -0.406737 0.913545 1.89768e-07
    outer loop
      vertex -5.5 11.377 2.1463
      vertex -6.35 10.9985 0
      vertex -5.91841 11.1907 2.23524
    endloop
  endfacet
  facet normal -0.40674 0.913544 0
    outer loop
      vertex -6.26447 11.0366 2.48666
      vertex -6.35 10.9985 0
      vertex -6.35 10.9985 2.6348
    endloop
  endfacet
  facet normal -0.406735 0.913546 -2.29752e-07
    outer loop
      vertex -5.91841 11.1907 2.23524
      vertex -6.35 10.9985 0
      vertex -6.26447 11.0366 2.48666
    endloop
  endfacet
  facet normal -0.587785 0.809017 0
    outer loop
      vertex -6.35 10.9985 3.73475
      vertex -8.49796 9.43794 6.35
      vertex -6.35 10.9985 6.35
    endloop
  endfacet
  facet normal -0.587785 0.809017 -2.70558e-07
    outer loop
      vertex -6.39088 10.9688 3.68935
      vertex -8.49796 9.43794 6.35
      vertex -6.35 10.9985 3.73475
    endloop
  endfacet
  facet normal -0.587785 0.809017 1.80391e-07
    outer loop
      vertex -6.52306 10.8728 3.28253
      vertex -8.49796 9.43794 6.35
      vertex -6.39088 10.9688 3.68935
    endloop
  endfacet
  facet normal -0.587785 0.809017 8.82052e-08
    outer loop
      vertex -8.49796 9.43794 0
      vertex -6.52306 10.8728 3.28253
      vertex -6.47835 10.9053 2.85711
    endloop
  endfacet
  facet normal -0.587785 0.809017 -3.29783e-07
    outer loop
      vertex -8.49796 9.43794 0
      vertex -6.47835 10.9053 2.85711
      vertex -6.35 10.9985 2.6348
    endloop
  endfacet
  facet normal -0.587785 0.809017 0
    outer loop
      vertex -8.49796 9.43794 0
      vertex -6.35 10.9985 2.6348
      vertex -6.35 10.9985 0
    endloop
  endfacet
  facet normal -0.587785 0.809017 0
    outer loop
      vertex -6.52306 10.8728 3.28253
      vertex -8.49796 9.43794 0
      vertex -8.49796 9.43794 6.35
    endloop
  endfacet
  facet normal 0.994522 0.104529 0
    outer loop
      vertex 12.7 0 6.35
      vertex 12.4225 2.64048 0
      vertex 12.4225 2.64048 6.35
    endloop
  endfacet
  facet normal 0.994522 0.104529 0
    outer loop
      vertex 12.4225 2.64048 0
      vertex 12.7 0 6.35
      vertex 12.7 0 0
    endloop
  endfacet
  facet normal 0.587785 -0.809017 0
    outer loop
      vertex 6.35 -10.9985 3.73475
      vertex 8.49796 -9.43794 6.35
      vertex 6.35 -10.9985 6.35
    endloop
  endfacet
  facet normal 0.587785 -0.809017 -2.70558e-07
    outer loop
      vertex 6.39088 -10.9688 3.68935
      vertex 8.49796 -9.43794 6.35
      vertex 6.35 -10.9985 3.73475
    endloop
  endfacet
  facet normal 0.587785 -0.809017 1.80391e-07
    outer loop
      vertex 6.52306 -10.8728 3.28253
      vertex 8.49796 -9.43794 6.35
      vertex 6.39088 -10.9688 3.68935
    endloop
  endfacet
  facet normal 0.587785 -0.809017 8.82052e-08
    outer loop
      vertex 8.49796 -9.43794 0
      vertex 6.52306 -10.8728 3.28253
      vertex 6.47835 -10.9053 2.85711
    endloop
  endfacet
  facet normal 0.587785 -0.809017 -3.29783e-07
    outer loop
      vertex 8.49796 -9.43794 0
      vertex 6.47835 -10.9053 2.85711
      vertex 6.35 -10.9985 2.6348
    endloop
  endfacet
  facet normal 0.587785 -0.809017 0
    outer loop
      vertex 8.49796 -9.43794 0
      vertex 6.35 -10.9985 2.6348
      vertex 6.35 -10.9985 0
    endloop
  endfacet
  facet normal 0.587785 -0.809017 0
    outer loop
      vertex 6.52306 -10.8728 3.28253
      vertex 8.49796 -9.43794 0
      vertex 8.49796 -9.43794 6.35
    endloop
  endfacet
  facet normal 0 0 1
    outer loop
      vertex 3.02812 0 6.35
      vertex 12.7 0 6.35
      vertex 12.4225 2.64048 6.35
    endloop
  endfacet
  facet normal 0 0 1
    outer loop
      vertex 2.87992 0.935741 6.35
      vertex 12.4225 2.64048 6.35
      vertex 11.602 5.16556 6.35
    endloop
  endfacet
  facet normal 0 0 1
    outer loop
      vertex 12.7 0 6.35
      vertex 3.02812 0 6.35
      vertex 12.4225 -2.64048 6.35
    endloop
  endfacet
  facet normal 0 0 1
    outer loop
      vertex 2.4498 1.77989 6.35
      vertex 11.602 5.16556 6.35
      vertex 10.2745 7.46487 6.35
    endloop
  endfacet
  facet normal -0 0 1
    outer loop
      vertex 2.87992 -0.935741 6.35
      vertex 12.4225 -2.64048 6.35
      vertex 3.02812 0 6.35
    endloop
  endfacet
  facet normal 0 0 1
    outer loop
      vertex 2.4498 1.77989 6.35
      vertex 10.2745 7.46487 6.35
      vertex 8.49796 9.43794 6.35
    endloop
  endfacet
  facet normal 0 0 1
    outer loop
      vertex 12.4225 -2.64048 6.35
      vertex 2.87992 -0.935741 6.35
      vertex 11.602 -5.16556 6.35
    endloop
  endfacet
  facet normal 0 0 1
    outer loop
      vertex 1.77989 2.4498 6.35
      vertex 8.49796 9.43794 6.35
      vertex 6.35 10.9985 6.35
    endloop
  endfacet
  facet normal -0 0 1
    outer loop
      vertex 2.4498 -1.77989 6.35
      vertex 11.602 -5.16556 6.35
      vertex 2.87992 -0.935741 6.35
    endloop
  endfacet
  facet normal 0 0 1
    outer loop
      vertex 0.935741 2.87992 6.35
      vertex 6.35 10.9985 6.35
      vertex 3.92452 12.0784 6.35
    endloop
  endfacet
  facet normal 0 0 1
    outer loop
      vertex 11.602 -5.16556 6.35
      vertex 2.4498 -1.77989 6.35
      vertex 10.2745 -7.46487 6.35
    endloop
  endfacet
  facet normal 0 0 1
    outer loop
      vertex 10.2745 -7.46487 6.35
      vertex 2.4498 -1.77989 6.35
      vertex 8.49796 -9.43794 6.35
    endloop
  endfacet
  facet normal 0 0 1
    outer loop
      vertex 12.4225 2.64048 6.35
      vertex 2.87992 0.935741 6.35
      vertex 3.02812 0 6.35
    endloop
  endfacet
  facet normal 0 0 1
    outer loop
      vertex 11.602 5.16556 6.35
      vertex 2.4498 1.77989 6.35
      vertex 2.87992 0.935741 6.35
    endloop
  endfacet
  facet normal 0 0 1
    outer loop
      vertex 8.49796 9.43794 6.35
      vertex 1.77989 2.4498 6.35
      vertex 2.4498 1.77989 6.35
    endloop
  endfacet
  facet normal 0 0 1
    outer loop
      vertex 0.935741 2.87992 6.35
      vertex 3.92452 12.0784 6.35
      vertex 1.32751 12.6304 6.35
    endloop
  endfacet
  facet normal 0 0 1
    outer loop
      vertex 6.35 10.9985 6.35
      vertex 0.935741 2.87992 6.35
      vertex 1.77989 2.4498 6.35
    endloop
  endfacet
  facet normal 0 0 1
    outer loop
      vertex 1.32751 12.6304 6.35
      vertex 0 3.02812 6.35
      vertex 0.935741 2.87992 6.35
    endloop
  endfacet
  facet normal -0 0 1
    outer loop
      vertex -1.32751 12.6304 6.35
      vertex 0 3.02812 6.35
      vertex 1.32751 12.6304 6.35
    endloop
  endfacet
  facet normal 0 0 1
    outer loop
      vertex 0 3.02812 6.35
      vertex -1.32751 12.6304 6.35
      vertex -0.935741 2.87992 6.35
    endloop
  endfacet
  facet normal -0 0 1
    outer loop
      vertex -3.92452 12.0784 6.35
      vertex -0.935741 2.87992 6.35
      vertex -1.32751 12.6304 6.35
    endloop
  endfacet
  facet normal -0 0 1
    outer loop
      vertex -6.35 10.9985 6.35
      vertex -0.935741 2.87992 6.35
      vertex -3.92452 12.0784 6.35
    endloop
  endfacet
  facet normal 0 0 1
    outer loop
      vertex -0.935741 2.87992 6.35
      vertex -6.35 10.9985 6.35
      vertex -1.77989 2.4498 6.35
    endloop
  endfacet
  facet normal -0 0 1
    outer loop
      vertex -8.49796 9.43794 6.35
      vertex -1.77989 2.4498 6.35
      vertex -6.35 10.9985 6.35
    endloop
  endfacet
  facet normal 0 0 1
    outer loop
      vertex -1.77989 2.4498 6.35
      vertex -8.49796 9.43794 6.35
      vertex -2.4498 1.77989 6.35
    endloop
  endfacet
  facet normal -0 0 1
    outer loop
      vertex 1.77989 -2.4498 6.35
      vertex 8.49796 -9.43794 6.35
      vertex 2.4498 -1.77989 6.35
    endloop
  endfacet
  facet normal 0 0 1
    outer loop
      vertex 8.49796 -9.43794 6.35
      vertex 1.77989 -2.4498 6.35
      vertex 6.35 -10.9985 6.35
    endloop
  endfacet
  facet normal -0 0 1
    outer loop
      vertex 0.935741 -2.87992 6.35
      vertex 6.35 -10.9985 6.35
      vertex 1.77989 -2.4498 6.35
    endloop
  endfacet
  facet normal 0 0 1
    outer loop
      vertex 6.35 -10.9985 6.35
      vertex 0.935741 -2.87992 6.35
      vertex 3.92452 -12.0784 6.35
    endloop
  endfacet
  facet normal 0 0 1
    outer loop
      vertex 3.92452 -12.0784 6.35
      vertex 0.935741 -2.87992 6.35
      vertex 1.32751 -12.6304 6.35
    endloop
  endfacet
  facet normal -0 0 1
    outer loop
      vertex 0 -3.02812 6.35
      vertex 1.32751 -12.6304 6.35
      vertex 0.935741 -2.87992 6.35
    endloop
  endfacet
  facet normal 0 0 1
    outer loop
      vertex -1.32751 -12.6304 6.35
      vertex 0 -3.02812 6.35
      vertex -0.935741 -2.87992 6.35
    endloop
  endfacet
  facet normal 0 0 1
    outer loop
      vertex 0 -3.02812 6.35
      vertex -1.32751 -12.6304 6.35
      vertex 1.32751 -12.6304 6.35
    endloop
  endfacet
  facet normal 0 0 1
    outer loop
      vertex -6.35 -10.9985 6.35
      vertex -0.935741 -2.87992 6.35
      vertex -1.77989 -2.4498 6.35
    endloop
  endfacet
  facet normal 0 0 1
    outer loop
      vertex -8.49796 -9.43794 6.35
      vertex -1.77989 -2.4498 6.35
      vertex -2.4498 -1.77989 6.35
    endloop
  endfacet
  facet normal 0 0 1
    outer loop
      vertex -11.602 -5.16556 6.35
      vertex -2.4498 -1.77989 6.35
      vertex -2.87992 -0.935741 6.35
    endloop
  endfacet
  facet normal 0 0 1
    outer loop
      vertex -12.4225 -2.64048 6.35
      vertex -2.87992 -0.935741 6.35
      vertex -3.02812 0 6.35
    endloop
  endfacet
  facet normal 0 0 1
    outer loop
      vertex -0.935741 -2.87992 6.35
      vertex -3.92452 -12.0784 6.35
      vertex -1.32751 -12.6304 6.35
    endloop
  endfacet
  facet normal -0 0 1
    outer loop
      vertex -10.2745 7.46487 6.35
      vertex -2.4498 1.77989 6.35
      vertex -8.49796 9.43794 6.35
    endloop
  endfacet
  facet normal -0 0 1
    outer loop
      vertex -11.602 5.16556 6.35
      vertex -2.4498 1.77989 6.35
      vertex -10.2745 7.46487 6.35
    endloop
  endfacet
  facet normal 0 0 1
    outer loop
      vertex -0.935741 -2.87992 6.35
      vertex -6.35 -10.9985 6.35
      vertex -3.92452 -12.0784 6.35
    endloop
  endfacet
  facet normal 0 0 1
    outer loop
      vertex -2.4498 1.77989 6.35
      vertex -11.602 5.16556 6.35
      vertex -2.87992 0.935741 6.35
    endloop
  endfacet
  facet normal 0 0 1
    outer loop
      vertex -1.77989 -2.4498 6.35
      vertex -8.49796 -9.43794 6.35
      vertex -6.35 -10.9985 6.35
    endloop
  endfacet
  facet normal -0 0 1
    outer loop
      vertex -12.4225 2.64048 6.35
      vertex -2.87992 0.935741 6.35
      vertex -11.602 5.16556 6.35
    endloop
  endfacet
  facet normal 0 0 1
    outer loop
      vertex -2.4498 -1.77989 6.35
      vertex -10.2745 -7.46487 6.35
      vertex -8.49796 -9.43794 6.35
    endloop
  endfacet
  facet normal 0 0 1
    outer loop
      vertex -2.87992 0.935741 6.35
      vertex -12.4225 2.64048 6.35
      vertex -3.02812 0 6.35
    endloop
  endfacet
  facet normal 0 0 1
    outer loop
      vertex -2.4498 -1.77989 6.35
      vertex -11.602 -5.16556 6.35
      vertex -10.2745 -7.46487 6.35
    endloop
  endfacet
  facet normal 0 0 1
    outer loop
      vertex -12.7 0 6.35
      vertex -3.02812 0 6.35
      vertex -12.4225 2.64048 6.35
    endloop
  endfacet
  facet normal 0 0 1
    outer loop
      vertex -2.87992 -0.935741 6.35
      vertex -12.4225 -2.64048 6.35
      vertex -11.602 -5.16556 6.35
    endloop
  endfacet
  facet normal 0 0 1
    outer loop
      vertex -3.02812 0 6.35
      vertex -12.7 0 6.35
      vertex -12.4225 -2.64048 6.35
    endloop
  endfacet
  facet normal 0.951057 -0.309017 0
    outer loop
      vertex 11.602 -5.16556 6.35
      vertex 12.4225 -2.64048 0
      vertex 12.4225 -2.64048 6.35
    endloop
  endfacet
  facet normal 0.951057 -0.309017 0
    outer loop
      vertex 12.4225 -2.64048 0
      vertex 11.602 -5.16556 6.35
      vertex 11.602 -5.16556 0
    endloop
  endfacet
  facet normal 0.866025 -0.5 0
    outer loop
      vertex 10.2745 -7.46487 6.35
      vertex 11.602 -5.16556 0
      vertex 11.602 -5.16556 6.35
    endloop
  endfacet
  facet normal 0.866025 -0.5 0
    outer loop
      vertex 11.602 -5.16556 0
      vertex 10.2745 -7.46487 6.35
      vertex 10.2745 -7.46487 0
    endloop
  endfacet
  facet normal -0.207912 -0.978148 0
    outer loop
      vertex -3.92452 -12.0784 0
      vertex -1.32751 -12.6304 6.35
      vertex -3.92452 -12.0784 6.35
    endloop
  endfacet
  facet normal -0.207912 -0.978148 -0
    outer loop
      vertex -1.32751 -12.6304 6.35
      vertex -3.92452 -12.0784 0
      vertex -1.32751 -12.6304 0
    endloop
  endfacet
  facet normal -0.994522 -0.104529 0
    outer loop
      vertex -12.4225 -2.64048 0
      vertex -12.7 0 6.35
      vertex -12.7 0 0
    endloop
  endfacet
  facet normal -0.994522 -0.104529 0
    outer loop
      vertex -12.7 0 6.35
      vertex -12.4225 -2.64048 0
      vertex -12.4225 -2.64048 6.35
    endloop
  endfacet
  facet normal 0.207912 -0.978148 0
    outer loop
      vertex 1.32751 -12.6304 0
      vertex 3.92452 -12.0784 6.35
      vertex 1.32751 -12.6304 6.35
    endloop
  endfacet
  facet normal 0.207912 -0.978148 0
    outer loop
      vertex 3.92452 -12.0784 6.35
      vertex 1.32751 -12.6304 0
      vertex 3.92452 -12.0784 0
    endloop
  endfacet
  facet normal 0.406737 -0.913545 -1.87691e-07
    outer loop
      vertex 3.92452 -12.0784 6.35
      vertex 5.28612 -11.4722 4.18122
      vertex 6.35 -10.9985 6.35
    endloop
  endfacet
  facet normal 0.406737 -0.913545 -1.82075e-07
    outer loop
      vertex 3.92452 -12.0784 6.35
      vertex 4.89534 -11.6462 4.00724
      vertex 5.28612 -11.4722 4.18122
    endloop
  endfacet
  facet normal 0.406738 -0.913545 6.91366e-07
    outer loop
      vertex 3.92452 -12.0784 6.35
      vertex 4.60912 -11.7736 3.68935
      vertex 4.89534 -11.6462 4.00724
    endloop
  endfacet
  facet normal 0.406735 -0.913546 -2.70953e-07
    outer loop
      vertex 3.92452 -12.0784 6.35
      vertex 4.47693 -11.8325 3.28253
      vertex 4.60912 -11.7736 3.68935
    endloop
  endfacet
  facet normal 0.406737 -0.913545 0
    outer loop
      vertex 3.92452 -12.0784 0
      vertex 4.47693 -11.8325 3.28253
      vertex 3.92452 -12.0784 6.35
    endloop
  endfacet
  facet normal 0.406738 -0.913545 -5.96403e-07
    outer loop
      vertex 5.08159 -11.5633 2.23524
      vertex 3.92452 -12.0784 0
      vertex 5.5 -11.377 2.1463
    endloop
  endfacet
  facet normal 0.406737 -0.913545 -9.82888e-08
    outer loop
      vertex 4.73553 -11.7173 2.48666
      vertex 3.92452 -12.0784 0
      vertex 5.08159 -11.5633 2.23524
    endloop
  endfacet
  facet normal 0.406735 -0.913546 4.31664e-07
    outer loop
      vertex 4.52165 -11.8126 2.85711
      vertex 3.92452 -12.0784 0
      vertex 4.73553 -11.7173 2.48666
    endloop
  endfacet
  facet normal 0.406739 -0.913544 -5.76447e-07
    outer loop
      vertex 4.47693 -11.8325 3.28253
      vertex 3.92452 -12.0784 0
      vertex 4.52165 -11.8126 2.85711
    endloop
  endfacet
  facet normal 0.406736 -0.913546 3.68925e-07
    outer loop
      vertex 5.71388 -11.2817 4.18122
      vertex 6.35 -10.9985 6.35
      vertex 5.28612 -11.4722 4.18122
    endloop
  endfacet
  facet normal 0.406737 -0.913545 5.06489e-08
    outer loop
      vertex 6.10465 -11.1078 4.00724
      vertex 6.35 -10.9985 6.35
      vertex 5.71388 -11.2817 4.18122
    endloop
  endfacet
  facet normal 0.406737 -0.913545 0
    outer loop
      vertex 6.35 -10.9985 6.35
      vertex 6.10465 -11.1078 4.00724
      vertex 6.35 -10.9985 3.73475
    endloop
  endfacet
  facet normal 0.406737 -0.913545 1.89181e-07
    outer loop
      vertex 6.35 -10.9985 0
      vertex 5.5 -11.377 2.1463
      vertex 3.92452 -12.0784 0
    endloop
  endfacet
  facet normal 0.406737 -0.913545 1.89768e-07
    outer loop
      vertex 5.5 -11.377 2.1463
      vertex 6.35 -10.9985 0
      vertex 5.91841 -11.1907 2.23524
    endloop
  endfacet
  facet normal 0.40674 -0.913544 0
    outer loop
      vertex 6.26447 -11.0366 2.48666
      vertex 6.35 -10.9985 0
      vertex 6.35 -10.9985 2.6348
    endloop
  endfacet
  facet normal 0.406735 -0.913546 -2.29752e-07
    outer loop
      vertex 5.91841 -11.1907 2.23524
      vertex 6.35 -10.9985 0
      vertex 6.26447 -11.0366 2.48666
    endloop
  endfacet
  facet normal 0.743145 -0.669131 0
    outer loop
      vertex 8.49796 -9.43794 6.35
      vertex 10.2745 -7.46487 0
      vertex 10.2745 -7.46487 6.35
    endloop
  endfacet
  facet normal 0.743145 -0.669131 0
    outer loop
      vertex 10.2745 -7.46487 0
      vertex 8.49796 -9.43794 6.35
      vertex 8.49796 -9.43794 0
    endloop
  endfacet
  facet normal -0.587785 -0.809017 0
    outer loop
      vertex -8.49796 -9.43794 6.35
      vertex -6.35 -10.9985 3.73475
      vertex -6.35 -10.9985 6.35
    endloop
  endfacet
  facet normal -0.587785 -0.809017 -2.70558e-07
    outer loop
      vertex -8.49796 -9.43794 6.35
      vertex -6.39088 -10.9688 3.68935
      vertex -6.35 -10.9985 3.73475
    endloop
  endfacet
  facet normal -0.587785 -0.809017 1.80391e-07
    outer loop
      vertex -8.49796 -9.43794 6.35
      vertex -6.52306 -10.8728 3.28253
      vertex -6.39088 -10.9688 3.68935
    endloop
  endfacet
  facet normal -0.587785 -0.809017 0
    outer loop
      vertex -8.49796 -9.43794 0
      vertex -6.52306 -10.8728 3.28253
      vertex -8.49796 -9.43794 6.35
    endloop
  endfacet
  facet normal -0.587785 -0.809017 8.82052e-08
    outer loop
      vertex -6.52306 -10.8728 3.28253
      vertex -8.49796 -9.43794 0
      vertex -6.47835 -10.9053 2.85711
    endloop
  endfacet
  facet normal -0.587785 -0.809017 -3.29783e-07
    outer loop
      vertex -6.47835 -10.9053 2.85711
      vertex -8.49796 -9.43794 0
      vertex -6.35 -10.9985 2.6348
    endloop
  endfacet
  facet normal -0.587785 -0.809017 -0
    outer loop
      vertex -6.35 -10.9985 2.6348
      vertex -8.49796 -9.43794 0
      vertex -6.35 -10.9985 0
    endloop
  endfacet
  facet normal 0 -1 0
    outer loop
      vertex -1.32751 -12.6304 0
      vertex 1.32751 -12.6304 6.35
      vertex -1.32751 -12.6304 6.35
    endloop
  endfacet
  facet normal 0 -1 -0
    outer loop
      vertex 1.32751 -12.6304 6.35
      vertex -1.32751 -12.6304 0
      vertex 1.32751 -12.6304 0
    endloop
  endfacet
  facet normal -0.406737 -0.913545 1.89768e-07
    outer loop
      vertex -5.91841 -11.1907 2.23524
      vertex -6.35 -10.9985 0
      vertex -5.5 -11.377 2.1463
    endloop
  endfacet
  facet normal -0.406735 -0.913546 -2.29752e-07
    outer loop
      vertex -6.26447 -11.0366 2.48666
      vertex -6.35 -10.9985 0
      vertex -5.91841 -11.1907 2.23524
    endloop
  endfacet
  facet normal -0.40674 -0.913544 0
    outer loop
      vertex -6.35 -10.9985 0
      vertex -6.26447 -11.0366 2.48666
      vertex -6.35 -10.9985 2.6348
    endloop
  endfacet
  facet normal -0.406736 -0.913546 3.68925e-07
    outer loop
      vertex -5.28612 -11.4722 4.18122
      vertex -6.35 -10.9985 6.35
      vertex -5.71388 -11.2817 4.18122
    endloop
  endfacet
  facet normal -0.406737 -0.913545 5.06489e-08
    outer loop
      vertex -6.35 -10.9985 6.35
      vertex -6.10465 -11.1078 4.00724
      vertex -5.71388 -11.2817 4.18122
    endloop
  endfacet
  facet normal -0.406737 -0.913545 0
    outer loop
      vertex -6.10465 -11.1078 4.00724
      vertex -6.35 -10.9985 6.35
      vertex -6.35 -10.9985 3.73475
    endloop
  endfacet
  facet normal -0.406737 -0.913545 -1.87691e-07
    outer loop
      vertex -6.35 -10.9985 6.35
      vertex -5.28612 -11.4722 4.18122
      vertex -3.92452 -12.0784 6.35
    endloop
  endfacet
  facet normal -0.406737 -0.913545 -1.82075e-07
    outer loop
      vertex -4.89534 -11.6462 4.00724
      vertex -3.92452 -12.0784 6.35
      vertex -5.28612 -11.4722 4.18122
    endloop
  endfacet
  facet normal -0.406738 -0.913545 6.91366e-07
    outer loop
      vertex -4.60912 -11.7736 3.68935
      vertex -3.92452 -12.0784 6.35
      vertex -4.89534 -11.6462 4.00724
    endloop
  endfacet
  facet normal -0.406735 -0.913546 -2.70953e-07
    outer loop
      vertex -4.47693 -11.8325 3.28253
      vertex -3.92452 -12.0784 6.35
      vertex -4.60912 -11.7736 3.68935
    endloop
  endfacet
  facet normal -0.406739 -0.913544 -5.76447e-07
    outer loop
      vertex -3.92452 -12.0784 0
      vertex -4.47693 -11.8325 3.28253
      vertex -4.52165 -11.8126 2.85711
    endloop
  endfacet
  facet normal -0.406737 -0.913545 1.89181e-07
    outer loop
      vertex -3.92452 -12.0784 0
      vertex -5.5 -11.377 2.1463
      vertex -6.35 -10.9985 0
    endloop
  endfacet
  facet normal -0.406738 -0.913545 -5.96403e-07
    outer loop
      vertex -5.5 -11.377 2.1463
      vertex -3.92452 -12.0784 0
      vertex -5.08159 -11.5633 2.23524
    endloop
  endfacet
  facet normal -0.406737 -0.913545 0
    outer loop
      vertex -4.47693 -11.8325 3.28253
      vertex -3.92452 -12.0784 0
      vertex -3.92452 -12.0784 6.35
    endloop
  endfacet
  facet normal -0.406735 -0.913546 4.31664e-07
    outer loop
      vertex -4.73553 -11.7173 2.48666
      vertex -3.92452 -12.0784 0
      vertex -4.52165 -11.8126 2.85711
    endloop
  endfacet
  facet normal -0.406737 -0.913545 -9.82888e-08
    outer loop
      vertex -5.08159 -11.5633 2.23524
      vertex -3.92452 -12.0784 0
      vertex -4.73553 -11.7173 2.48666
    endloop
  endfacet
  facet normal 0 0 -1
    outer loop
      vertex 3.02812 0 0
      vertex 12.7 0 0
      vertex 12.4225 -2.64048 0
    endloop
  endfacet
  facet normal 0 0 -1
    outer loop
      vertex 2.87992 -0.935741 0
      vertex 12.4225 -2.64048 0
      vertex 11.602 -5.16556 0
    endloop
  endfacet
  facet normal 0 0 -1
    outer loop
      vertex 12.7 0 0
      vertex 3.02812 0 0
      vertex 12.4225 2.64048 0
    endloop
  endfacet
  facet normal 0 0 -1
    outer loop
      vertex 2.4498 -1.77989 0
      vertex 11.602 -5.16556 0
      vertex 10.2745 -7.46487 0
    endloop
  endfacet
  facet normal 0 0 -1
    outer loop
      vertex 2.87992 0.935741 0
      vertex 12.4225 2.64048 0
      vertex 3.02812 0 0
    endloop
  endfacet
  facet normal 0 0 -1
    outer loop
      vertex 2.4498 -1.77989 0
      vertex 10.2745 -7.46487 0
      vertex 8.49796 -9.43794 0
    endloop
  endfacet
  facet normal -0 0 -1
    outer loop
      vertex 12.4225 2.64048 0
      vertex 2.87992 0.935741 0
      vertex 11.602 5.16556 0
    endloop
  endfacet
  facet normal 0 0 -1
    outer loop
      vertex 1.77989 -2.4498 0
      vertex 8.49796 -9.43794 0
      vertex 6.35 -10.9985 0
    endloop
  endfacet
  facet normal 0 0 -1
    outer loop
      vertex 2.4498 1.77989 0
      vertex 11.602 5.16556 0
      vertex 2.87992 0.935741 0
    endloop
  endfacet
  facet normal 0 0 -1
    outer loop
      vertex 0.935741 -2.87992 0
      vertex 6.35 -10.9985 0
      vertex 3.92452 -12.0784 0
    endloop
  endfacet
  facet normal -0 0 -1
    outer loop
      vertex 11.602 5.16556 0
      vertex 2.4498 1.77989 0
      vertex 10.2745 7.46487 0
    endloop
  endfacet
  facet normal -0 0 -1
    outer loop
      vertex 10.2745 7.46487 0
      vertex 2.4498 1.77989 0
      vertex 8.49796 9.43794 0
    endloop
  endfacet
  facet normal 0 0 -1
    outer loop
      vertex 12.4225 -2.64048 0
      vertex 2.87992 -0.935741 0
      vertex 3.02812 0 0
    endloop
  endfacet
  facet normal 0 0 -1
    outer loop
      vertex 11.602 -5.16556 0
      vertex 2.4498 -1.77989 0
      vertex 2.87992 -0.935741 0
    endloop
  endfacet
  facet normal 0 0 -1
    outer loop
      vertex 8.49796 -9.43794 0
      vertex 1.77989 -2.4498 0
      vertex 2.4498 -1.77989 0
    endloop
  endfacet
  facet normal 0 0 -1
    outer loop
      vertex 0.935741 -2.87992 0
      vertex 3.92452 -12.0784 0
      vertex 1.32751 -12.6304 0
    endloop
  endfacet
  facet normal 0 0 -1
    outer loop
      vertex 6.35 -10.9985 0
      vertex 0.935741 -2.87992 0
      vertex 1.77989 -2.4498 0
    endloop
  endfacet
  facet normal 0 0 -1
    outer loop
      vertex 1.32751 -12.6304 0
      vertex 0 -3.02812 0
      vertex 0.935741 -2.87992 0
    endloop
  endfacet
  facet normal 0 0 -1
    outer loop
      vertex -1.32751 -12.6304 0
      vertex 0 -3.02812 0
      vertex 1.32751 -12.6304 0
    endloop
  endfacet
  facet normal -0 0 -1
    outer loop
      vertex 0 -3.02812 0
      vertex -1.32751 -12.6304 0
      vertex -0.935741 -2.87992 0
    endloop
  endfacet
  facet normal 0 0 -1
    outer loop
      vertex -3.92452 -12.0784 0
      vertex -0.935741 -2.87992 0
      vertex -1.32751 -12.6304 0
    endloop
  endfacet
  facet normal 0 0 -1
    outer loop
      vertex -6.35 -10.9985 0
      vertex -0.935741 -2.87992 0
      vertex -3.92452 -12.0784 0
    endloop
  endfacet
  facet normal -0 0 -1
    outer loop
      vertex -0.935741 -2.87992 0
      vertex -6.35 -10.9985 0
      vertex -1.77989 -2.4498 0
    endloop
  endfacet
  facet normal 0 0 -1
    outer loop
      vertex -8.49796 -9.43794 0
      vertex -1.77989 -2.4498 0
      vertex -6.35 -10.9985 0
    endloop
  endfacet
  facet normal -0 0 -1
    outer loop
      vertex -1.77989 -2.4498 0
      vertex -8.49796 -9.43794 0
      vertex -2.4498 -1.77989 0
    endloop
  endfacet
  facet normal 0 0 -1
    outer loop
      vertex 1.77989 2.4498 0
      vertex 8.49796 9.43794 0
      vertex 2.4498 1.77989 0
    endloop
  endfacet
  facet normal -0 0 -1
    outer loop
      vertex 8.49796 9.43794 0
      vertex 1.77989 2.4498 0
      vertex 6.35 10.9985 0
    endloop
  endfacet
  facet normal 0 0 -1
    outer loop
      vertex 0.935741 2.87992 0
      vertex 6.35 10.9985 0
      vertex 1.77989 2.4498 0
    endloop
  endfacet
  facet normal -0 0 -1
    outer loop
      vertex 6.35 10.9985 0
      vertex 0.935741 2.87992 0
      vertex 3.92452 12.0784 0
    endloop
  endfacet
  facet normal -0 0 -1
    outer loop
      vertex 3.92452 12.0784 0
      vertex 0.935741 2.87992 0
      vertex 1.32751 12.6304 0
    endloop
  endfacet
  facet normal 0 0 -1
    outer loop
      vertex 0 3.02812 0
      vertex 1.32751 12.6304 0
      vertex 0.935741 2.87992 0
    endloop
  endfacet
  facet normal 0 0 -1
    outer loop
      vertex -1.32751 12.6304 0
      vertex 0 3.02812 0
      vertex -0.935741 2.87992 0
    endloop
  endfacet
  facet normal 0 0 -1
    outer loop
      vertex 0 3.02812 0
      vertex -1.32751 12.6304 0
      vertex 1.32751 12.6304 0
    endloop
  endfacet
  facet normal 0 0 -1
    outer loop
      vertex -6.35 10.9985 0
      vertex -0.935741 2.87992 0
      vertex -1.77989 2.4498 0
    endloop
  endfacet
  facet normal 0 0 -1
    outer loop
      vertex -8.49796 9.43794 0
      vertex -1.77989 2.4498 0
      vertex -2.4498 1.77989 0
    endloop
  endfacet
  facet normal 0 0 -1
    outer loop
      vertex -11.602 5.16556 0
      vertex -2.4498 1.77989 0
      vertex -2.87992 0.935741 0
    endloop
  endfacet
  facet normal 0 0 -1
    outer loop
      vertex -12.4225 2.64048 0
      vertex -2.87992 0.935741 0
      vertex -3.02812 0 0
    endloop
  endfacet
  facet normal 0 0 -1
    outer loop
      vertex -0.935741 2.87992 0
      vertex -3.92452 12.0784 0
      vertex -1.32751 12.6304 0
    endloop
  endfacet
  facet normal 0 0 -1
    outer loop
      vertex -10.2745 -7.46487 0
      vertex -2.4498 -1.77989 0
      vertex -8.49796 -9.43794 0
    endloop
  endfacet
  facet normal 0 0 -1
    outer loop
      vertex -11.602 -5.16556 0
      vertex -2.4498 -1.77989 0
      vertex -10.2745 -7.46487 0
    endloop
  endfacet
  facet normal 0 0 -1
    outer loop
      vertex -0.935741 2.87992 0
      vertex -6.35 10.9985 0
      vertex -3.92452 12.0784 0
    endloop
  endfacet
  facet normal -0 0 -1
    outer loop
      vertex -2.4498 -1.77989 0
      vertex -11.602 -5.16556 0
      vertex -2.87992 -0.935741 0
    endloop
  endfacet
  facet normal 0 0 -1
    outer loop
      vertex -1.77989 2.4498 0
      vertex -8.49796 9.43794 0
      vertex -6.35 10.9985 0
    endloop
  endfacet
  facet normal 0 0 -1
    outer loop
      vertex -12.4225 -2.64048 0
      vertex -2.87992 -0.935741 0
      vertex -11.602 -5.16556 0
    endloop
  endfacet
  facet normal 0 0 -1
    outer loop
      vertex -2.4498 1.77989 0
      vertex -10.2745 7.46487 0
      vertex -8.49796 9.43794 0
    endloop
  endfacet
  facet normal -0 0 -1
    outer loop
      vertex -2.87992 -0.935741 0
      vertex -12.4225 -2.64048 0
      vertex -3.02812 0 0
    endloop
  endfacet
  facet normal 0 0 -1
    outer loop
      vertex -2.4498 1.77989 0
      vertex -11.602 5.16556 0
      vertex -10.2745 7.46487 0
    endloop
  endfacet
  facet normal 0 0 -1
    outer loop
      vertex -12.7 0 0
      vertex -3.02812 0 0
      vertex -12.4225 -2.64048 0
    endloop
  endfacet
  facet normal 0 0 -1
    outer loop
      vertex -2.87992 0.935741 0
      vertex -12.4225 2.64048 0
      vertex -11.602 5.16556 0
    endloop
  endfacet
  facet normal 0 0 -1
    outer loop
      vertex -3.02812 0 0
      vertex -12.7 0 0
      vertex -12.4225 2.64048 0
    endloop
  endfacet
  facet normal -0.951057 -0.309017 0
    outer loop
      vertex -11.602 -5.16556 0
      vertex -12.4225 -2.64048 6.35
      vertex -12.4225 -2.64048 0
    endloop
  endfacet
  facet normal -0.951057 -0.309017 0
    outer loop
      vertex -12.4225 -2.64048 6.35
      vertex -11.602 -5.16556 0
      vertex -11.602 -5.16556 6.35
    endloop
  endfacet
  facet normal -0.743145 -0.669131 0
    outer loop
      vertex -8.49796 -9.43794 0
      vertex -10.2745 -7.46487 6.35
      vertex -10.2745 -7.46487 0
    endloop
  endfacet
  facet normal -0.743145 -0.669131 0
    outer loop
      vertex -10.2745 -7.46487 6.35
      vertex -8.49796 -9.43794 0
      vertex -8.49796 -9.43794 6.35
    endloop
  endfacet
  facet normal -0.866025 -0.5 0
    outer loop
      vertex -10.2745 -7.46487 0
      vertex -11.602 -5.16556 6.35
      vertex -11.602 -5.16556 0
    endloop
  endfacet
  facet normal -0.866025 -0.5 0
    outer loop
      vertex -11.602 -5.16556 6.35
      vertex -10.2745 -7.46487 0
      vertex -10.2745 -7.46487 6.35
    endloop
  endfacet
  facet normal -0.987688 -0.156435 0
    outer loop
      vertex 3.02812 0 0
      vertex 2.87992 0.935741 6.35
      vertex 2.87992 0.935741 0
    endloop
  endfacet
  facet normal -0.987688 -0.156435 0
    outer loop
      vertex 2.87992 0.935741 6.35
      vertex 3.02812 0 0
      vertex 3.02812 0 6.35
    endloop
  endfacet
  facet normal -0.45399 -0.891007 0
    outer loop
      vertex 0.935741 2.87992 0
      vertex 1.77989 2.4498 6.35
      vertex 0.935741 2.87992 6.35
    endloop
  endfacet
  facet normal -0.45399 -0.891007 -0
    outer loop
      vertex 1.77989 2.4498 6.35
      vertex 0.935741 2.87992 0
      vertex 1.77989 2.4498 0
    endloop
  endfacet
  facet normal 0.891007 -0.45399 0
    outer loop
      vertex -2.87992 0.935741 6.35
      vertex -2.4498 1.77989 0
      vertex -2.4498 1.77989 6.35
    endloop
  endfacet
  facet normal 0.891007 -0.45399 0
    outer loop
      vertex -2.4498 1.77989 0
      vertex -2.87992 0.935741 6.35
      vertex -2.87992 0.935741 0
    endloop
  endfacet
  facet normal 0.45399 0.891007 -0
    outer loop
      vertex -0.935741 -2.87992 0
      vertex -1.77989 -2.4498 6.35
      vertex -0.935741 -2.87992 6.35
    endloop
  endfacet
  facet normal 0.45399 0.891007 0
    outer loop
      vertex -1.77989 -2.4498 6.35
      vertex -0.935741 -2.87992 0
      vertex -1.77989 -2.4498 0
    endloop
  endfacet
  facet normal -0.707107 -0.707107 0
    outer loop
      vertex 2.4498 1.77989 0
      vertex 1.77989 2.4498 6.35
      vertex 1.77989 2.4498 0
    endloop
  endfacet
  facet normal -0.707107 -0.707107 0
    outer loop
      vertex 1.77989 2.4498 6.35
      vertex 2.4498 1.77989 0
      vertex 2.4498 1.77989 6.35
    endloop
  endfacet
  facet normal -0.891007 -0.45399 0
    outer loop
      vertex 2.87992 0.935741 0
      vertex 2.4498 1.77989 6.35
      vertex 2.4498 1.77989 0
    endloop
  endfacet
  facet normal -0.891007 -0.45399 0
    outer loop
      vertex 2.4498 1.77989 6.35
      vertex 2.87992 0.935741 0
      vertex 2.87992 0.935741 6.35
    endloop
  endfacet
  facet normal -0.156435 -0.987688 0
    outer loop
      vertex 0 3.02812 0
      vertex 0.935741 2.87992 6.35
      vertex 0 3.02812 6.35
    endloop
  endfacet
  facet normal -0.156435 -0.987688 -0
    outer loop
      vertex 0.935741 2.87992 6.35
      vertex 0 3.02812 0
      vertex 0.935741 2.87992 0
    endloop
  endfacet
  facet normal 0.156435 -0.987688 0
    outer loop
      vertex -0.935741 2.87992 0
      vertex 0 3.02812 6.35
      vertex -0.935741 2.87992 6.35
    endloop
  endfacet
  facet normal 0.156435 -0.987688 0
    outer loop
      vertex 0 3.02812 6.35
      vertex -0.935741 2.87992 0
      vertex 0 3.02812 0
    endloop
  endfacet
  facet normal 0.707107 -0.707107 0
    outer loop
      vertex -2.4498 1.77989 6.35
      vertex -1.77989 2.4498 0
      vertex -1.77989 2.4498 6.35
    endloop
  endfacet
  facet normal 0.707107 -0.707107 0
    outer loop
      vertex -1.77989 2.4498 0
      vertex -2.4498 1.77989 6.35
      vertex -2.4498 1.77989 0
    endloop
  endfacet
  facet normal 0.45399 -0.891007 0
    outer loop
      vertex -1.77989 2.4498 0
      vertex -0.935741 2.87992 6.35
      vertex -1.77989 2.4498 6.35
    endloop
  endfacet
  facet normal 0.45399 -0.891007 0
    outer loop
      vertex -0.935741 2.87992 6.35
      vertex -1.77989 2.4498 0
      vertex -0.935741 2.87992 0
    endloop
  endfacet
  facet normal -0.707107 0.707107 0
    outer loop
      vertex 1.77989 -2.4498 0
      vertex 2.4498 -1.77989 6.35
      vertex 2.4498 -1.77989 0
    endloop
  endfacet
  facet normal -0.707107 0.707107 0
    outer loop
      vertex 2.4498 -1.77989 6.35
      vertex 1.77989 -2.4498 0
      vertex 1.77989 -2.4498 6.35
    endloop
  endfacet
  facet normal 0.987688 0.156435 0
    outer loop
      vertex -2.87992 -0.935741 6.35
      vertex -3.02812 0 0
      vertex -3.02812 0 6.35
    endloop
  endfacet
  facet normal 0.987688 0.156435 0
    outer loop
      vertex -3.02812 0 0
      vertex -2.87992 -0.935741 6.35
      vertex -2.87992 -0.935741 0
    endloop
  endfacet
  facet normal 0.707107 0.707107 0
    outer loop
      vertex -1.77989 -2.4498 6.35
      vertex -2.4498 -1.77989 0
      vertex -2.4498 -1.77989 6.35
    endloop
  endfacet
  facet normal 0.707107 0.707107 0
    outer loop
      vertex -2.4498 -1.77989 0
      vertex -1.77989 -2.4498 6.35
      vertex -1.77989 -2.4498 0
    endloop
  endfacet
  facet normal 0.891007 0.45399 0
    outer loop
      vertex -2.4498 -1.77989 6.35
      vertex -2.87992 -0.935741 0
      vertex -2.87992 -0.935741 6.35
    endloop
  endfacet
  facet normal 0.891007 0.45399 0
    outer loop
      vertex -2.87992 -0.935741 0
      vertex -2.4498 -1.77989 6.35
      vertex -2.4498 -1.77989 0
    endloop
  endfacet
  facet normal 0.987688 -0.156435 0
    outer loop
      vertex -3.02812 0 6.35
      vertex -2.87992 0.935741 0
      vertex -2.87992 0.935741 6.35
    endloop
  endfacet
  facet normal 0.987688 -0.156435 0
    outer loop
      vertex -2.87992 0.935741 0
      vertex -3.02812 0 6.35
      vertex -3.02812 0 0
    endloop
  endfacet
  facet normal -0.891007 0.45399 0
    outer loop
      vertex 2.4498 -1.77989 0
      vertex 2.87992 -0.935741 6.35
      vertex 2.87992 -0.935741 0
    endloop
  endfacet
  facet normal -0.891007 0.45399 0
    outer loop
      vertex 2.87992 -0.935741 6.35
      vertex 2.4498 -1.77989 0
      vertex 2.4498 -1.77989 6.35
    endloop
  endfacet
  facet normal -0.156435 0.987688 0
    outer loop
      vertex 0.935741 -2.87992 0
      vertex 0 -3.02812 6.35
      vertex 0.935741 -2.87992 6.35
    endloop
  endfacet
  facet normal -0.156435 0.987688 0
    outer loop
      vertex 0 -3.02812 6.35
      vertex 0.935741 -2.87992 0
      vertex 0 -3.02812 0
    endloop
  endfacet
  facet normal -0.45399 0.891007 0
    outer loop
      vertex 1.77989 -2.4498 0
      vertex 0.935741 -2.87992 6.35
      vertex 1.77989 -2.4498 6.35
    endloop
  endfacet
  facet normal -0.45399 0.891007 0
    outer loop
      vertex 0.935741 -2.87992 6.35
      vertex 1.77989 -2.4498 0
      vertex 0.935741 -2.87992 0
    endloop
  endfacet
  facet normal 0.156435 0.987688 -0
    outer loop
      vertex 0 -3.02812 0
      vertex -0.935741 -2.87992 6.35
      vertex 0 -3.02812 6.35
    endloop
  endfacet
  facet normal 0.156435 0.987688 0
    outer loop
      vertex -0.935741 -2.87992 6.35
      vertex 0 -3.02812 0
      vertex -0.935741 -2.87992 0
    endloop
  endfacet
  facet normal -0.987688 0.156435 0
    outer loop
      vertex 2.87992 -0.935741 0
      vertex 3.02812 0 6.35
      vertex 3.02812 0 0
    endloop
  endfacet
  facet normal -0.987688 0.156435 0
    outer loop
      vertex 3.02812 0 6.35
      vertex 2.87992 -0.935741 0
      vertex 2.87992 -0.935741 6.35
    endloop
  endfacet
  facet normal -0.207912 0 0.978148
    outer loop
      vertex 5.5 11.377 2.1463
      vertex 5.91841 -11.1907 2.23524
      vertex 5.91841 11.1907 2.23524
    endloop
  endfacet
  facet normal -0.207912 0 0.978148
    outer loop
      vertex 5.91841 -11.1907 2.23524
      vertex 5.5 11.377 2.1463
      vertex 5.5 -11.377 2.1463
    endloop
  endfacet
  facet normal 0 0 -1
    outer loop
      vertex 5.28612 -11.4722 4.18122
      vertex 5.71388 11.2817 4.18122
      vertex 5.71388 -11.2817 4.18122
    endloop
  endfacet
  facet normal -0 0 -1
    outer loop
      vertex 5.71388 11.2817 4.18122
      vertex 5.28612 -11.4722 4.18122
      vertex 5.28612 11.4722 4.18122
    endloop
  endfacet
  facet normal -0.994522 0 0.104529
    outer loop
      vertex 6.47835 10.9053 2.85711
      vertex 6.52306 -10.8728 3.28253
      vertex 6.52306 10.8728 3.28253
    endloop
  endfacet
  facet normal -0.994522 0 0.104529
    outer loop
      vertex 6.52306 -10.8728 3.28253
      vertex 6.47835 10.9053 2.85711
      vertex 6.47835 -10.9053 2.85711
    endloop
  endfacet
  facet normal -0.587785 0 0.809017
    outer loop
      vertex 5.91841 11.1907 2.23524
      vertex 6.26447 -11.0366 2.48666
      vertex 6.26447 11.0366 2.48666
    endloop
  endfacet
  facet normal -0.587785 0 0.809017
    outer loop
      vertex 6.26447 -11.0366 2.48666
      vertex 5.91841 11.1907 2.23524
      vertex 5.91841 -11.1907 2.23524
    endloop
  endfacet
  facet normal -0.866026 -9.83549e-07 0.499999
    outer loop
      vertex 6.26447 11.0366 2.48666
      vertex 6.47835 10.9053 2.85711
      vertex 6.35 10.9985 2.6348
    endloop
  endfacet
  facet normal -0.866026 0 0.5
    outer loop
      vertex 6.26447 11.0366 2.48666
      vertex 6.47835 -10.9053 2.85711
      vertex 6.47835 10.9053 2.85711
    endloop
  endfacet
  facet normal -0.866026 0 0.5
    outer loop
      vertex 6.26447 -11.0366 2.48666
      vertex 6.47835 -10.9053 2.85711
      vertex 6.26447 11.0366 2.48666
    endloop
  endfacet
  facet normal -0.866026 9.83549e-07 0.499999
    outer loop
      vertex 6.47835 -10.9053 2.85711
      vertex 6.26447 -11.0366 2.48666
      vertex 6.35 -10.9985 2.6348
    endloop
  endfacet
  facet normal -0.951056 0 -0.309019
    outer loop
      vertex 6.52306 -10.8728 3.28253
      vertex 6.39088 10.9688 3.68935
      vertex 6.52306 10.8728 3.28253
    endloop
  endfacet
  facet normal -0.951056 -0 -0.309019
    outer loop
      vertex 6.39088 10.9688 3.68935
      vertex 6.52306 -10.8728 3.28253
      vertex 6.39088 -10.9688 3.68935
    endloop
  endfacet
  facet normal -0.406737 0 -0.913545
    outer loop
      vertex 5.71388 -11.2817 4.18122
      vertex 6.10465 11.1078 4.00724
      vertex 6.10465 -11.1078 4.00724
    endloop
  endfacet
  facet normal -0.406737 0 -0.913545
    outer loop
      vertex 6.10465 11.1078 4.00724
      vertex 5.71388 -11.2817 4.18122
      vertex 5.71388 11.2817 4.18122
    endloop
  endfacet
  facet normal -0.743144 6.11518e-06 -0.669131
    outer loop
      vertex 6.39088 10.9688 3.68935
      vertex 6.10465 11.1078 4.00724
      vertex 6.35 10.9985 3.73475
    endloop
  endfacet
  facet normal -0.743146 0 -0.66913
    outer loop
      vertex 6.39088 -10.9688 3.68935
      vertex 6.10465 11.1078 4.00724
      vertex 6.39088 10.9688 3.68935
    endloop
  endfacet
  facet normal -0.743144 -6.11518e-06 -0.669131
    outer loop
      vertex 6.10465 -11.1078 4.00724
      vertex 6.39088 -10.9688 3.68935
      vertex 6.35 -10.9985 3.73475
    endloop
  endfacet
  facet normal -0.743146 0 -0.66913
    outer loop
      vertex 6.39088 -10.9688 3.68935
      vertex 6.10465 -11.1078 4.00724
      vertex 6.10465 11.1078 4.00724
    endloop
  endfacet
  facet normal 0.406737 0 -0.913545
    outer loop
      vertex 4.89534 -11.6462 4.00724
      vertex 5.28612 11.4722 4.18122
      vertex 5.28612 -11.4722 4.18122
    endloop
  endfacet
  facet normal 0.406737 0 -0.913545
    outer loop
      vertex 5.28612 11.4722 4.18122
      vertex 4.89534 -11.6462 4.00724
      vertex 4.89534 11.6462 4.00724
    endloop
  endfacet
  facet normal 0.994522 0 0.104529
    outer loop
      vertex 4.47693 11.8325 3.28253
      vertex 4.52165 -11.8126 2.85711
      vertex 4.52165 11.8126 2.85711
    endloop
  endfacet
  facet normal 0.994522 0 0.104529
    outer loop
      vertex 4.52165 -11.8126 2.85711
      vertex 4.47693 11.8325 3.28253
      vertex 4.47693 -11.8325 3.28253
    endloop
  endfacet
  facet normal 0.743146 0 -0.66913
    outer loop
      vertex 4.89534 -11.6462 4.00724
      vertex 4.60912 11.7736 3.68935
      vertex 4.89534 11.6462 4.00724
    endloop
  endfacet
  facet normal 0.743146 0 -0.66913
    outer loop
      vertex 4.60912 11.7736 3.68935
      vertex 4.89534 -11.6462 4.00724
      vertex 4.60912 -11.7736 3.68935
    endloop
  endfacet
  facet normal 0.951056 0 -0.309019
    outer loop
      vertex 4.60912 -11.7736 3.68935
      vertex 4.47693 11.8325 3.28253
      vertex 4.60912 11.7736 3.68935
    endloop
  endfacet
  facet normal 0.951056 0 -0.309019
    outer loop
      vertex 4.47693 11.8325 3.28253
      vertex 4.60912 -11.7736 3.68935
      vertex 4.47693 -11.8325 3.28253
    endloop
  endfacet
  facet normal 0.866026 0 0.5
    outer loop
      vertex 4.52165 11.8126 2.85711
      vertex 4.73553 -11.7173 2.48666
      vertex 4.73553 11.7173 2.48666
    endloop
  endfacet
  facet normal 0.866026 0 0.5
    outer loop
      vertex 4.73553 -11.7173 2.48666
      vertex 4.52165 11.8126 2.85711
      vertex 4.52165 -11.8126 2.85711
    endloop
  endfacet
  facet normal 0.587785 0 0.809017
    outer loop
      vertex 4.73553 11.7173 2.48666
      vertex 5.08159 -11.5633 2.23524
      vertex 5.08159 11.5633 2.23524
    endloop
  endfacet
  facet normal 0.587785 0 0.809017
    outer loop
      vertex 5.08159 -11.5633 2.23524
      vertex 4.73553 11.7173 2.48666
      vertex 4.73553 -11.7173 2.48666
    endloop
  endfacet
  facet normal 0.207912 0 0.978148
    outer loop
      vertex 5.08159 11.5633 2.23524
      vertex 5.5 -11.377 2.1463
      vertex 5.5 11.377 2.1463
    endloop
  endfacet
  facet normal 0.207912 0 0.978148
    outer loop
      vertex 5.5 -11.377 2.1463
      vertex 5.08159 11.5633 2.23524
      vertex 5.08159 -11.5633 2.23524
    endloop
  endfacet
  facet normal -0.207912 0 0.978148
    outer loop
      vertex -5.5 11.377 2.1463
      vertex -5.08159 -11.5633 2.23524
      vertex -5.08159 11.5633 2.23524
    endloop
  endfacet
  facet normal -0.207912 0 0.978148
    outer loop
      vertex -5.08159 -11.5633 2.23524
      vertex -5.5 11.377 2.1463
      vertex -5.5 -11.377 2.1463
    endloop
  endfacet
  facet normal 0 0 -1
    outer loop
      vertex -5.71388 -11.2817 4.18122
      vertex -5.28612 11.4722 4.18122
      vertex -5.28612 -11.4722 4.18122
    endloop
  endfacet
  facet normal 0 0 -1
    outer loop
      vertex -5.28612 11.4722 4.18122
      vertex -5.71388 -11.2817 4.18122
      vertex -5.71388 11.2817 4.18122
    endloop
  endfacet
  facet normal 0.994522 -0 0.104529
    outer loop
      vertex -6.52306 -10.8728 3.28253
      vertex -6.47835 10.9053 2.85711
      vertex -6.52306 10.8728 3.28253
    endloop
  endfacet
  facet normal 0.994522 0 0.104529
    outer loop
      vertex -6.47835 10.9053 2.85711
      vertex -6.52306 -10.8728 3.28253
      vertex -6.47835 -10.9053 2.85711
    endloop
  endfacet
  facet normal -0.994522 0 0.104529
    outer loop
      vertex -4.52165 -11.8126 2.85711
      vertex -4.47693 11.8325 3.28253
      vertex -4.52165 11.8126 2.85711
    endloop
  endfacet
  facet normal -0.994522 0 0.104529
    outer loop
      vertex -4.47693 11.8325 3.28253
      vertex -4.52165 -11.8126 2.85711
      vertex -4.47693 -11.8325 3.28253
    endloop
  endfacet
  facet normal -0.587785 0 0.809017
    outer loop
      vertex -5.08159 11.5633 2.23524
      vertex -4.73553 -11.7173 2.48666
      vertex -4.73553 11.7173 2.48666
    endloop
  endfacet
  facet normal -0.587785 0 0.809017
    outer loop
      vertex -4.73553 -11.7173 2.48666
      vertex -5.08159 11.5633 2.23524
      vertex -5.08159 -11.5633 2.23524
    endloop
  endfacet
  facet normal -0.866026 0 0.5
    outer loop
      vertex -4.73553 -11.7173 2.48666
      vertex -4.52165 11.8126 2.85711
      vertex -4.73553 11.7173 2.48666
    endloop
  endfacet
  facet normal -0.866026 0 0.5
    outer loop
      vertex -4.52165 11.8126 2.85711
      vertex -4.73553 -11.7173 2.48666
      vertex -4.52165 -11.8126 2.85711
    endloop
  endfacet
  facet normal -0.743146 0 -0.66913
    outer loop
      vertex -4.60912 11.7736 3.68935
      vertex -4.89534 -11.6462 4.00724
      vertex -4.89534 11.6462 4.00724
    endloop
  endfacet
  facet normal -0.743146 0 -0.66913
    outer loop
      vertex -4.89534 -11.6462 4.00724
      vertex -4.60912 11.7736 3.68935
      vertex -4.60912 -11.7736 3.68935
    endloop
  endfacet
  facet normal -0.406737 0 -0.913545
    outer loop
      vertex -5.28612 -11.4722 4.18122
      vertex -4.89534 11.6462 4.00724
      vertex -4.89534 -11.6462 4.00724
    endloop
  endfacet
  facet normal -0.406737 0 -0.913545
    outer loop
      vertex -4.89534 11.6462 4.00724
      vertex -5.28612 -11.4722 4.18122
      vertex -5.28612 11.4722 4.18122
    endloop
  endfacet
  facet normal -0.951056 0 -0.309019
    outer loop
      vertex -4.47693 11.8325 3.28253
      vertex -4.60912 -11.7736 3.68935
      vertex -4.60912 11.7736 3.68935
    endloop
  endfacet
  facet normal -0.951056 0 -0.309019
    outer loop
      vertex -4.60912 -11.7736 3.68935
      vertex -4.47693 11.8325 3.28253
      vertex -4.47693 -11.8325 3.28253
    endloop
  endfacet
  facet normal 0.207912 0 0.978148
    outer loop
      vertex -5.91841 11.1907 2.23524
      vertex -5.5 -11.377 2.1463
      vertex -5.5 11.377 2.1463
    endloop
  endfacet
  facet normal 0.207912 0 0.978148
    outer loop
      vertex -5.5 -11.377 2.1463
      vertex -5.91841 11.1907 2.23524
      vertex -5.91841 -11.1907 2.23524
    endloop
  endfacet
  facet normal 0.406737 0 -0.913545
    outer loop
      vertex -6.10465 -11.1078 4.00724
      vertex -5.71388 11.2817 4.18122
      vertex -5.71388 -11.2817 4.18122
    endloop
  endfacet
  facet normal 0.406737 0 -0.913545
    outer loop
      vertex -5.71388 11.2817 4.18122
      vertex -6.10465 -11.1078 4.00724
      vertex -6.10465 11.1078 4.00724
    endloop
  endfacet
  facet normal 0.866026 -9.83549e-07 0.499999
    outer loop
      vertex -6.47835 10.9053 2.85711
      vertex -6.26447 11.0366 2.48666
      vertex -6.35 10.9985 2.6348
    endloop
  endfacet
  facet normal 0.866026 -0 0.5
    outer loop
      vertex -6.47835 -10.9053 2.85711
      vertex -6.26447 11.0366 2.48666
      vertex -6.47835 10.9053 2.85711
    endloop
  endfacet
  facet normal 0.866026 9.83549e-07 0.499999
    outer loop
      vertex -6.26447 -11.0366 2.48666
      vertex -6.47835 -10.9053 2.85711
      vertex -6.35 -10.9985 2.6348
    endloop
  endfacet
  facet normal 0.866026 0 0.5
    outer loop
      vertex -6.47835 -10.9053 2.85711
      vertex -6.26447 -11.0366 2.48666
      vertex -6.26447 11.0366 2.48666
    endloop
  endfacet
  facet normal 0.951056 0 -0.309019
    outer loop
      vertex -6.39088 10.9688 3.68935
      vertex -6.52306 -10.8728 3.28253
      vertex -6.52306 10.8728 3.28253
    endloop
  endfacet
  facet normal 0.951056 0 -0.309019
    outer loop
      vertex -6.52306 -10.8728 3.28253
      vertex -6.39088 10.9688 3.68935
      vertex -6.39088 -10.9688 3.68935
    endloop
  endfacet
  facet normal 0.743144 6.11518e-06 -0.669131
    outer loop
      vertex -6.10465 11.1078 4.00724
      vertex -6.39088 10.9688 3.68935
      vertex -6.35 10.9985 3.73475
    endloop
  endfacet
  facet normal 0.743146 0 -0.66913
    outer loop
      vertex -6.10465 11.1078 4.00724
      vertex -6.39088 -10.9688 3.68935
      vertex -6.39088 10.9688 3.68935
    endloop
  endfacet
  facet normal 0.743146 0 -0.66913
    outer loop
      vertex -6.10465 -11.1078 4.00724
      vertex -6.39088 -10.9688 3.68935
      vertex -6.10465 11.1078 4.00724
    endloop
  endfacet
  facet normal 0.743144 -6.11518e-06 -0.669131
    outer loop
      vertex -6.39088 -10.9688 3.68935
      vertex -6.10465 -11.1078 4.00724
      vertex -6.35 -10.9985 3.73475
    endloop
  endfacet
  facet normal 0.587785 0 0.809017
    outer loop
      vertex -6.26447 11.0366 2.48666
      vertex -5.91841 -11.1907 2.23524
      vertex -5.91841 11.1907 2.23524
    endloop
  endfacet
  facet normal 0.587785 0 0.809017
    outer loop
      vertex -5.91841 -11.1907 2.23524
      vertex -6.26447 11.0366 2.48666
      vertex -6.26447 -11.0366 2.48666
    endloop
  endfacet
endsolid OpenSCAD_Model
