<?xml version="1.0" encoding="UTF-8" standalone="no"?>
<svg
   xmlns:dc="http://purl.org/dc/elements/1.1/"
   xmlns:cc="http://creativecommons.org/ns#"
   xmlns:rdf="http://www.w3.org/1999/02/22-rdf-syntax-ns#"
   xmlns:svg="http://www.w3.org/2000/svg"
   xmlns="http://www.w3.org/2000/svg"
   xmlns:sodipodi="http://sodipodi.sourceforge.net/DTD/sodipodi-0.dtd"
   xmlns:inkscape="http://www.inkscape.org/namespaces/inkscape"
   width="154mm"
   height="102mm"
   viewBox="-77 -51 154 102"
   version="1.1"
   id="svg6"
   sodipodi:docname="JoyPanelAcrylic.svg"
   inkscape:version="0.92.1 r15371">
  <metadata
     id="metadata12">
    <rdf:RDF>
      <cc:Work
         rdf:about="">
        <dc:format>image/svg+xml</dc:format>
        <dc:type
           rdf:resource="http://purl.org/dc/dcmitype/StillImage" />
        <dc:title>OpenSCAD Model</dc:title>
      </cc:Work>
    </rdf:RDF>
  </metadata>
  <defs
     id="defs10" />
  <sodipodi:namedview
     pagecolor="#ffffff"
     bordercolor="#666666"
     borderopacity="1"
     objecttolerance="10"
     gridtolerance="10"
     guidetolerance="10"
     inkscape:pageopacity="0"
     inkscape:pageshadow="2"
     inkscape:window-width="1292"
     inkscape:window-height="926"
     id="namedview8"
     showgrid="false"
     inkscape:zoom="1.4238177"
     inkscape:cx="165.3001"
     inkscape:cy="146.70857"
     inkscape:window-x="546"
     inkscape:window-y="84"
     inkscape:window-maximized="0"
     inkscape:current-layer="svg6" />
  <title
     id="title2">OpenSCAD Model</title>
  <path
     d=" M 76.2,-50.8 L -76.2,-50.8 L -76.2,50.8 L 76.2,50.8 z M -71.85,-44.45 L -69.85,-46.45 L -67.85,-44.45 L -69.85,-42.45 z M 67.85,-44.45 L 69.85,-46.45 L 71.85,-44.45 L 69.85,-42.45 z M 50.3366,-8.42668 L 47.4738,-9.0352 L 44.8,-10.2256 L 42.4322,-11.946 L 40.4738,-14.121 L 39.0103,-16.6557  L 38.1059,-19.4392 L 37.8,-22.35 L 38.1059,-25.2608 L 39.0103,-28.0443 L 40.4738,-30.579 L 42.4322,-32.754  L 44.8,-34.4743 L 47.4738,-35.6648 L 50.3366,-36.2733 L 53.2634,-36.2733 L 56.1262,-35.6648 L 58.8,-34.4743  L 61.1678,-32.754 L 63.1262,-30.579 L 64.5896,-28.0443 L 65.494,-25.2608 L 65.8,-22.35 L 65.494,-19.4392  L 64.5896,-16.6557 L 63.1262,-14.121 L 61.1678,-11.946 L 58.8,-10.2256 L 56.1262,-9.0352 L 53.2634,-8.42668  z M -62.09,-21.775 L -60.09,-23.775 L -58.09,-21.775 L -60.09,-19.775 z M 19.99,-21.775 L 21.99,-23.775 L 23.99,-21.775 L 21.99,-19.775 z M -20.7224,15.9123 L -23.9942,15.2169 L -27.05,13.8564 L -29.7561,11.8903 L -31.9942,9.40456 L -33.6667,6.50778  L -34.7003,3.32658 L -35.05,-0 L -34.7003,-3.32658 L -33.6667,-6.50778 L -31.9942,-9.40456 L -29.7561,-11.8903  L -27.05,-13.8564 L -23.9942,-15.2169 L -20.7224,-15.9123 L -17.3775,-15.9123 L -14.1057,-15.2169 L -11.05,-13.8564  L -8.3439,-11.8903 L -6.10573,-9.40456 L -4.43327,-6.50778 L -3.39963,-3.32658 L -3.04999,-0 L -3.39963,3.32658  L -4.43327,6.50778 L -6.10573,9.40456 L -8.3439,11.8903 L -11.05,13.8564 L -14.1057,15.2169 L -17.3775,15.9123  z M 50.3366,36.2733 L 47.4738,35.6648 L 44.8,34.4743 L 42.4322,32.754 L 40.4738,30.579 L 39.0103,28.0443  L 38.1059,25.2608 L 37.8,22.35 L 38.1059,19.4392 L 39.0103,16.6557 L 40.4738,14.121 L 42.4322,11.946  L 44.8,10.2256 L 47.4738,9.0352 L 50.3366,8.42668 L 53.2634,8.42668 L 56.1262,9.0352 L 58.8,10.2256  L 61.1678,11.946 L 63.1262,14.121 L 64.5896,16.6557 L 65.494,19.4392 L 65.8,22.35 L 65.494,25.2608  L 64.5896,28.0443 L 63.1262,30.579 L 61.1678,32.754 L 58.8,34.4743 L 56.1262,35.6648 L 53.2634,36.2733  z M -62.09,21.775 L -60.09,19.775 L -58.09,21.775 L -60.09,23.775 z M 19.99,21.775 L 21.99,19.775 L 23.99,21.775 L 21.99,23.775 z M -71.85,44.45 L -69.85,42.45 L -67.85,44.45 L -69.85,46.45 z M 67.85,44.45 L 69.85,42.45 L 71.85,44.45 L 69.85,46.45 z "
     stroke="black"
     fill="lightgray"
     stroke-width="0.5"
     id="path4"
     style="fill:none;stroke:#000000;stroke-opacity:1;stroke-width:0.0254;stroke-miterlimit:4;stroke-dasharray:none" />
  <path
     style="fill:#000000;stroke:#000000;stroke-width:0;stroke-miterlimit:4;stroke-dasharray:none;stroke-opacity:1"
     d="m -38.493273,17.212887 c 0.474706,0.739386 0.478961,1.423205 0.01336,2.148397 -0.341798,0.532381 -0.468089,0.567921 -2.092523,0.588807 -1.728706,0.02224 -1.728773,0.02218 -1.728773,-0.536512 0,-0.614218 0.264378,-0.752241 0.429719,-0.224341 0.119389,0.381195 0.48007,0.455056 0.48007,0.09831 0,-0.129851 -0.08188,-0.174094 -0.181955,-0.09831 -0.109656,0.08303 -0.18196,-0.214431 -0.18196,-0.748536 0,-0.507356 0.09725,-0.928874 0.227448,-0.985849 0.125095,-0.05473 0.158987,-0.188497 0.07531,-0.297248 -0.08625,-0.112101 -0.293159,0.01536 -0.477795,0.294403 -0.386145,0.583517 -0.533233,0.486147 -0.41456,-0.274428 0.07846,-0.502887 0.170174,-0.552096 1.028833,-0.552096 h 0.942696 l -0.04142,1.504814 c -0.0228,0.827643 -5.29e-4,1.279091 0.04952,1.003209 0.05003,-0.275887 0.133522,-0.501605 0.185575,-0.501605 0.05205,0 0.251014,0.225718 0.442118,0.501605 0.341674,0.49322 0.352036,0.494369 0.620535,0.06886 0.525093,-0.832174 0.151693,-2.316601 -0.505065,-2.007828 -0.172495,0.0811 -0.313625,0.237042 -0.313625,0.346539 0,0.109497 -0.08188,0.199081 -0.18196,0.199081 -0.270366,0 -0.220458,-0.366849 0.103978,-0.764348 0.432664,-0.530104 1.094111,-0.426964 1.520441,0.23708 z m -4.080861,1.08461 c 0,1.566681 -0.02486,1.672013 -0.394568,1.672013 -0.259215,0 -0.540096,-0.286775 -0.818814,-0.836003 -0.40688,-0.80179 -0.426841,-0.813494 -0.487575,-0.285961 -0.03482,0.30253 0.02656,0.586778 0.136468,0.631653 0.109888,0.04487 0.199795,0.173556 0.199795,0.285954 0,0.113763 -1.088994,0.204357 -2.456442,0.204357 h -2.456442 v -0.557335 c 0,-0.613073 0.264543,-0.750319 0.42972,-0.222937 0.119394,0.381195 0.480074,0.455056 0.480074,0.09831 0,-0.129851 -0.08188,-0.174094 -0.181954,-0.09831 -0.110059,0.08333 -0.18196,-0.22501 -0.18196,-0.780273 0,-0.555269 0.0719,-0.863613 0.18196,-0.780272 0.100073,0.07578 0.181954,-0.01864 0.181954,-0.20978 0,-0.482071 -0.293611,-0.434447 -0.597365,0.09689 -0.312893,0.547313 -0.4709,0.397258 -0.356142,-0.338223 0.07896,-0.506066 0.167812,-0.552096 1.065702,-0.552096 0.538757,0 0.97956,0.10032 0.97956,0.22293 0,0.122616 -0.08188,0.222938 -0.181961,0.222938 -0.100078,0 -0.18196,0.551767 -0.18196,1.226145 0,0.674378 0.08188,1.226147 0.18196,1.226147 0.100078,0 0.184565,-0.175567 0.187747,-0.390137 0.0052,-0.348788 0.03595,-0.34288 0.290601,0.05574 0.264764,0.414479 0.279758,0.339922 0.213035,-1.058946 l -0.07178,-1.504808 h 0.599991 c 0.329996,0 0.599991,0.100321 0.599991,0.22293 0,0.122616 -0.08188,0.222937 -0.181959,0.222937 -0.100079,0 -0.181961,0.551768 -0.181961,1.226146 0,0.674378 0.08188,1.226147 0.181961,1.226147 0.100077,0 0.181959,-0.150485 0.181959,-0.334406 0,-0.463125 0.318788,-0.420874 0.420445,0.05574 0.04575,0.214576 0.09271,-0.287029 0.104324,-1.114678 0.01161,-0.827643 0.09138,-1.504808 0.17727,-1.504808 0.08589,0 0.454353,0.52189 0.818814,1.159761 l 0.662649,1.15976 v -0.93683 c 0,-0.515254 -0.08188,-0.936824 -0.181954,-0.936824 -0.100079,0 -0.18196,-0.10032 -0.18196,-0.222936 0,-0.12261 0.184229,-0.222931 0.409407,-0.222931 0.388177,0 0.409407,0.0867 0.409407,1.672014 z m -6.550512,0 v 1.672013 h -0.751045 c -0.989024,0 -1.309267,-0.441715 -1.014328,-1.399064 0.174,-0.564799 0.163432,-0.789 -0.05659,-1.200426 -0.14881,-0.278257 -0.270561,-0.559611 -0.270561,-0.625232 0,-0.06562 0.470821,-0.119304 1.046265,-0.119304 h 1.046262 z m -1.182734,0.668804 c 0,0.169449 0.08188,0.370091 0.18196,0.445874 0.103606,0.07845 0.181959,-0.11354 0.181959,-0.445874 0,-0.332332 -0.07835,-0.524323 -0.181959,-0.445867 -0.100079,0.07578 -0.18196,0.276418 -0.18196,0.445867 z m 55.4973957,1.449083 c 0,0.128474 -0.568656,0.222931 -1.342049,0.222931 -1.034103,0 -1.57688,0.127241 -2.365462,0.55453 -0.59270899,0.321153 -1.02341399,0.696445 -1.02341399,0.89174 0,0.185469 -0.132167,0.337218 -0.293706,0.337218 -0.463415,0 -1.69180401,1.805227 -1.70037601,2.49886 -0.0093,0.749105 0.54987001,2.169896 0.85683901,2.177296 0.335169,0.0081 0.28071,0.276285 -0.227446,1.120163 -0.50985501,0.84669 -0.57584701,1.069323 -0.20528801,0.692527 0.20036901,-0.203744 0.27254201,-0.113313 0.36587201,0.458412 0.138983,0.85141 -0.04516,2.860571 -0.29805601,3.252035 -0.128257,0.198533 -0.09697,0.278669 0.10878901,0.278669 0.522396,0 0.706662,-0.859971 0.63918,-2.983037 -0.03554,-1.118154 -2.65e-4,-2.05451 0.07835,-2.08078 0.07863,-0.02629 0.268713,-0.201836 0.422404,-0.390136 0.353047,-0.432559 0.614191,-0.43175 1.12134199,0.0032 1.252087,1.074498 1.373907,4.538165 0.305427,8.68419 -0.608912,2.362768 -0.67347599,2.482898 -1.12357499,2.090644 -1.078709,-0.940117 -2.37029301,-2.490451 -3.15834401,-3.791111 -0.908098,-1.498794 -1.076812,-2.074799 -0.667052,-2.277376 0.18196,-0.08996 0.18196,-0.115965 0,-0.130045 -0.16275,-0.01259 -0.227446,-0.54983 -0.227446,-1.888702 0,-2.068324 0.08351,-2.216388 1.139232,-2.019948 0.466913,0.08688 0.513758,0.06572 0.225457,-0.101857 -0.200155,-0.116341 -0.589092,-0.218576 -0.864304,-0.227196 l -0.500385,-0.01567 v -3.7899 -3.789901 h 4.36700601 c 2.79003399,0 4.36700899,0.0805 4.36700899,0.222936 z m -6.674811,9.405086 c 0.05809,0.177841 0.101203,0.125017 0.109935,-0.134692 0.0079,-0.235007 -0.03511,-0.366679 -0.09557,-0.292602 -0.06047,0.07408 -0.06693,0.266363 -0.01437,0.427294 z m 1.44729001,6.335081 c 0.06047,0.07408 0.217403,0.082 0.348755,0.0176 0.145153,-0.07117 0.102036,-0.123993 -0.109934,-0.134691 -0.191815,-0.0097 -0.299284,0.04301 -0.238821,0.117091 z m -0.727835,0.222935 c 0.06047,0.07408 0.217403,0.082 0.348756,0.0176 0.145153,-0.07117 0.102036,-0.123993 -0.109935,-0.13469 -0.191815,-0.0097 -0.299283,0.04301 -0.238821,0.11709 z M -4.6357523,22.64474 c 0,1.392353 -0.05669,1.783481 -0.258479,1.783481 -0.142164,0 -0.309907,-0.286863 -0.372759,-0.637478 -0.242067,-1.350311 -1.798981,-2.473765 -2.7890757,-2.01256 -0.588274,0.274034 -0.758298,0.573234 -0.761949,1.340861 -0.0035,0.73313 0.171897,0.90881 1.9720867,1.97541 1.649431,0.977274 2.08887,1.60437 2.08887,2.980912 0,2.274363 -1.868369,3.482081 -3.8318677,2.476926 -0.597977,-0.30612 -0.682186,-0.30612 -0.82201,0 -0.331528,0.725811 -0.501616,0.274503 -0.501616,-1.330961 0,-1.809044 0.205804,-2.121325 0.612362,-0.929171 0.352743,1.034346 1.112896,1.709444 1.9248197,1.709444 0.910919,0 1.330529,-0.413948 1.25407,-1.237136 -0.05417,-0.58315 -0.24697,-0.771678 -1.6987277,-1.661024 -2.32749,-1.425815 -2.907311,-2.669876 -2.152579,-4.618535 0.454123,-1.172507 1.212493,-1.659457 2.4255177,-1.557443 0.550423,0.04632 1.272804,0.225547 1.60529,0.398339 0.545748,0.283629 0.621811,0.276317 0.782368,-0.07519 0.358934,-0.785821 0.523679,-0.34724 0.523679,1.394122 z m -8.1881397,-1.281941 c 2.133042,1.397036 2.668741,5.444043 1.040903,7.863632 -1.012444,1.504865 -2.675451,2.047072 -4.077404,1.32938 -0.588804,-0.301424 -0.691917,-0.301424 -0.963766,0 -0.167428,0.185646 -0.359381,0.337534 -0.426559,0.337534 -0.06718,0 -0.122142,-0.752404 -0.122142,-1.672014 0,-1.824349 0.206036,-2.120655 0.623464,-0.896626 0.569246,1.669202 2.30032,2.142135 3.142853,0.858634 0.557099,-0.848674 0.851935,-2.54424 0.717148,-4.124236 -0.180885,-2.120314 -0.858313,-3.306111 -1.888744,-3.306111 -0.808643,0 -1.282295,0.306532 -2.010023,1.300811 l -0.598036,0.817077 0.05216,-0.757839 c 0.130742,-1.899613 2.737525,-2.911222 4.510146,-1.750242 z m -5.276802,-0.182649 c 0,0.175395 -0.184232,0.350955 -0.409406,0.390135 -0.408165,0.07102 -0.409408,0.08409 -0.409408,4.307013 0,4.222921 0.0013,4.235989 0.409408,4.307013 0.225174,0.03918 0.409406,0.214747 0.409406,0.390136 0,0.256329 -0.374878,0.318898 -1.910567,0.318898 -1.535687,0 -1.910564,-0.06256 -1.910564,-0.318898 0,-0.175389 0.184232,-0.350955 0.409405,-0.390136 0.406387,-0.07071 0.409771,-0.102893 0.458825,-4.362744 l 0.04942,-4.291505 h -0.458827 c -0.286541,0 -0.458824,-0.125567 -0.458824,-0.334405 0,-0.276014 0.333589,-0.334405 1.910564,-0.334405 1.535689,0 1.910567,0.06256 1.910568,0.318898 z m -4.367009,0 c 0,0.175395 -0.184232,0.350955 -0.409406,0.390135 -0.408164,0.07102 -0.409408,0.08409 -0.409408,4.307013 0,4.222921 0.0013,4.235989 0.409408,4.307013 0.225174,0.03918 0.409406,0.214747 0.409406,0.390136 0,0.263691 -0.519774,0.318898 -3.002317,0.318898 h -3.002316 V 29.3328 c 0,-1.60219 0.242103,-2.078751 0.454407,-0.894459 0.171627,0.957381 0.886555,1.563263 1.844613,1.563263 h 0.794275 v -1.783482 c 0,-1.405555 -0.05565,-1.783482 -0.262621,-1.783482 -0.350141,0 -0.829131,0.865787 -0.829131,1.498684 0,0.307516 -0.109979,0.507735 -0.278897,0.507735 -0.236777,0 -0.271127,-0.370489 -0.227448,-2.45319 0.05075,-2.420063 0.285788,-3.249722 0.521164,-1.839693 0.140128,0.839435 0.469095,1.394723 0.826274,1.394723 0.193246,0 0.250659,-0.434037 0.250659,-1.89495 v -1.894957 h -0.927989 c -0.812749,0 -1.004816,0.09413 -1.546649,0.757984 -0.340263,0.416888 -0.618657,0.968655 -0.618657,1.226146 0,0.277986 -0.116748,0.468163 -0.287397,0.468163 -0.216105,0 -0.262954,-0.152071 -0.188851,-0.613073 0.0542,-0.337193 0.151884,-1.089596 0.217075,-1.672014 l 0.118533,-1.058946 h 3.072636 c 2.543531,0 3.072637,0.05492 3.072637,0.318898 z m -7.096386,0.01548 c 0,0.208838 -0.172289,0.334406 -0.458825,0.334406 h -0.45883 l 0.04941,4.291505 c 0.04905,4.259851 0.05244,4.292029 0.458825,4.362744 0.225173,0.03918 0.409407,0.214747 0.409407,0.390136 0,0.248177 -0.292576,0.316673 -1.319201,0.308862 l -1.319201,-0.01005 -1.780228,-2.910558 -1.780228,-2.910558 0.05162,2.530457 0.05162,2.530457 0.511178,0.07182 c 0.292586,0.04108 0.480884,0.184097 0.440338,0.334399 -0.04327,0.160349 -0.578802,0.28809 -1.375478,0.328085 -1.05243,0.05283 -1.304646,0.0019 -1.304646,-0.26316 0,-0.180767 0.184235,-0.360725 0.409407,-0.399906 0.407716,-0.07094 0.409614,-0.09038 0.458593,-4.697149 0.03698,-3.479181 0.104648,-4.62574 0.272935,-4.625234 0.123067,4.5e-4 1.282935,1.703939 2.577482,3.785704 1.294551,2.081772 2.359009,3.761842 2.365462,3.733493 0.0064,-0.02837 -0.01284,-1.58143 -0.04286,-3.451299 l -0.05461,-3.399764 h -0.44578 c -0.274941,0 -0.44578,-0.128158 -0.44578,-0.334405 0,-0.267521 0.272939,-0.334406 1.364693,-0.334406 1.091749,0 1.364688,0.06688 1.364688,0.334406 z m -10.280668,-0.02502 c 0.801839,0.42878 1.860128,1.977773 2.102771,3.077777 0.11648,0.528058 0.168822,1.473994 0.116315,2.102076 -0.28407,3.397873 -2.551378,5.284012 -5.052286,4.20293 -0.704763,-0.304647 -0.802562,-0.304647 -0.941711,0 -0.331028,0.724719 -0.501114,0.272582 -0.501114,-1.33206 0,-0.919609 0.06671,-1.672013 0.148258,-1.672013 0.08154,0 0.285184,0.351809 0.452542,0.781795 0.311567,0.800501 1.247796,1.668172 1.801587,1.669657 1.51958,0.0038 2.464669,-2.732844 1.964004,-5.687643 -0.486585,-2.871695 -2.42466,-3.454688 -3.89347,-1.171206 l -0.468888,0.728958 -0.0021,-0.682827 c -0.0021,-0.769023 0.671747,-1.70119 1.510987,-2.089683 0.693549,-0.321052 2.096117,-0.284381 2.763021,0.07224 z m -5.003859,0.0095 c 0,0.175395 -0.184235,0.350956 -0.409407,0.390136 -0.408169,0.07102 -0.409407,0.08409 -0.409407,4.307013 0,4.222921 0.001,4.235989 0.409407,4.307013 0.225172,0.03918 0.409407,0.214741 0.409407,0.390136 0,0.263691 -0.519781,0.318898 -3.002322,0.318898 h -3.002315 v -1.560545 c 0,-1.60219 0.242104,-2.078751 0.454408,-0.894459 0.171624,0.957381 0.886553,1.563263 1.844615,1.563263 h 0.794272 v -1.783482 c 0,-1.405555 -0.05565,-1.783482 -0.262618,-1.783482 -0.350144,0 -0.829136,0.865787 -0.829136,1.498684 0,0.307516 -0.109976,0.507735 -0.278897,0.507735 -0.236778,0 -0.271124,-0.370489 -0.227447,-2.45319 0.05075,-2.420063 0.285788,-3.249722 0.521163,-1.839693 0.140129,0.839435 0.469099,1.394723 0.826277,1.394723 0.193245,0 0.250658,-0.434037 0.250658,-1.89495 v -1.894958 h -0.927991 c -0.812748,0 -1.004813,0.09413 -1.546648,0.757985 -0.340261,0.416886 -0.618656,0.968654 -0.618656,1.226145 0,0.257485 -0.08188,0.468163 -0.181961,0.468163 -0.203912,0 -0.236148,-1.24065 -0.06517,-2.508024 l 0.112787,-0.836009 h 3.069488 c 2.540799,0 3.069493,0.05492 3.069493,0.318897 z m 48.4582227,3.877253 c 0.134437,0.823573 2.504244,3.83042 3.354506,4.256255 0.664694,0.332895 0.8113,0.810416 0.187444,0.610533 -0.712867,-0.228397 -1.13003,0.06301 -1.461936,1.021302 l -0.31921,0.921613 -0.370223,-0.486881 c -0.203624,-0.267779 -0.420667,-0.48688 -0.482317,-0.48688 -0.06165,0 0.02574,0.186612 0.19422,0.414693 0.376999,0.510397 0.165322,1.366428 -0.579914,2.345162 -0.420812,0.552664 -0.434065,0.607291 -0.09526,0.392692 0.216453,-0.137102 0.43539,-0.375827 0.486534,-0.5305 0.07066,-0.213701 0.13933,-0.200932 0.286009,0.05318 0.306181,0.530437 0.237183,0.828008 -0.367808,1.586279 -0.513839,0.644027 -0.558432,0.811584 -0.480486,1.805472 0.04823,0.614964 0.251376,1.369748 0.46309,1.720594 0.280805,0.465342 0.324535,0.68952 0.171156,0.877439 -0.359648,0.440679 -1.726139,0.287721 -2.671074,-0.298947 l -0.888119,-0.551393 0.553566,-1.622227 c 0.304459,-0.892225 0.613342,-1.650926 0.686404,-1.686001 0.07306,-0.03507 0.287745,-0.216172 0.477072,-0.402436 0.327666,-0.322366 0.325107,-0.327343 -0.05322,-0.103428 -0.573487,0.339428 -0.596448,0.311471 -0.401871,-0.489306 0.09683,-0.398497 0.225989,-1.746658 0.287018,-2.995909 0.169434,-3.468179 -0.333171,-5.066312 -1.579679,-5.022884 -0.30053199,0.01049 -0.54642299,-0.0094 -0.54642299,-0.04424 0,-0.03482 0.08609,-0.365864 0.19131,-0.73567 0.166214,-0.584181 0.303453,-0.691074 1.04626299,-0.814916 0.470223,-0.07839 1.06843,-0.201034 1.329346,-0.272532 0.414872,-0.113686 0.488093,-0.04607 0.583597,0.538991 z m -0.495787,5.30686 c -0.127442,0.406896 0.181099,0.974955 0.529547,0.974955 0.348449,0 0.65699,-0.568059 0.529548,-0.974955 -0.06247,-0.19946 -0.300768,-0.362659 -0.529548,-0.362659 -0.228779,0 -0.467074,0.163199 -0.529547,0.362659 z m 11.1683673,4.151784 0.0058,7.747005 h -8.9159723 -8.915974 v -2.646429 -2.646429 l 1.094111,-0.15166 1.094112,-0.151661 0.99611701,1.07034 c 0.547865,0.588687 0.997151,1.130192 0.998413,1.203344 0.0013,0.07315 -0.288229,0.499515 -0.643318,0.947475 -0.488183,0.615867 -0.79334,0.814472 -1.25142901,0.814472 -0.82106,0 -1.151337,-0.495856 -0.826143,-1.240323 0.208915,-0.478267 0.201977,-0.606589 -0.04944,-0.914627 -0.324874,-0.398036 -0.817113,-0.268698 -0.982091,0.258049 -0.1568,0.500633 1.35323,2.342773 1.920407,2.342773 0.29376101,0 0.73146701,-0.363443 1.28484301,-1.066851 l 0.839298,-1.06685 0.85031499,0.536131 c 1.147718,0.723646 2.395501,0.889725 2.85519,0.380026 0.331201,-0.36723 0.383538,-0.354781 1.132785,0.269435 0.951648,0.792845 1.809639,1.171044 2.656657,1.171044 0.791713,0 2.0409943,-0.445571 2.0409943,-0.727946 0,-0.116325 0.132532,-0.149188 0.294518,-0.07303 0.439407,0.206589 1.434571,-1.209628 1.822757,-2.593967 0.685189,-2.443493 0.28375,-5.653321 -0.781399,-6.247927 -0.521436,-0.291087 -0.548588,-0.739078 -0.06405,-1.056793 0.199118,-0.130566 0.497449,-0.560458 0.662953,-0.955321 0.165505,-0.394863 0.473742,-0.918573 0.68497,-1.163799 0.211227,-0.245232 0.565356,-0.746836 0.786952,-1.114678 L 14.276466,26.769 Z m -55.309673,-1.012928 c 0.608078,0.272346 1.091754,1.046 1.091754,1.746304 0,0.783612 -0.543884,1.784575 -1.083728,1.994502 -0.277551,0.107929 -0.327031,0.280928 -0.248956,0.870411 0.26069,1.968199 -1.50082,3.241014 -2.715899,1.962431 -0.581989,-0.612403 -0.215156,-2.08615 0.612659,-2.461339 0.32392,-0.146811 0.312526,-0.206464 -0.176591,-0.924284 -0.517722,-0.759805 -0.524175,-0.762266 -0.656753,-0.250481 -0.078,0.301105 -0.05039,0.619168 0.06614,0.761944 0.373029,0.457035 0.202313,0.601777 -0.709755,0.601777 -0.861578,0 -1.216028,-0.315889 -0.652003,-0.581067 0.14179,-0.06666 0.465782,-0.506259 0.719979,-0.976883 l 0.462177,-0.855679 -0.423875,-0.340281 c -0.239749,-0.192465 -0.600997,-0.283536 -0.831606,-0.209649 -0.368804,0.118162 -0.387868,0.08517 -0.199722,-0.345547 0.314722,-0.720495 1.175068,-1.191623 1.71596,-0.939664 0.246098,0.114637 0.498189,0.309021 0.560207,0.431965 0.07053,0.139815 0.400856,0.0633 0.881978,-0.204287 0.787573,-0.438029 1.108976,-0.494734 1.588034,-0.280173 z m -1.155856,2.311057 c 0.483087,0.823848 0.704557,1.050826 0.815725,0.836008 0.235622,-0.455315 0.190052,-0.742434 -0.218953,-1.379492 -0.222243,-0.346161 -0.558397,-0.587404 -0.818509,-0.587404 -0.43807,0 -0.436404,0.0085 0.221737,1.130888 z m -0.936672,3.231877 c 0,0.439112 0.102375,0.671331 0.318434,0.722309 0.33308,0.07859 0.427737,-0.463819 0.205025,-1.174893 -0.177008,-0.565163 -0.523459,-0.265624 -0.523459,0.452584 z m 38.4842617,-5.269314 c 0,0.11447 -0.225174,0.239871 -0.500385,0.278669 l -0.500388,0.07054 v 3.678434 3.678434 l 0.500388,0.07054 c 0.286401,0.04037 0.500385,0.207212 0.500385,0.390137 0,0.252645 -0.32671,0.319595 -1.559594,0.319595 H -7.754936 l -1.065519,-2.730958 -1.065514,-2.730959 -1.058363,2.730959 -1.058362,2.730958 h -1.502352 c -1.214117,0 -1.502349,-0.06416 -1.502349,-0.334403 0,-0.208927 0.172336,-0.334403 0.459296,-0.334403 h 0.459295 l -0.04989,-3.734168 c -0.04918,-3.681612 -0.05565,-3.735171 -0.459295,-3.805407 -0.225174,-0.03918 -0.409406,-0.164583 -0.409406,-0.278669 0,-0.115379 0.88823,-0.207431 2.001544,-0.207431 1.118121,0 2.001546,0.09186 2.001546,0.208128 0,0.11447 -0.225173,0.239871 -0.500385,0.278669 l -0.500388,0.07054 -0.04773,3.121095 -0.04773,3.121096 1.32144,-3.396237 c 0.72679,-1.867931 1.425816,-3.397825 1.55339,-3.399765 0.127572,-0.002 0.304607,0.222195 0.393407,0.498077 0.0888,0.275883 0.658902,1.755616 1.2668907,3.288297 l 1.105432,2.786693 -0.04317,-3.009628 -0.04317,-3.009628 -0.500388,-0.07054 c -0.275211,-0.0388 -0.500385,-0.164199 -0.500385,-0.278669 0,-0.11447 0.65505,-0.208128 1.455669,-0.208128 0.800618,0 1.455668,0.09366 1.455668,0.208128 z m -10.7355607,-0.01119 c 0,0.108313 -0.1494,0.2448 -0.331997,0.303304 -0.228388,0.07317 -0.782047,1.36712 -1.774097,4.146212 -1.21969,3.41679 -1.502043,4.040473 -1.830758,4.043936 -0.330766,0.0035 -0.601795,-0.597477 -1.819587,-4.034619 -0.938012,-2.647484 -1.540619,-4.077155 -1.749357,-4.150306 -0.81213,-0.284612 -0.156231,-0.505462 1.501159,-0.505462 1.091753,0 1.819587,0.08917 1.819587,0.222936 0,0.122614 -0.15893,0.222935 -0.353179,0.222935 -0.52473,0 -0.579303,0.283795 -0.251299,1.306855 l 0.295762,0.922499 h 1.216986 1.216985 l 0.233807,-0.867981 c 0.261371,-0.970316 0.155591,-1.361373 -0.368255,-1.361373 -0.194249,0 -0.353179,-0.100321 -0.353179,-0.222935 0,-0.127392 0.545875,-0.222936 1.273712,-0.222936 0.70054,0 1.27371,0.08862 1.27371,0.196935 z m -4.18505,3.236426 c 0,0.04913 0.197334,0.611173 0.43852,1.248981 0.480283,1.27009 0.477785,1.271253 1.079069,-0.502304 l 0.28343,-0.836008 h -0.900512 c -0.495279,10e-7 -0.900507,0.0402 -0.900507,0.08933 z m -4.548968,-3.225932 c 0,0.114086 -0.184232,0.239488 -0.409406,0.27867 -0.402995,0.07012 -0.410189,0.127982 -0.459404,3.693939 l -0.05,3.6227 h 0.631044 c 0.674068,0 1.197557,-0.614514 1.197557,-1.405794 0,-0.232279 0.100095,-0.37439 0.227449,-0.32292 0.137086,0.0554 0.249129,0.5942 0.282017,1.35619 l 0.05457,1.264266 h -3.375317 -3.375315 v -1.35619 c 0,-0.985814 0.06212,-1.330851 0.227448,-1.263405 0.125094,0.05103 0.256372,0.285115 0.291724,0.520183 0.110601,0.735466 0.596287,1.20767 1.242145,1.20767 h 0.61316 l -0.04999,-3.6227 -0.05,-3.6227 -0.500386,-0.07054 c -0.275213,-0.0388 -0.500387,-0.164199 -0.500387,-0.278669 0,-0.116266 0.883426,-0.208128 2.001546,-0.208128 1.113314,0 2.001545,0.09205 2.001545,0.20743 z m -5.640718,0.01551 c 0,0.122614 -0.153736,0.222935 -0.341638,0.222935 -0.678081,0 -0.761876,0.477491 -0.709477,4.042843 l 0.05034,3.425493 0.500387,0.07054 c 0.286402,0.04037 0.500387,0.207212 0.500387,0.390137 0,0.258134 -0.384918,0.319595 -2.001543,0.319595 -1.657847,0 -2.001548,-0.05743 -2.001548,-0.334403 0,-0.204086 0.16969,-0.334403 0.435429,-0.334403 0.533758,0 0.656325,-0.357279 0.656325,-1.913185 v -1.207911 h -1.273713 -1.273709 v 1.560548 c 0,1.515961 0.013,1.560548 0.454895,1.560548 0.283049,0 0.454899,0.12633 0.454899,0.334403 0,0.27698 -0.343701,0.334403 -2.001548,0.334403 -1.61663,0 -2.001542,-0.06146 -2.001542,-0.319595 0,-0.182925 0.21398,-0.349762 0.500382,-0.390137 l 0.500387,-0.07054 V 37.80435 34.125916 l -0.500387,-0.07054 c -0.27521,-0.0388 -0.500382,-0.164199 -0.500382,-0.278669 0,-0.116266 0.883422,-0.208128 2.001542,-0.208128 1.113314,0 2.001548,0.09205 2.001548,0.20743 0,0.114087 -0.184234,0.239488 -0.409407,0.278669 -0.378888,0.06593 -0.413368,0.200045 -0.462554,1.798989 l -0.05314,1.727749 h 1.281362 1.281368 v -1.51596 c 0,-1.566847 -0.180407,-2.051006 -0.764228,-2.051006 -0.180139,0 -0.327526,-0.100321 -0.327526,-0.222935 0,-0.135113 0.788486,-0.222936 2.001548,-0.222936 1.213057,0 2.001543,0.08782 2.001543,0.222936 z m 26.5659657,0.175275 c 0,0.0964 0.325202,0.623089 0.722672,1.170411 0.397468,0.547323 0.724993,1.058677 0.727834,1.136344 0.0078,0.213204 -0.844155,0.36846 -1.359527,0.247754 -0.423822,-0.09926 -0.454895,-0.196135 -0.454895,-1.418165 0,-0.725792 0.08127,-1.311623 0.181959,-1.311623 0.100076,0 0.181957,0.07888 0.181957,0.175279 z m 14.9206113,9.581626 c 0.913011,0.369411 1.258551,2.04874 0.57704,2.804393 -0.465868,0.516549 -1.425252,0.480618 -1.66239,-0.06226 -0.216678,-0.496046 -0.246237,-1.793185 -0.0491,-2.154902 0.210016,-0.385363 0.83448,-0.708604 1.134457,-0.587232 z m -0.510985,1.704808 c -0.04875,0.921719 -0.01307,1.050375 0.272939,0.983957 0.341596,-0.07933 0.549495,-1.232718 0.341752,-1.895999 -0.205915,-0.657442 -0.559417,-0.132935 -0.614691,0.912042 z m -13.8637493,-1.70481 c 0.150114,0.06074 0.40449,0.250354 0.565275,0.42137 0.250968,0.266935 0.324935,0.262816 0.522666,-0.02909 0.490961,-0.724789 1.82339701,-0.145891 1.82339701,0.792203 0,0.18361 0.179125,0.316849 0.425966,0.316849 0.32117999,0 0.40481999,-0.09907 0.34000499,-0.402746 -0.04728,-0.22151 -0.19001799,-0.353825 -0.31719799,-0.294029 -0.336447,0.158181 -0.478094,-0.105995 -0.242956,-0.453123 0.59033299,-0.871493 1.50943999,0.274537 1.10100199,1.372833 -0.223136,0.600017 -1.01891299,0.786948 -1.18631199,0.27867 -0.05948,-0.180605 -0.09683,-0.153538 -0.10614,0.07691 -0.02395,0.592752 -0.641186,1.093494 -1.34789401,1.093494 -0.500292,0 -0.668017,-0.09264 -0.668017,-0.368956 0,-0.343315 -0.02313,-0.343315 -0.332756,0 -0.465868,0.516549 -1.425252,0.480618 -1.662387,-0.06226 -0.216681,-0.496046 -0.24624,-1.793182 -0.04911,-2.154902 0.210016,-0.385363 0.83448,-0.708604 1.134457,-0.587232 z m 1.22822,0.80846 c -0.416348,0.387229 -0.403577,0.93394 0.0353,1.51111 0.51559901,0.678061 0.91998001,0.386805 0.91998001,-0.662617 0,-1.202968 -0.293682,-1.463821 -0.95528401,-0.848493 z m -1.774097,0.820685 c 0,0.956699 0.04908,1.119635 0.318428,1.057119 0.212082,-0.04922 0.337902,-0.322358 0.376738,-0.817843 0.07326,-0.934628 -0.05917,-1.370298 -0.416518,-1.370298 -0.213608,0 -0.278648,0.26399 -0.278648,1.131022 z M 14.218806,43.924392 c 0.112328,0.358651 -0.04735,0.790948 -0.292169,0.790948 -0.08683,0 -0.195326,-0.175559 -0.241091,-0.390136 -0.04577,-0.214577 -0.09271,0.178348 -0.104323,0.873165 -0.01376,0.822952 0.05817,1.302494 0.206341,1.375746 0.125098,0.06185 -0.05914,0.120502 -0.409408,0.130347 l -0.636855,0.01791 0.06348,-1.282181 c 0.03491,-0.705202 0.147289,-1.407586 0.249727,-1.560854 0.255321,-0.382005 1.040054,-0.351636 1.164302,0.04506 z m -3.842967,1.236102 v 1.560166 l -1.6376283,-0.0033 c -1.637015,-0.0033 -1.637782,-0.0036 -2.047034,-0.72085 l -0.409408,-0.717547 v 0.591354 c 0,0.325245 0.102351,0.641956 0.227449,0.7038 0.125095,0.06185 0.02275,0.120592 -0.227449,0.130548 -0.448829,0.01786 -0.454092,-0.0027 -0.394476,-1.542947 0.03323,-0.858578 0.125894,-1.56105 0.205915,-1.56105 0.08002,0 0.407427,0.476526 0.72757,1.058945 l 0.582073,1.058942 -0.08329,-1.058942 -0.08329,-1.058945 1.569788,-1.66e-4 1.5697873,-1.67e-4 z M 9.0111487,44.505563 c 0,0.237993 0.122823,0.432713 0.272937,0.432713 0.269891,0 0.381518,-0.684398 0.15658,-0.959991 -0.189709,-0.232431 -0.429517,0.06196 -0.429517,0.527278 z m -1.239229,0.774322 c 0.08221,1.560853 0.511392,1.601578 0.511392,0.04853 0,-0.664162 -0.05595,-1.276119 -0.124335,-1.359905 -0.262692,-0.321847 -0.441219,0.283025 -0.387057,1.311378 z m 1.239229,0.68018 c 0,0.698391 0.427324,0.621953 0.513041,-0.09177 0.03861,-0.321519 -0.03779,-0.484142 -0.227449,-0.484142 -0.185783,0 -0.285592,0.201271 -0.285592,0.575915 z m -4.512574,-2.091878 c -0.294378,0.360669 -0.286983,2.55955 0.0091,2.705928 0.125097,0.06185 -0.02991,0.120364 -0.344456,0.130043 -0.494615,0.01521 -0.608029,-0.09336 -0.8392,-0.803479 L 3.0567227,45.0796 2.8355497,45.900679 c -0.192058,0.712986 -0.295971,0.821082 -0.789331,0.821082 -0.441899,0 -0.519634,-0.05945 -0.349806,-0.267523 0.120092,-0.147138 0.21835,-0.728999 0.21835,-1.293027 0,-0.564026 -0.09826,-1.145887 -0.21835,-1.293024 -0.169828,-0.208074 -0.07574,-0.267523 0.423384,-0.267523 0.613928,0 0.63936,0.03139 0.586988,0.72454 l -0.05474,0.724541 0.205229,-0.731687 c 0.249171,-0.888344 0.499446,-0.831112 0.821246,0.187807 l 0.242181,0.766815 -0.08173,-0.836007 c -0.07626,-0.780028 -0.0496,-0.836009 0.398113,-0.836009 0.373213,0 0.431326,0.05945 0.261498,0.267523 z m -8.497472,1.292307 c 0,1.451361 -0.02749,1.560203 -0.394229,1.560716 -0.216826,2.65e-4 -0.570196,-0.275333 -0.785268,-0.612523 l -0.391036,-0.613072 0.07769,0.613072 c 0.07559,0.596545 0.05425,0.613074 -0.791697,0.613074 -0.732316,0 -0.931034,-0.09666 -1.260419,-0.613074 l -0.3910357,-0.613072 0.07769,0.613072 0.07769,0.613074 H -9.11897 c -1.315686,0 -1.339459,-0.01011 -1.339459,-0.570498 0,-0.323559 0.07876,-0.510857 0.18196,-0.432713 0.108286,0.082 0.181959,-0.183464 0.181959,-0.655648 0,-0.82287 0.274743,-1.086403 0.420447,-0.403296 0.06262,0.293587 0.08844,0.266001 0.104322,-0.111466 0.02532,-0.601523 -0.426833,-0.676429 -0.68404,-0.113327 -0.230683,0.505034 -0.45506,0.227174 -0.29998,-0.371477 0.09905,-0.382363 0.269246,-0.462672 0.98052,-0.462672 h 0.860668 l -0.07531,1.449081 c -0.04466,0.859364 -0.0028,1.44908 0.102794,1.44908 0.200162,0 0.474297,-2.367737 0.311499,-2.690466 -0.05762,-0.114231 0.0024,-0.207515 0.133419,-0.207298 0.131003,2.22e-4 0.48383,0.476747 0.7840627,1.058944 l 0.545875,1.058545 0.0579,-0.739102 c 0.03185,-0.406509 -0.03959,-0.883031 -0.158747,-1.058945 -0.178046,-0.262842 -0.138192,-0.319839 0.223655,-0.319839 0.428339,0 0.438264,0.03939 0.365001,1.449081 -0.05058,0.973322 -0.0086,1.44908 0.127844,1.44908 0.128735,0 0.203157,-0.530852 0.203157,-1.44908 0,-1.109155 0.06115,-1.449081 0.260676,-1.449081 0.143372,0 0.309671,0.175562 0.369554,0.390136 0.137731,0.493522 1.047734,1.845159 0.938085,1.393346 -0.04463,-0.18392 -0.127132,-0.660445 -0.183329,-1.058942 -0.08995,-0.637817 -0.05372,-0.724561 0.30268,-0.724707 0.37995,-1.56e-4 0.404858,0.09582 0.404858,1.559997 z m -5.9864277,0.944779 c -0.123468,0.101029 -0.07815,0.165095 0.11826,0.167201 0.213935,0.0024 0.313714,-0.161192 0.304062,-0.498189 -0.0096,-0.335172 -0.04884,-0.390649 -0.118261,-0.167203 -0.05714,0.183922 -0.193971,0.408109 -0.304061,0.498191 z m -0.746041,-0.944779 v 1.560166 l -0.636857,-0.01704 c -0.350269,-0.0094 -0.534503,-0.06765 -0.409406,-0.129495 0.142669,-0.07053 0.227449,-0.562555 0.227449,-1.320015 0,-0.956296 -0.06034,-1.207566 -0.289975,-1.207566 -0.159483,0 -0.332796,0.200642 -0.385138,0.445871 -0.126992,0.594974 -0.372465,0.565877 -0.470186,-0.05573 -0.04337,-0.275884 -0.09001,0.06688 -0.103635,0.761695 -0.01622,0.826556 0.05385,1.302174 0.202671,1.375746 0.125095,0.06185 -0.05914,0.120547 -0.409408,0.13045 l -0.636855,0.01799 0.06165,-1.338019 c 0.04256,-0.923607 -0.005,-1.338019 -0.153506,-1.338019 -0.118335,0 -0.257977,0.200641 -0.310319,0.445871 -0.144672,0.677812 -0.41664,0.532288 -0.41664,-0.222936 v -0.668806 l 1.865075,-1.66e-4 1.865077,-1.67e-4 z"
     id="path4643"
     inkscape:connector-curvature="0" />
</svg>
