<?xml version="1.0" standalone="no"?>
<!DOCTYPE svg PUBLIC "-//W3C//DTD SVG 1.1//EN" "http://www.w3.org/Graphics/SVG/1.1/DTD/svg11.dtd">
<svg width="154mm" height="102mm" viewBox="-77 -51 154 102" xmlns="http://www.w3.org/2000/svg" version="1.1">
<title>OpenSCAD Model</title>
<path d="
M 76.2,-50.8 L -76.2,-50.8 L -76.2,50.8 L 76.2,50.8 z
M -71.85,-44.45 L -69.85,-46.45 L -67.85,-44.45 L -69.85,-42.45 z
M 67.85,-44.45 L 69.85,-46.45 L 71.85,-44.45 L 69.85,-42.45 z
M 50.3366,-8.42668 L 47.4738,-9.0352 L 44.8,-10.2256 L 42.4322,-11.946 L 40.4738,-14.121 L 39.0103,-16.6557
 L 38.1059,-19.4392 L 37.8,-22.35 L 38.1059,-25.2608 L 39.0103,-28.0443 L 40.4738,-30.579 L 42.4322,-32.754
 L 44.8,-34.4743 L 47.4738,-35.6648 L 50.3366,-36.2733 L 53.2634,-36.2733 L 56.1262,-35.6648 L 58.8,-34.4743
 L 61.1678,-32.754 L 63.1262,-30.579 L 64.5896,-28.0443 L 65.494,-25.2608 L 65.8,-22.35 L 65.494,-19.4392
 L 64.5896,-16.6557 L 63.1262,-14.121 L 61.1678,-11.946 L 58.8,-10.2256 L 56.1262,-9.0352 L 53.2634,-8.42668
 z
M -62.09,-21.775 L -60.09,-23.775 L -58.09,-21.775 L -60.09,-19.775 z
M 19.99,-21.775 L 21.99,-23.775 L 23.99,-21.775 L 21.99,-19.775 z
M -20.7224,15.9123 L -23.9942,15.2169 L -27.05,13.8564 L -29.7561,11.8903 L -31.9942,9.40456 L -33.6667,6.50778
 L -34.7003,3.32658 L -35.05,-0 L -34.7003,-3.32658 L -33.6667,-6.50778 L -31.9942,-9.40456 L -29.7561,-11.8903
 L -27.05,-13.8564 L -23.9942,-15.2169 L -20.7224,-15.9123 L -17.3775,-15.9123 L -14.1057,-15.2169 L -11.05,-13.8564
 L -8.3439,-11.8903 L -6.10573,-9.40456 L -4.43327,-6.50778 L -3.39963,-3.32658 L -3.04999,-0 L -3.39963,3.32658
 L -4.43327,6.50778 L -6.10573,9.40456 L -8.3439,11.8903 L -11.05,13.8564 L -14.1057,15.2169 L -17.3775,15.9123
 z
M 50.3366,36.2733 L 47.4738,35.6648 L 44.8,34.4743 L 42.4322,32.754 L 40.4738,30.579 L 39.0103,28.0443
 L 38.1059,25.2608 L 37.8,22.35 L 38.1059,19.4392 L 39.0103,16.6557 L 40.4738,14.121 L 42.4322,11.946
 L 44.8,10.2256 L 47.4738,9.0352 L 50.3366,8.42668 L 53.2634,8.42668 L 56.1262,9.0352 L 58.8,10.2256
 L 61.1678,11.946 L 63.1262,14.121 L 64.5896,16.6557 L 65.494,19.4392 L 65.8,22.35 L 65.494,25.2608
 L 64.5896,28.0443 L 63.1262,30.579 L 61.1678,32.754 L 58.8,34.4743 L 56.1262,35.6648 L 53.2634,36.2733
 z
M -62.09,21.775 L -60.09,19.775 L -58.09,21.775 L -60.09,23.775 z
M 19.99,21.775 L 21.99,19.775 L 23.99,21.775 L 21.99,23.775 z
M -71.85,44.45 L -69.85,42.45 L -67.85,44.45 L -69.85,46.45 z
M 67.85,44.45 L 69.85,42.45 L 71.85,44.45 L 69.85,46.45 z
" stroke="black" fill="lightgray" stroke-width="0.5"/></svg>
