<?xml version="1.0" encoding="UTF-8" standalone="no"?>
<svg
   xmlns:dc="http://purl.org/dc/elements/1.1/"
   xmlns:cc="http://creativecommons.org/ns#"
   xmlns:rdf="http://www.w3.org/1999/02/22-rdf-syntax-ns#"
   xmlns:svg="http://www.w3.org/2000/svg"
   xmlns="http://www.w3.org/2000/svg"
   xmlns:sodipodi="http://sodipodi.sourceforge.net/DTD/sodipodi-0.dtd"
   xmlns:inkscape="http://www.inkscape.org/namespaces/inkscape"
   width="5.8267717in"
   height="9.9212599in"
   viewBox="-90 -251 148 252"
   version="1.1"
   id="svg6"
   sodipodi:docname="NSideBox.svg"
   inkscape:version="0.92.2 (5c3e80d, 2017-08-06)">
  <metadata
     id="metadata12">
    <rdf:RDF>
      <cc:Work
         rdf:about="">
        <dc:format>image/svg+xml</dc:format>
        <dc:type
           rdf:resource="http://purl.org/dc/dcmitype/StillImage" />
        <dc:title>OpenSCAD Model</dc:title>
      </cc:Work>
    </rdf:RDF>
  </metadata>
  <defs
     id="defs10" />
  <sodipodi:namedview
     pagecolor="#ffffff"
     bordercolor="#666666"
     borderopacity="1"
     objecttolerance="10"
     gridtolerance="10"
     guidetolerance="10"
     inkscape:pageopacity="0"
     inkscape:pageshadow="2"
     inkscape:window-width="1255"
     inkscape:window-height="631"
     id="namedview8"
     showgrid="false"
     units="in"
     inkscape:zoom="0.24778439"
     inkscape:cx="279.68504"
     inkscape:cy="476.22047"
     inkscape:window-x="199"
     inkscape:window-y="86"
     inkscape:window-maximized="0"
     inkscape:current-layer="svg6" />
  <title
     id="title2">OpenSCAD Model</title>
  <path
     d="M 7.14374,-171.45 H 21.4312 v 3.175 h 14.2876 v -3.175 h 14.2874 v 3.175 H 57.15 v -79.475 h -7.1438 v -3.075 H 35.7187 v 3.075 H 21.4312 v -3.075 H 7.14374 v 3.075 H 3.17499 v 7.244 H 0 v 20.637 h 3.17499 v 20.638 H 0 v 20.637 h 3.17499 v 10.319 h 3.96875 z m 0,84.1375 H 21.4312 v 3.175 h 14.2876 v -3.175 h 14.2874 v 3.175 H 57.15 v -79.4745 h -7.1438 v -3.075 H 35.7187 v 3.075 H 21.4312 v -3.075 H 7.14374 v 3.075 H 3.17499 v 7.243 H 0 v 20.638 h 3.17499 v 20.637 H 0 v 20.6378 h 3.17499 v 10.3187 h 3.96875 z m 0,84.13751 H 21.4312 V 0 H 35.7188 V -3.17499 H 50.0062 V 0 H 57.15 V -79.475 H 50.0062 V -82.55 H 35.7187 v 3.075 H 21.4312 V -82.55 H 7.14374 v 3.075 H 3.17499 v 7.2438 H 0 v 20.6375 h 3.17499 v 20.6375 H 0 v 20.6375 H 3.17499 V 0 h 3.96875 z m -52.14094,1.63748 3.8278,-6.63005 -2.6197,-1.51251 10.3187,-17.87263 2.6198,1.5125 10.3187,-17.8726 -2.6197,-1.5125 10.3187,-17.8725 2.6198,1.5125 3.82783,-6.6301 0.08659,-3.025 -0.08659,-0.15 -2.66302,-1.4375 H -16.704 v 3.025 h -20.6375 v -3.025 H -57.979 v 3.025 h -20.6375 v -3.025 h -7.6557 l -2.6631,1.4375 -0.0866,0.15 0.0866,3.025 3.8279,6.6301 2.6197,-1.5125 10.3188,17.8726 -2.6198,1.5124 10.3188,17.8726 2.6197,-1.5125 10.3188,17.87265 -2.6198,1.51249 3.8279,6.63005 2.5764,1.5874825 h 0.1732 z"
     id="path4"
     inkscape:connector-curvature="0"
     style="fill:none;stroke:#ff0000;stroke-width:0.5;stroke-opacity:1;opacity:1" />
</svg>
