solid OpenSCAD_Model
  facet normal 1 -0 0
    outer loop
      vertex 0.881249 -9.525 -16.6688
      vertex 0.881249 9.525 -16.8
      vertex 0.881249 9.525 -16.6688
    endloop
  endfacet
  facet normal 1 0 0
    outer loop
      vertex 0.881249 9.525 -16.8
      vertex 0.881249 -9.525 -16.6688
      vertex 0.881249 -9.525 -16.8
    endloop
  endfacet
  facet normal -0 0 1
    outer loop
      vertex -9.12289 -4.38197 -13.8
      vertex -1.5 -9.525 -13.8
      vertex -9.12289 4.38197 -13.8
    endloop
  endfacet
  facet normal 0 0 1
    outer loop
      vertex -1.5 -9.525 -13.8
      vertex -9.12289 -4.38197 -13.8
      vertex -9.025 -5 -13.8
    endloop
  endfacet
  facet normal -0 0 1
    outer loop
      vertex -9.40697 3.82443 -13.8
      vertex -9.12289 -4.38197 -13.8
      vertex -9.12289 4.38197 -13.8
    endloop
  endfacet
  facet normal 0 0 1
    outer loop
      vertex -9.40697 3.82443 -13.8
      vertex -9.40697 -3.82443 -13.8
      vertex -9.12289 -4.38197 -13.8
    endloop
  endfacet
  facet normal -0 0 1
    outer loop
      vertex -9.84943 3.38197 -13.8
      vertex -9.40697 -3.82443 -13.8
      vertex -9.40697 3.82443 -13.8
    endloop
  endfacet
  facet normal 0 0 1
    outer loop
      vertex -9.84943 3.38197 -13.8
      vertex -9.84943 -3.38197 -13.8
      vertex -9.40697 -3.82443 -13.8
    endloop
  endfacet
  facet normal -0 0 1
    outer loop
      vertex -10.407 3.09789 -13.8
      vertex -9.84943 -3.38197 -13.8
      vertex -9.84943 3.38197 -13.8
    endloop
  endfacet
  facet normal 0 0 1
    outer loop
      vertex -10.407 3.09789 -13.8
      vertex -10.407 -3.09789 -13.8
      vertex -9.84943 -3.38197 -13.8
    endloop
  endfacet
  facet normal -0 0 1
    outer loop
      vertex -11.025 3 -13.8
      vertex -10.407 -3.09789 -13.8
      vertex -10.407 3.09789 -13.8
    endloop
  endfacet
  facet normal 0 0 1
    outer loop
      vertex -11.025 3 -13.8
      vertex -11.025 -3 -13.8
      vertex -10.407 -3.09789 -13.8
    endloop
  endfacet
  facet normal 0 0 1
    outer loop
      vertex -11.643 3.09789 -13.8
      vertex -11.025 -3 -13.8
      vertex -11.025 3 -13.8
    endloop
  endfacet
  facet normal 0 0 1
    outer loop
      vertex -11.643 3.09789 -13.8
      vertex -11.643 -3.09789 -13.8
      vertex -11.025 -3 -13.8
    endloop
  endfacet
  facet normal 0 0 1
    outer loop
      vertex -12.2006 3.38197 -13.8
      vertex -11.643 -3.09789 -13.8
      vertex -11.643 3.09789 -13.8
    endloop
  endfacet
  facet normal 0 0 1
    outer loop
      vertex -12.2006 3.38197 -13.8
      vertex -12.2006 -3.38197 -13.8
      vertex -11.643 -3.09789 -13.8
    endloop
  endfacet
  facet normal 0 0 1
    outer loop
      vertex -12.643 3.82443 -13.8
      vertex -12.2006 -3.38197 -13.8
      vertex -12.2006 3.38197 -13.8
    endloop
  endfacet
  facet normal 0 0 1
    outer loop
      vertex -12.643 3.82443 -13.8
      vertex -12.643 -3.82443 -13.8
      vertex -12.2006 -3.38197 -13.8
    endloop
  endfacet
  facet normal 0 0 1
    outer loop
      vertex -12.9271 4.38197 -13.8
      vertex -12.643 -3.82443 -13.8
      vertex -12.643 3.82443 -13.8
    endloop
  endfacet
  facet normal 0 0 1
    outer loop
      vertex -12.9271 4.38197 -13.8
      vertex -12.9271 -4.38197 -13.8
      vertex -12.643 -3.82443 -13.8
    endloop
  endfacet
  facet normal -1.03778e-07 -1.64368e-08 1
    outer loop
      vertex -22.9312 9.525 -13.8
      vertex -12.9271 4.38197 -13.8
      vertex -13.025 5 -13.8
    endloop
  endfacet
  facet normal -9.5328e-08 0 1
    outer loop
      vertex -12.9271 4.38197 -13.8
      vertex -22.9312 9.525 -13.8
      vertex -12.9271 -4.38197 -13.8
    endloop
  endfacet
  facet normal 0 0 1
    outer loop
      vertex -9.12289 4.38197 -13.8
      vertex -1.5 9.525 -13.8
      vertex -9.025 5 -13.8
    endloop
  endfacet
  facet normal 0 0 1
    outer loop
      vertex -1.5 9.525 -13.8
      vertex -9.12289 5.61803 -13.8
      vertex -9.025 5 -13.8
    endloop
  endfacet
  facet normal 0 0 1
    outer loop
      vertex -1.5 9.525 -13.8
      vertex -9.40697 6.17557 -13.8
      vertex -9.12289 5.61803 -13.8
    endloop
  endfacet
  facet normal 0 0 1
    outer loop
      vertex -1.5 9.525 -13.8
      vertex -9.84943 6.61803 -13.8
      vertex -9.40697 6.17557 -13.8
    endloop
  endfacet
  facet normal 0 0 1
    outer loop
      vertex -1.5 9.525 -13.8
      vertex -10.407 6.90211 -13.8
      vertex -9.84943 6.61803 -13.8
    endloop
  endfacet
  facet normal 0 0 1
    outer loop
      vertex -1.5 9.525 -13.8
      vertex -11.025 7 -13.8
      vertex -10.407 6.90211 -13.8
    endloop
  endfacet
  facet normal -4.44992e-08 1.67863e-07 1
    outer loop
      vertex -22.9312 9.525 -13.8
      vertex -11.025 7 -13.8
      vertex -1.5 9.525 -13.8
    endloop
  endfacet
  facet normal -9.5328e-08 0 1
    outer loop
      vertex -22.9312 -9.525 -13.8
      vertex -12.9271 -4.38197 -13.8
      vertex -22.9312 9.525 -13.8
    endloop
  endfacet
  facet normal -8.9775e-08 1.4219e-08 1
    outer loop
      vertex -12.9271 5.61803 -13.8
      vertex -22.9312 9.525 -13.8
      vertex -13.025 5 -13.8
    endloop
  endfacet
  facet normal -7.95071e-08 4.05109e-08 1
    outer loop
      vertex -12.643 6.17557 -13.8
      vertex -22.9312 9.525 -13.8
      vertex -12.9271 5.61803 -13.8
    endloop
  endfacet
  facet normal -6.99295e-08 6.99295e-08 1
    outer loop
      vertex -12.2006 6.61803 -13.8
      vertex -22.9312 9.525 -13.8
      vertex -12.643 6.17557 -13.8
    endloop
  endfacet
  facet normal -5.80238e-08 1.13878e-07 1
    outer loop
      vertex -11.643 6.90211 -13.8
      vertex -22.9312 9.525 -13.8
      vertex -12.2006 6.61803 -13.8
    endloop
  endfacet
  facet normal -3.42452e-08 2.16215e-07 1
    outer loop
      vertex -11.025 7 -13.8
      vertex -22.9312 9.525 -13.8
      vertex -11.643 6.90211 -13.8
    endloop
  endfacet
  facet normal 0 0 1
    outer loop
      vertex -1.5 9.525 -13.8
      vertex -9.12289 4.38197 -13.8
      vertex -1.5 -9.525 -13.8
    endloop
  endfacet
  facet normal -0 0 1
    outer loop
      vertex -9.12289 -5.61803 -13.8
      vertex -1.5 -9.525 -13.8
      vertex -9.025 -5 -13.8
    endloop
  endfacet
  facet normal -0 0 1
    outer loop
      vertex -9.40697 -6.17557 -13.8
      vertex -1.5 -9.525 -13.8
      vertex -9.12289 -5.61803 -13.8
    endloop
  endfacet
  facet normal -0 0 1
    outer loop
      vertex -9.84943 -6.61803 -13.8
      vertex -1.5 -9.525 -13.8
      vertex -9.40697 -6.17557 -13.8
    endloop
  endfacet
  facet normal -0 0 1
    outer loop
      vertex -10.407 -6.90211 -13.8
      vertex -1.5 -9.525 -13.8
      vertex -9.84943 -6.61803 -13.8
    endloop
  endfacet
  facet normal -0 0 1
    outer loop
      vertex -11.025 -7 -13.8
      vertex -1.5 -9.525 -13.8
      vertex -10.407 -6.90211 -13.8
    endloop
  endfacet
  facet normal -3.42452e-08 -2.16215e-07 1
    outer loop
      vertex -22.9312 -9.525 -13.8
      vertex -11.025 -7 -13.8
      vertex -11.643 -6.90211 -13.8
    endloop
  endfacet
  facet normal -1.03778e-07 1.64368e-08 1
    outer loop
      vertex -12.9271 -4.38197 -13.8
      vertex -22.9312 -9.525 -13.8
      vertex -13.025 -5 -13.8
    endloop
  endfacet
  facet normal -8.9775e-08 -1.4219e-08 1
    outer loop
      vertex -13.025 -5 -13.8
      vertex -22.9312 -9.525 -13.8
      vertex -12.9271 -5.61803 -13.8
    endloop
  endfacet
  facet normal -4.44992e-08 -1.67863e-07 1
    outer loop
      vertex -11.025 -7 -13.8
      vertex -22.9312 -9.525 -13.8
      vertex -1.5 -9.525 -13.8
    endloop
  endfacet
  facet normal -5.80238e-08 -1.13878e-07 1
    outer loop
      vertex -12.2006 -6.61803 -13.8
      vertex -22.9312 -9.525 -13.8
      vertex -11.643 -6.90211 -13.8
    endloop
  endfacet
  facet normal -6.99295e-08 -6.99295e-08 1
    outer loop
      vertex -12.643 -6.17557 -13.8
      vertex -22.9312 -9.525 -13.8
      vertex -12.2006 -6.61803 -13.8
    endloop
  endfacet
  facet normal -7.95071e-08 -4.05109e-08 1
    outer loop
      vertex -12.9271 -5.61803 -13.8
      vertex -22.9312 -9.525 -13.8
      vertex -12.643 -6.17557 -13.8
    endloop
  endfacet
  facet normal 0 0 -1
    outer loop
      vertex -9.12289 4.38197 -16.8
      vertex 0.881249 9.525 -16.8
      vertex -9.12289 -4.38197 -16.8
    endloop
  endfacet
  facet normal 0 0 -1
    outer loop
      vertex 0.881249 9.525 -16.8
      vertex -9.12289 4.38197 -16.8
      vertex -9.025 5 -16.8
    endloop
  endfacet
  facet normal 0 0 -1
    outer loop
      vertex -9.40697 -3.82443 -16.8
      vertex -9.12289 4.38197 -16.8
      vertex -9.12289 -4.38197 -16.8
    endloop
  endfacet
  facet normal 0 0 -1
    outer loop
      vertex -9.40697 -3.82443 -16.8
      vertex -9.40697 3.82443 -16.8
      vertex -9.12289 4.38197 -16.8
    endloop
  endfacet
  facet normal 0 0 -1
    outer loop
      vertex -9.84943 -3.38197 -16.8
      vertex -9.40697 3.82443 -16.8
      vertex -9.40697 -3.82443 -16.8
    endloop
  endfacet
  facet normal 0 0 -1
    outer loop
      vertex -9.84943 -3.38197 -16.8
      vertex -9.84943 3.38197 -16.8
      vertex -9.40697 3.82443 -16.8
    endloop
  endfacet
  facet normal 0 0 -1
    outer loop
      vertex -10.407 -3.09789 -16.8
      vertex -9.84943 3.38197 -16.8
      vertex -9.84943 -3.38197 -16.8
    endloop
  endfacet
  facet normal 0 0 -1
    outer loop
      vertex -10.407 -3.09789 -16.8
      vertex -10.407 3.09789 -16.8
      vertex -9.84943 3.38197 -16.8
    endloop
  endfacet
  facet normal 0 0 -1
    outer loop
      vertex -11.025 -3 -16.8
      vertex -10.407 3.09789 -16.8
      vertex -10.407 -3.09789 -16.8
    endloop
  endfacet
  facet normal 0 0 -1
    outer loop
      vertex -11.025 -3 -16.8
      vertex -11.025 3 -16.8
      vertex -10.407 3.09789 -16.8
    endloop
  endfacet
  facet normal 0 0 -1
    outer loop
      vertex -11.643 -3.09789 -16.8
      vertex -11.025 3 -16.8
      vertex -11.025 -3 -16.8
    endloop
  endfacet
  facet normal 0 0 -1
    outer loop
      vertex -11.643 -3.09789 -16.8
      vertex -11.643 3.09789 -16.8
      vertex -11.025 3 -16.8
    endloop
  endfacet
  facet normal 0 0 -1
    outer loop
      vertex -12.2006 -3.38197 -16.8
      vertex -11.643 3.09789 -16.8
      vertex -11.643 -3.09789 -16.8
    endloop
  endfacet
  facet normal 0 0 -1
    outer loop
      vertex -12.2006 -3.38197 -16.8
      vertex -12.2006 3.38197 -16.8
      vertex -11.643 3.09789 -16.8
    endloop
  endfacet
  facet normal 0 0 -1
    outer loop
      vertex -12.643 -3.82443 -16.8
      vertex -12.2006 3.38197 -16.8
      vertex -12.2006 -3.38197 -16.8
    endloop
  endfacet
  facet normal 0 0 -1
    outer loop
      vertex -12.643 -3.82443 -16.8
      vertex -12.643 3.82443 -16.8
      vertex -12.2006 3.38197 -16.8
    endloop
  endfacet
  facet normal 0 0 -1
    outer loop
      vertex -12.9271 -4.38197 -16.8
      vertex -12.643 3.82443 -16.8
      vertex -12.643 -3.82443 -16.8
    endloop
  endfacet
  facet normal 0 0 -1
    outer loop
      vertex -12.9271 -4.38197 -16.8
      vertex -12.9271 4.38197 -16.8
      vertex -12.643 3.82443 -16.8
    endloop
  endfacet
  facet normal 0 0 -1
    outer loop
      vertex -22.9312 -9.525 -16.8
      vertex -12.9271 -4.38197 -16.8
      vertex -13.025 -5 -16.8
    endloop
  endfacet
  facet normal -0 0 -1
    outer loop
      vertex -12.9271 -4.38197 -16.8
      vertex -22.9312 -9.525 -16.8
      vertex -12.9271 4.38197 -16.8
    endloop
  endfacet
  facet normal 0 0 -1
    outer loop
      vertex -9.12289 -4.38197 -16.8
      vertex 0.881249 -9.525 -16.8
      vertex -9.025 -5 -16.8
    endloop
  endfacet
  facet normal 0 0 -1
    outer loop
      vertex 0.881249 -9.525 -16.8
      vertex -9.12289 -5.61803 -16.8
      vertex -9.025 -5 -16.8
    endloop
  endfacet
  facet normal 0 0 -1
    outer loop
      vertex 0.881249 -9.525 -16.8
      vertex -9.40697 -6.17557 -16.8
      vertex -9.12289 -5.61803 -16.8
    endloop
  endfacet
  facet normal 0 0 -1
    outer loop
      vertex 0.881249 -9.525 -16.8
      vertex -9.84943 -6.61803 -16.8
      vertex -9.40697 -6.17557 -16.8
    endloop
  endfacet
  facet normal 0 0 -1
    outer loop
      vertex 0.881249 -9.525 -16.8
      vertex -10.407 -6.90211 -16.8
      vertex -9.84943 -6.61803 -16.8
    endloop
  endfacet
  facet normal 0 0 -1
    outer loop
      vertex 0.881249 -9.525 -16.8
      vertex -11.025 -7 -16.8
      vertex -10.407 -6.90211 -16.8
    endloop
  endfacet
  facet normal 0 0 -1
    outer loop
      vertex -22.9312 -9.525 -16.8
      vertex -11.025 -7 -16.8
      vertex 0.881249 -9.525 -16.8
    endloop
  endfacet
  facet normal 0 0 -1
    outer loop
      vertex -22.9312 9.525 -16.8
      vertex -12.9271 4.38197 -16.8
      vertex -22.9312 -9.525 -16.8
    endloop
  endfacet
  facet normal -0 0 -1
    outer loop
      vertex -12.9271 -5.61803 -16.8
      vertex -22.9312 -9.525 -16.8
      vertex -13.025 -5 -16.8
    endloop
  endfacet
  facet normal -0 0 -1
    outer loop
      vertex -12.643 -6.17557 -16.8
      vertex -22.9312 -9.525 -16.8
      vertex -12.9271 -5.61803 -16.8
    endloop
  endfacet
  facet normal -0 0 -1
    outer loop
      vertex -12.2006 -6.61803 -16.8
      vertex -22.9312 -9.525 -16.8
      vertex -12.643 -6.17557 -16.8
    endloop
  endfacet
  facet normal -0 0 -1
    outer loop
      vertex -11.643 -6.90211 -16.8
      vertex -22.9312 -9.525 -16.8
      vertex -12.2006 -6.61803 -16.8
    endloop
  endfacet
  facet normal -0 0 -1
    outer loop
      vertex -11.025 -7 -16.8
      vertex -22.9312 -9.525 -16.8
      vertex -11.643 -6.90211 -16.8
    endloop
  endfacet
  facet normal 0 0 -1
    outer loop
      vertex 0.881249 -9.525 -16.8
      vertex -9.12289 -4.38197 -16.8
      vertex 0.881249 9.525 -16.8
    endloop
  endfacet
  facet normal 0 0 -1
    outer loop
      vertex -9.12289 5.61803 -16.8
      vertex 0.881249 9.525 -16.8
      vertex -9.025 5 -16.8
    endloop
  endfacet
  facet normal 0 0 -1
    outer loop
      vertex -9.40697 6.17557 -16.8
      vertex 0.881249 9.525 -16.8
      vertex -9.12289 5.61803 -16.8
    endloop
  endfacet
  facet normal 0 0 -1
    outer loop
      vertex -9.84943 6.61803 -16.8
      vertex 0.881249 9.525 -16.8
      vertex -9.40697 6.17557 -16.8
    endloop
  endfacet
  facet normal 0 0 -1
    outer loop
      vertex -10.407 6.90211 -16.8
      vertex 0.881249 9.525 -16.8
      vertex -9.84943 6.61803 -16.8
    endloop
  endfacet
  facet normal 0 0 -1
    outer loop
      vertex -11.025 7 -16.8
      vertex 0.881249 9.525 -16.8
      vertex -10.407 6.90211 -16.8
    endloop
  endfacet
  facet normal 0 0 -1
    outer loop
      vertex -22.9312 9.525 -16.8
      vertex -11.025 7 -16.8
      vertex -11.643 6.90211 -16.8
    endloop
  endfacet
  facet normal 0 0 -1
    outer loop
      vertex -12.9271 4.38197 -16.8
      vertex -22.9312 9.525 -16.8
      vertex -13.025 5 -16.8
    endloop
  endfacet
  facet normal 0 0 -1
    outer loop
      vertex -13.025 5 -16.8
      vertex -22.9312 9.525 -16.8
      vertex -12.9271 5.61803 -16.8
    endloop
  endfacet
  facet normal 0 0 -1
    outer loop
      vertex -11.025 7 -16.8
      vertex -22.9312 9.525 -16.8
      vertex 0.881249 9.525 -16.8
    endloop
  endfacet
  facet normal 0 0 -1
    outer loop
      vertex -12.2006 6.61803 -16.8
      vertex -22.9312 9.525 -16.8
      vertex -11.643 6.90211 -16.8
    endloop
  endfacet
  facet normal 0 0 -1
    outer loop
      vertex -12.643 6.17557 -16.8
      vertex -22.9312 9.525 -16.8
      vertex -12.2006 6.61803 -16.8
    endloop
  endfacet
  facet normal 0 0 -1
    outer loop
      vertex -12.9271 5.61803 -16.8
      vertex -22.9312 9.525 -16.8
      vertex -12.643 6.17557 -16.8
    endloop
  endfacet
  facet normal 0 -1 0
    outer loop
      vertex 0.881249 -9.525 -16.8
      vertex -1.5 -9.525 -13.8
      vertex -22.9312 -9.525 -16.8
    endloop
  endfacet
  facet normal 0 -1 0
    outer loop
      vertex -1.5 -9.525 -13.8
      vertex 0.881249 -9.525 -16.8
      vertex 0.881249 -9.525 -16.6688
    endloop
  endfacet
  facet normal 0 -1 0
    outer loop
      vertex -1.5 -9.525 -13.8
      vertex 1.5 -9.525 7.14375
      vertex -1.5 -9.525 7.14375
    endloop
  endfacet
  facet normal 0 -1 0
    outer loop
      vertex -22.9312 -9.525 -16.8
      vertex -1.5 -9.525 -13.8
      vertex -22.9312 -9.525 -13.8
    endloop
  endfacet
  facet normal 0 -1 0
    outer loop
      vertex 1.5 -9.525 -16.6688
      vertex -1.5 -9.525 -13.8
      vertex 0.881249 -9.525 -16.6688
    endloop
  endfacet
  facet normal 0 -1 0
    outer loop
      vertex -1.5 -9.525 -13.8
      vertex 1.5 -9.525 -16.6688
      vertex 1.5 -9.525 7.14375
    endloop
  endfacet
  facet normal -1 0 0
    outer loop
      vertex -22.9312 -9.525 -16.8
      vertex -22.9312 9.525 -13.8
      vertex -22.9312 9.525 -16.8
    endloop
  endfacet
  facet normal -1 -0 0
    outer loop
      vertex -22.9312 9.525 -13.8
      vertex -22.9312 -9.525 -16.8
      vertex -22.9312 -9.525 -13.8
    endloop
  endfacet
  facet normal 0 1 0
    outer loop
      vertex 1.5 9.525 7.14375
      vertex -1.5 9.525 -13.8
      vertex -1.5 9.525 7.14375
    endloop
  endfacet
  facet normal 0 1 -0
    outer loop
      vertex 1.5 9.525 -16.6688
      vertex -1.5 9.525 -13.8
      vertex 1.5 9.525 7.14375
    endloop
  endfacet
  facet normal 0 1 -0
    outer loop
      vertex 0.881249 9.525 -16.6688
      vertex -1.5 9.525 -13.8
      vertex 1.5 9.525 -16.6688
    endloop
  endfacet
  facet normal 0 1 -0
    outer loop
      vertex 0.881249 9.525 -16.8
      vertex -1.5 9.525 -13.8
      vertex 0.881249 9.525 -16.6688
    endloop
  endfacet
  facet normal 0 1 0
    outer loop
      vertex -1.5 9.525 -13.8
      vertex 0.881249 9.525 -16.8
      vertex -22.9312 9.525 -16.8
    endloop
  endfacet
  facet normal 0 1 0
    outer loop
      vertex -1.5 9.525 -13.8
      vertex -22.9312 9.525 -16.8
      vertex -22.9312 9.525 -13.8
    endloop
  endfacet
  facet normal -0.987688 -0.156435 0
    outer loop
      vertex -9.025 5 -16.8
      vertex -9.12289 5.61803 -13.8
      vertex -9.12289 5.61803 -16.8
    endloop
  endfacet
  facet normal -0.987688 -0.156435 0
    outer loop
      vertex -9.12289 5.61803 -13.8
      vertex -9.025 5 -16.8
      vertex -9.025 5 -13.8
    endloop
  endfacet
  facet normal 0.156435 -0.987688 0
    outer loop
      vertex -11.643 6.90211 -16.8
      vertex -11.025 7 -13.8
      vertex -11.643 6.90211 -13.8
    endloop
  endfacet
  facet normal 0.156435 -0.987688 0
    outer loop
      vertex -11.025 7 -13.8
      vertex -11.643 6.90211 -16.8
      vertex -11.025 7 -16.8
    endloop
  endfacet
  facet normal -0.453991 0.891006 0
    outer loop
      vertex -9.84943 3.38197 -16.8
      vertex -10.407 3.09789 -13.8
      vertex -9.84943 3.38197 -13.8
    endloop
  endfacet
  facet normal -0.453991 0.891006 0
    outer loop
      vertex -10.407 3.09789 -13.8
      vertex -9.84943 3.38197 -16.8
      vertex -10.407 3.09789 -16.8
    endloop
  endfacet
  facet normal 0.453991 0.891006 -0
    outer loop
      vertex -11.643 3.09789 -16.8
      vertex -12.2006 3.38197 -13.8
      vertex -11.643 3.09789 -13.8
    endloop
  endfacet
  facet normal 0.453991 0.891006 0
    outer loop
      vertex -12.2006 3.38197 -13.8
      vertex -11.643 3.09789 -16.8
      vertex -12.2006 3.38197 -16.8
    endloop
  endfacet
  facet normal -0.453991 -0.891006 0
    outer loop
      vertex -10.407 6.90211 -16.8
      vertex -9.84943 6.61803 -13.8
      vertex -10.407 6.90211 -13.8
    endloop
  endfacet
  facet normal -0.453991 -0.891006 -0
    outer loop
      vertex -9.84943 6.61803 -13.8
      vertex -10.407 6.90211 -16.8
      vertex -9.84943 6.61803 -16.8
    endloop
  endfacet
  facet normal -0.891006 -0.453991 0
    outer loop
      vertex -9.12289 5.61803 -16.8
      vertex -9.40697 6.17557 -13.8
      vertex -9.40697 6.17557 -16.8
    endloop
  endfacet
  facet normal -0.891006 -0.453991 0
    outer loop
      vertex -9.40697 6.17557 -13.8
      vertex -9.12289 5.61803 -16.8
      vertex -9.12289 5.61803 -13.8
    endloop
  endfacet
  facet normal -0.156435 -0.987688 0
    outer loop
      vertex -11.025 7 -16.8
      vertex -10.407 6.90211 -13.8
      vertex -11.025 7 -13.8
    endloop
  endfacet
  facet normal -0.156435 -0.987688 -0
    outer loop
      vertex -10.407 6.90211 -13.8
      vertex -11.025 7 -16.8
      vertex -10.407 6.90211 -16.8
    endloop
  endfacet
  facet normal 0.891006 -0.453991 0
    outer loop
      vertex -12.9271 5.61803 -13.8
      vertex -12.643 6.17557 -16.8
      vertex -12.643 6.17557 -13.8
    endloop
  endfacet
  facet normal 0.891006 -0.453991 0
    outer loop
      vertex -12.643 6.17557 -16.8
      vertex -12.9271 5.61803 -13.8
      vertex -12.9271 5.61803 -16.8
    endloop
  endfacet
  facet normal 0.987688 -0.156435 0
    outer loop
      vertex -13.025 5 -13.8
      vertex -12.9271 5.61803 -16.8
      vertex -12.9271 5.61803 -13.8
    endloop
  endfacet
  facet normal 0.987688 -0.156435 0
    outer loop
      vertex -12.9271 5.61803 -16.8
      vertex -13.025 5 -13.8
      vertex -13.025 5 -16.8
    endloop
  endfacet
  facet normal 0.453991 -0.891006 0
    outer loop
      vertex -12.2006 6.61803 -16.8
      vertex -11.643 6.90211 -13.8
      vertex -12.2006 6.61803 -13.8
    endloop
  endfacet
  facet normal 0.453991 -0.891006 0
    outer loop
      vertex -11.643 6.90211 -13.8
      vertex -12.2006 6.61803 -16.8
      vertex -11.643 6.90211 -16.8
    endloop
  endfacet
  facet normal -0.987688 0.156434 0
    outer loop
      vertex -9.12289 4.38197 -16.8
      vertex -9.025 5 -13.8
      vertex -9.025 5 -16.8
    endloop
  endfacet
  facet normal -0.987688 0.156434 0
    outer loop
      vertex -9.025 5 -13.8
      vertex -9.12289 4.38197 -16.8
      vertex -9.12289 4.38197 -13.8
    endloop
  endfacet
  facet normal 0.156433 0.987689 -0
    outer loop
      vertex -11.025 3 -16.8
      vertex -11.643 3.09789 -13.8
      vertex -11.025 3 -13.8
    endloop
  endfacet
  facet normal 0.156433 0.987689 0
    outer loop
      vertex -11.643 3.09789 -13.8
      vertex -11.025 3 -16.8
      vertex -11.643 3.09789 -16.8
    endloop
  endfacet
  facet normal 0.891006 0.453991 0
    outer loop
      vertex -12.643 3.82443 -13.8
      vertex -12.9271 4.38197 -16.8
      vertex -12.9271 4.38197 -13.8
    endloop
  endfacet
  facet normal 0.891006 0.453991 0
    outer loop
      vertex -12.9271 4.38197 -16.8
      vertex -12.643 3.82443 -13.8
      vertex -12.643 3.82443 -16.8
    endloop
  endfacet
  facet normal -0.707107 -0.707107 0
    outer loop
      vertex -9.40697 6.17557 -16.8
      vertex -9.84943 6.61803 -13.8
      vertex -9.84943 6.61803 -16.8
    endloop
  endfacet
  facet normal -0.707107 -0.707107 0
    outer loop
      vertex -9.84943 6.61803 -13.8
      vertex -9.40697 6.17557 -16.8
      vertex -9.40697 6.17557 -13.8
    endloop
  endfacet
  facet normal 0.987688 0.156434 0
    outer loop
      vertex -12.9271 4.38197 -13.8
      vertex -13.025 5 -16.8
      vertex -13.025 5 -13.8
    endloop
  endfacet
  facet normal 0.987688 0.156434 0
    outer loop
      vertex -13.025 5 -16.8
      vertex -12.9271 4.38197 -13.8
      vertex -12.9271 4.38197 -16.8
    endloop
  endfacet
  facet normal 0.707107 -0.707107 0
    outer loop
      vertex -12.643 6.17557 -13.8
      vertex -12.2006 6.61803 -16.8
      vertex -12.2006 6.61803 -13.8
    endloop
  endfacet
  facet normal 0.707107 -0.707107 0
    outer loop
      vertex -12.2006 6.61803 -16.8
      vertex -12.643 6.17557 -13.8
      vertex -12.643 6.17557 -16.8
    endloop
  endfacet
  facet normal -0.891006 0.453991 0
    outer loop
      vertex -9.40697 3.82443 -16.8
      vertex -9.12289 4.38197 -13.8
      vertex -9.12289 4.38197 -16.8
    endloop
  endfacet
  facet normal -0.891006 0.453991 0
    outer loop
      vertex -9.12289 4.38197 -13.8
      vertex -9.40697 3.82443 -16.8
      vertex -9.40697 3.82443 -13.8
    endloop
  endfacet
  facet normal -0.156433 0.987689 0
    outer loop
      vertex -10.407 3.09789 -16.8
      vertex -11.025 3 -13.8
      vertex -10.407 3.09789 -13.8
    endloop
  endfacet
  facet normal -0.156433 0.987689 0
    outer loop
      vertex -11.025 3 -13.8
      vertex -10.407 3.09789 -16.8
      vertex -11.025 3 -16.8
    endloop
  endfacet
  facet normal 0.707107 0.707107 0
    outer loop
      vertex -12.2006 3.38197 -13.8
      vertex -12.643 3.82443 -16.8
      vertex -12.643 3.82443 -13.8
    endloop
  endfacet
  facet normal 0.707107 0.707107 0
    outer loop
      vertex -12.643 3.82443 -16.8
      vertex -12.2006 3.38197 -13.8
      vertex -12.2006 3.38197 -16.8
    endloop
  endfacet
  facet normal -0.707107 0.707107 0
    outer loop
      vertex -9.84943 3.38197 -16.8
      vertex -9.40697 3.82443 -13.8
      vertex -9.40697 3.82443 -16.8
    endloop
  endfacet
  facet normal -0.707107 0.707107 0
    outer loop
      vertex -9.40697 3.82443 -13.8
      vertex -9.84943 3.38197 -16.8
      vertex -9.84943 3.38197 -13.8
    endloop
  endfacet
  facet normal -0.987688 -0.156434 0
    outer loop
      vertex -9.025 -5 -16.8
      vertex -9.12289 -4.38197 -13.8
      vertex -9.12289 -4.38197 -16.8
    endloop
  endfacet
  facet normal -0.987688 -0.156434 0
    outer loop
      vertex -9.12289 -4.38197 -13.8
      vertex -9.025 -5 -16.8
      vertex -9.025 -5 -13.8
    endloop
  endfacet
  facet normal 0.987688 -0.156434 0
    outer loop
      vertex -13.025 -5 -13.8
      vertex -12.9271 -4.38197 -16.8
      vertex -12.9271 -4.38197 -13.8
    endloop
  endfacet
  facet normal 0.987688 -0.156434 0
    outer loop
      vertex -12.9271 -4.38197 -16.8
      vertex -13.025 -5 -13.8
      vertex -13.025 -5 -16.8
    endloop
  endfacet
  facet normal -0.156433 -0.987689 0
    outer loop
      vertex -11.025 -3 -16.8
      vertex -10.407 -3.09789 -13.8
      vertex -11.025 -3 -13.8
    endloop
  endfacet
  facet normal -0.156433 -0.987689 -0
    outer loop
      vertex -10.407 -3.09789 -13.8
      vertex -11.025 -3 -16.8
      vertex -10.407 -3.09789 -16.8
    endloop
  endfacet
  facet normal -0.156435 0.987688 0
    outer loop
      vertex -10.407 -6.90211 -16.8
      vertex -11.025 -7 -13.8
      vertex -10.407 -6.90211 -13.8
    endloop
  endfacet
  facet normal -0.156435 0.987688 0
    outer loop
      vertex -11.025 -7 -13.8
      vertex -10.407 -6.90211 -16.8
      vertex -11.025 -7 -16.8
    endloop
  endfacet
  facet normal 0.156435 0.987688 -0
    outer loop
      vertex -11.025 -7 -16.8
      vertex -11.643 -6.90211 -13.8
      vertex -11.025 -7 -13.8
    endloop
  endfacet
  facet normal 0.156435 0.987688 0
    outer loop
      vertex -11.643 -6.90211 -13.8
      vertex -11.025 -7 -16.8
      vertex -11.643 -6.90211 -16.8
    endloop
  endfacet
  facet normal -0.891006 -0.453991 0
    outer loop
      vertex -9.12289 -4.38197 -16.8
      vertex -9.40697 -3.82443 -13.8
      vertex -9.40697 -3.82443 -16.8
    endloop
  endfacet
  facet normal -0.891006 -0.453991 0
    outer loop
      vertex -9.40697 -3.82443 -13.8
      vertex -9.12289 -4.38197 -16.8
      vertex -9.12289 -4.38197 -13.8
    endloop
  endfacet
  facet normal 0.156433 -0.987689 0
    outer loop
      vertex -11.643 -3.09789 -16.8
      vertex -11.025 -3 -13.8
      vertex -11.643 -3.09789 -13.8
    endloop
  endfacet
  facet normal 0.156433 -0.987689 0
    outer loop
      vertex -11.025 -3 -13.8
      vertex -11.643 -3.09789 -16.8
      vertex -11.025 -3 -16.8
    endloop
  endfacet
  facet normal 0.453991 -0.891006 0
    outer loop
      vertex -12.2006 -3.38197 -16.8
      vertex -11.643 -3.09789 -13.8
      vertex -12.2006 -3.38197 -13.8
    endloop
  endfacet
  facet normal 0.453991 -0.891006 0
    outer loop
      vertex -11.643 -3.09789 -13.8
      vertex -12.2006 -3.38197 -16.8
      vertex -11.643 -3.09789 -16.8
    endloop
  endfacet
  facet normal 0.891006 -0.453991 0
    outer loop
      vertex -12.9271 -4.38197 -13.8
      vertex -12.643 -3.82443 -16.8
      vertex -12.643 -3.82443 -13.8
    endloop
  endfacet
  facet normal 0.891006 -0.453991 0
    outer loop
      vertex -12.643 -3.82443 -16.8
      vertex -12.9271 -4.38197 -13.8
      vertex -12.9271 -4.38197 -16.8
    endloop
  endfacet
  facet normal 0.707107 -0.707107 0
    outer loop
      vertex -12.643 -3.82443 -13.8
      vertex -12.2006 -3.38197 -16.8
      vertex -12.2006 -3.38197 -13.8
    endloop
  endfacet
  facet normal 0.707107 -0.707107 0
    outer loop
      vertex -12.2006 -3.38197 -16.8
      vertex -12.643 -3.82443 -13.8
      vertex -12.643 -3.82443 -16.8
    endloop
  endfacet
  facet normal 0.987688 0.156435 0
    outer loop
      vertex -12.9271 -5.61803 -13.8
      vertex -13.025 -5 -16.8
      vertex -13.025 -5 -13.8
    endloop
  endfacet
  facet normal 0.987688 0.156435 0
    outer loop
      vertex -13.025 -5 -16.8
      vertex -12.9271 -5.61803 -13.8
      vertex -12.9271 -5.61803 -16.8
    endloop
  endfacet
  facet normal -0.707107 -0.707107 0
    outer loop
      vertex -9.40697 -3.82443 -16.8
      vertex -9.84943 -3.38197 -13.8
      vertex -9.84943 -3.38197 -16.8
    endloop
  endfacet
  facet normal -0.707107 -0.707107 0
    outer loop
      vertex -9.84943 -3.38197 -13.8
      vertex -9.40697 -3.82443 -16.8
      vertex -9.40697 -3.82443 -13.8
    endloop
  endfacet
  facet normal -0.453991 -0.891006 0
    outer loop
      vertex -10.407 -3.09789 -16.8
      vertex -9.84943 -3.38197 -13.8
      vertex -10.407 -3.09789 -13.8
    endloop
  endfacet
  facet normal -0.453991 -0.891006 -0
    outer loop
      vertex -9.84943 -3.38197 -13.8
      vertex -10.407 -3.09789 -16.8
      vertex -9.84943 -3.38197 -16.8
    endloop
  endfacet
  facet normal -0.891006 0.453991 0
    outer loop
      vertex -9.40697 -6.17557 -16.8
      vertex -9.12289 -5.61803 -13.8
      vertex -9.12289 -5.61803 -16.8
    endloop
  endfacet
  facet normal -0.891006 0.453991 0
    outer loop
      vertex -9.12289 -5.61803 -13.8
      vertex -9.40697 -6.17557 -16.8
      vertex -9.40697 -6.17557 -13.8
    endloop
  endfacet
  facet normal -0.453991 0.891006 0
    outer loop
      vertex -9.84943 -6.61803 -16.8
      vertex -10.407 -6.90211 -13.8
      vertex -9.84943 -6.61803 -13.8
    endloop
  endfacet
  facet normal -0.453991 0.891006 0
    outer loop
      vertex -10.407 -6.90211 -13.8
      vertex -9.84943 -6.61803 -16.8
      vertex -10.407 -6.90211 -16.8
    endloop
  endfacet
  facet normal -0.987688 0.156435 0
    outer loop
      vertex -9.12289 -5.61803 -16.8
      vertex -9.025 -5 -13.8
      vertex -9.025 -5 -16.8
    endloop
  endfacet
  facet normal -0.987688 0.156435 0
    outer loop
      vertex -9.025 -5 -13.8
      vertex -9.12289 -5.61803 -16.8
      vertex -9.12289 -5.61803 -13.8
    endloop
  endfacet
  facet normal 0.707107 0.707107 0
    outer loop
      vertex -12.2006 -6.61803 -13.8
      vertex -12.643 -6.17557 -16.8
      vertex -12.643 -6.17557 -13.8
    endloop
  endfacet
  facet normal 0.707107 0.707107 0
    outer loop
      vertex -12.643 -6.17557 -16.8
      vertex -12.2006 -6.61803 -13.8
      vertex -12.2006 -6.61803 -16.8
    endloop
  endfacet
  facet normal 0.891006 0.453991 0
    outer loop
      vertex -12.643 -6.17557 -13.8
      vertex -12.9271 -5.61803 -16.8
      vertex -12.9271 -5.61803 -13.8
    endloop
  endfacet
  facet normal 0.891006 0.453991 0
    outer loop
      vertex -12.9271 -5.61803 -16.8
      vertex -12.643 -6.17557 -13.8
      vertex -12.643 -6.17557 -16.8
    endloop
  endfacet
  facet normal 0.453991 0.891006 -0
    outer loop
      vertex -11.643 -6.90211 -16.8
      vertex -12.2006 -6.61803 -13.8
      vertex -11.643 -6.90211 -13.8
    endloop
  endfacet
  facet normal 0.453991 0.891006 0
    outer loop
      vertex -12.2006 -6.61803 -13.8
      vertex -11.643 -6.90211 -16.8
      vertex -12.2006 -6.61803 -16.8
    endloop
  endfacet
  facet normal -0.707107 0.707107 0
    outer loop
      vertex -9.84943 -6.61803 -16.8
      vertex -9.40697 -6.17557 -13.8
      vertex -9.40697 -6.17557 -16.8
    endloop
  endfacet
  facet normal -0.707107 0.707107 0
    outer loop
      vertex -9.40697 -6.17557 -13.8
      vertex -9.84943 -6.61803 -16.8
      vertex -9.84943 -6.61803 -13.8
    endloop
  endfacet
  facet normal -1 0 0
    outer loop
      vertex -1.5 9.525 -13.8
      vertex -1.5 3.94701 -0.414846
      vertex -1.5 9.525 7.14375
    endloop
  endfacet
  facet normal -1 0 0
    outer loop
      vertex -1.5 9.525 -13.8
      vertex -1.5 3.7745 -1.22641
      vertex -1.5 3.94701 -0.414846
    endloop
  endfacet
  facet normal -1 0 0
    outer loop
      vertex -1.5 9.525 -13.8
      vertex -1.5 3.43704 -1.98438
      vertex -1.5 3.7745 -1.22641
    endloop
  endfacet
  facet normal -1 0 0
    outer loop
      vertex -1.5 9.525 -13.8
      vertex -1.5 2.94936 -2.65561
      vertex -1.5 3.43704 -1.98438
    endloop
  endfacet
  facet normal -1 0 0
    outer loop
      vertex -1.5 9.525 -13.8
      vertex -1.5 2.33277 -3.21079
      vertex -1.5 2.94936 -2.65561
    endloop
  endfacet
  facet normal -1 0 0
    outer loop
      vertex -1.5 9.525 -13.8
      vertex -1.5 1.61424 -3.62563
      vertex -1.5 2.33277 -3.21079
    endloop
  endfacet
  facet normal -1 0 0
    outer loop
      vertex -1.5 9.525 -13.8
      vertex -1.5 0.825149 -3.88202
      vertex -1.5 1.61424 -3.62563
    endloop
  endfacet
  facet normal -1 0 0
    outer loop
      vertex -1.5 9.525 -13.8
      vertex -1.5 0.058939 -3.96256
      vertex -1.5 0.825149 -3.88202
    endloop
  endfacet
  facet normal -1 0 0
    outer loop
      vertex -1.5 9.525 -13.8
      vertex -1.5 0 -3.96875
      vertex -1.5 0.058939 -3.96256
    endloop
  endfacet
  facet normal -1 0 0
    outer loop
      vertex -1.5 -9.525 -13.8
      vertex -1.5 0 -3.96875
      vertex -1.5 9.525 -13.8
    endloop
  endfacet
  facet normal -1 -0 0
    outer loop
      vertex -1.5 0 -3.96875
      vertex -1.5 -9.525 -13.8
      vertex -1.5 -0.058939 -3.96256
    endloop
  endfacet
  facet normal -1 -0 0
    outer loop
      vertex -1.5 -0.058939 -3.96256
      vertex -1.5 -9.525 -13.8
      vertex -1.5 -0.825149 -3.88202
    endloop
  endfacet
  facet normal -1 -0 0
    outer loop
      vertex -1.5 -0.825149 -3.88202
      vertex -1.5 -9.525 -13.8
      vertex -1.5 -1.61424 -3.62563
    endloop
  endfacet
  facet normal -1 0 0
    outer loop
      vertex -1.5 -9.525 7.14375
      vertex -1.5 -3.94701 -0.414846
      vertex -1.5 -9.525 -13.8
    endloop
  endfacet
  facet normal -1 -0 0
    outer loop
      vertex -1.5 -3.7745 -1.22641
      vertex -1.5 -9.525 -13.8
      vertex -1.5 -3.94701 -0.414846
    endloop
  endfacet
  facet normal -1 -0 0
    outer loop
      vertex -1.5 -3.43704 -1.98438
      vertex -1.5 -9.525 -13.8
      vertex -1.5 -3.7745 -1.22641
    endloop
  endfacet
  facet normal -1 -0 0
    outer loop
      vertex -1.5 -2.94936 -2.65561
      vertex -1.5 -9.525 -13.8
      vertex -1.5 -3.43704 -1.98438
    endloop
  endfacet
  facet normal -1 -0 0
    outer loop
      vertex -1.5 -2.33277 -3.21079
      vertex -1.5 -9.525 -13.8
      vertex -1.5 -2.94936 -2.65561
    endloop
  endfacet
  facet normal -1 -0 0
    outer loop
      vertex -1.5 -1.61424 -3.62563
      vertex -1.5 -9.525 -13.8
      vertex -1.5 -2.33277 -3.21079
    endloop
  endfacet
  facet normal -1 0 0
    outer loop
      vertex -1.5 3.94701 0.414846
      vertex -1.5 9.525 7.14375
      vertex -1.5 3.94701 -0.414846
    endloop
  endfacet
  facet normal -1 0 0
    outer loop
      vertex -1.5 3.7745 1.22641
      vertex -1.5 9.525 7.14375
      vertex -1.5 3.94701 0.414846
    endloop
  endfacet
  facet normal -1 0 0
    outer loop
      vertex -1.5 3.43704 1.98437
      vertex -1.5 9.525 7.14375
      vertex -1.5 3.7745 1.22641
    endloop
  endfacet
  facet normal -1 0 0
    outer loop
      vertex -1.5 2.94936 2.65561
      vertex -1.5 9.525 7.14375
      vertex -1.5 3.43704 1.98437
    endloop
  endfacet
  facet normal -1 0 0
    outer loop
      vertex -1.5 2.33277 3.21079
      vertex -1.5 9.525 7.14375
      vertex -1.5 2.94936 2.65561
    endloop
  endfacet
  facet normal -1 0 0
    outer loop
      vertex -1.5 1.61424 3.62563
      vertex -1.5 9.525 7.14375
      vertex -1.5 2.33277 3.21079
    endloop
  endfacet
  facet normal -1 0 0
    outer loop
      vertex -1.5 0.825149 3.88202
      vertex -1.5 9.525 7.14375
      vertex -1.5 1.61424 3.62563
    endloop
  endfacet
  facet normal -1 0 0
    outer loop
      vertex -1.5 0.766209 3.88822
      vertex -1.5 9.525 7.14375
      vertex -1.5 0.825149 3.88202
    endloop
  endfacet
  facet normal -1 0 0
    outer loop
      vertex -1.5 0 3.96875
      vertex -1.5 9.525 7.14375
      vertex -1.5 0.766209 3.88822
    endloop
  endfacet
  facet normal -1 0 0
    outer loop
      vertex -1.5 -9.525 7.14375
      vertex -1.5 0 3.96875
      vertex -1.5 -0.766209 3.88822
    endloop
  endfacet
  facet normal -1 0 0
    outer loop
      vertex -1.5 -9.525 7.14375
      vertex -1.5 -0.766209 3.88822
      vertex -1.5 -0.825149 3.88202
    endloop
  endfacet
  facet normal -1 0 0
    outer loop
      vertex -1.5 -3.94701 -0.414846
      vertex -1.5 -9.525 7.14375
      vertex -1.5 -3.94701 0.414846
    endloop
  endfacet
  facet normal -1 0 0
    outer loop
      vertex -1.5 0 3.96875
      vertex -1.5 -9.525 7.14375
      vertex -1.5 9.525 7.14375
    endloop
  endfacet
  facet normal -1 0 0
    outer loop
      vertex -1.5 -1.61424 3.62563
      vertex -1.5 -9.525 7.14375
      vertex -1.5 -0.825149 3.88202
    endloop
  endfacet
  facet normal -1 0 0
    outer loop
      vertex -1.5 -2.33277 3.21079
      vertex -1.5 -9.525 7.14375
      vertex -1.5 -1.61424 3.62563
    endloop
  endfacet
  facet normal -1 0 0
    outer loop
      vertex -1.5 -2.94936 2.65561
      vertex -1.5 -9.525 7.14375
      vertex -1.5 -2.33277 3.21079
    endloop
  endfacet
  facet normal -1 0 0
    outer loop
      vertex -1.5 -3.43704 1.98438
      vertex -1.5 -9.525 7.14375
      vertex -1.5 -2.94936 2.65561
    endloop
  endfacet
  facet normal -1 0 0
    outer loop
      vertex -1.5 -3.7745 1.22641
      vertex -1.5 -9.525 7.14375
      vertex -1.5 -3.43704 1.98438
    endloop
  endfacet
  facet normal -1 0 0
    outer loop
      vertex -1.5 -3.94701 0.414846
      vertex -1.5 -9.525 7.14375
      vertex -1.5 -3.7745 1.22641
    endloop
  endfacet
  facet normal -0 0 1
    outer loop
      vertex -1.5 9.525 7.14375
      vertex 1.5 -9.525 7.14375
      vertex 1.5 9.525 7.14375
    endloop
  endfacet
  facet normal 0 0 1
    outer loop
      vertex 1.5 -9.525 7.14375
      vertex -1.5 9.525 7.14375
      vertex -1.5 -9.525 7.14375
    endloop
  endfacet
  facet normal 1 0 0
    outer loop
      vertex 1.5 3.94701 -0.414846
      vertex 1.5 9.525 7.14375
      vertex 1.5 3.94701 0.414846
    endloop
  endfacet
  facet normal 1 0 0
    outer loop
      vertex 1.5 9.525 7.14375
      vertex 1.5 3.7745 1.22641
      vertex 1.5 3.94701 0.414846
    endloop
  endfacet
  facet normal 1 0 0
    outer loop
      vertex 1.5 9.525 7.14375
      vertex 1.5 3.43704 1.98437
      vertex 1.5 3.7745 1.22641
    endloop
  endfacet
  facet normal 1 0 0
    outer loop
      vertex 1.5 9.525 7.14375
      vertex 1.5 2.94936 2.65561
      vertex 1.5 3.43704 1.98437
    endloop
  endfacet
  facet normal 1 0 0
    outer loop
      vertex 1.5 9.525 7.14375
      vertex 1.5 2.33277 3.21079
      vertex 1.5 2.94936 2.65561
    endloop
  endfacet
  facet normal 1 0 0
    outer loop
      vertex 1.5 9.525 7.14375
      vertex 1.5 1.61424 3.62563
      vertex 1.5 2.33277 3.21079
    endloop
  endfacet
  facet normal 1 0 0
    outer loop
      vertex 1.5 9.525 7.14375
      vertex 1.5 0.825149 3.88202
      vertex 1.5 1.61424 3.62563
    endloop
  endfacet
  facet normal 1 0 0
    outer loop
      vertex 1.5 9.525 7.14375
      vertex 1.5 0.058939 3.96256
      vertex 1.5 0.825149 3.88202
    endloop
  endfacet
  facet normal 1 0 0
    outer loop
      vertex 1.5 9.525 7.14375
      vertex 1.5 0 3.96875
      vertex 1.5 0.058939 3.96256
    endloop
  endfacet
  facet normal 1 -0 0
    outer loop
      vertex 1.5 -9.525 7.14375
      vertex 1.5 0 3.96875
      vertex 1.5 9.525 7.14375
    endloop
  endfacet
  facet normal 1 0 0
    outer loop
      vertex 1.5 0 3.96875
      vertex 1.5 -9.525 7.14375
      vertex 1.5 -0.058939 3.96256
    endloop
  endfacet
  facet normal 1 0 0
    outer loop
      vertex 1.5 -3.94701 0.414846
      vertex 1.5 -9.525 7.14375
      vertex 1.5 -3.94701 -0.414846
    endloop
  endfacet
  facet normal 1 0 0
    outer loop
      vertex 1.5 -3.7745 1.22641
      vertex 1.5 -9.525 7.14375
      vertex 1.5 -3.94701 0.414846
    endloop
  endfacet
  facet normal 1 0 0
    outer loop
      vertex 1.5 -3.43704 1.98438
      vertex 1.5 -9.525 7.14375
      vertex 1.5 -3.7745 1.22641
    endloop
  endfacet
  facet normal 1 0 0
    outer loop
      vertex 1.5 -2.94936 2.65561
      vertex 1.5 -9.525 7.14375
      vertex 1.5 -3.43704 1.98438
    endloop
  endfacet
  facet normal 1 0 0
    outer loop
      vertex 1.5 -2.33277 3.21079
      vertex 1.5 -9.525 7.14375
      vertex 1.5 -2.94936 2.65561
    endloop
  endfacet
  facet normal 1 0 0
    outer loop
      vertex 1.5 -1.61424 3.62563
      vertex 1.5 -9.525 7.14375
      vertex 1.5 -2.33277 3.21079
    endloop
  endfacet
  facet normal 1 0 0
    outer loop
      vertex 1.5 -0.825149 3.88202
      vertex 1.5 -9.525 7.14375
      vertex 1.5 -1.61424 3.62563
    endloop
  endfacet
  facet normal 1 0 0
    outer loop
      vertex 1.5 -0.058939 3.96256
      vertex 1.5 -9.525 7.14375
      vertex 1.5 -0.825149 3.88202
    endloop
  endfacet
  facet normal 1 0 0
    outer loop
      vertex 1.5 3.7745 -1.22641
      vertex 1.5 9.525 7.14375
      vertex 1.5 3.94701 -0.414846
    endloop
  endfacet
  facet normal 1 0 0
    outer loop
      vertex 1.5 9.525 7.14375
      vertex 1.5 3.7745 -1.22641
      vertex 1.5 9.525 -16.6688
    endloop
  endfacet
  facet normal 1 -0 0
    outer loop
      vertex 1.5 3.43704 -1.98438
      vertex 1.5 9.525 -16.6688
      vertex 1.5 3.7745 -1.22641
    endloop
  endfacet
  facet normal 1 -0 0
    outer loop
      vertex 1.5 2.94936 -2.65561
      vertex 1.5 9.525 -16.6688
      vertex 1.5 3.43704 -1.98438
    endloop
  endfacet
  facet normal 1 -0 0
    outer loop
      vertex 1.5 2.33277 -3.21079
      vertex 1.5 9.525 -16.6688
      vertex 1.5 2.94936 -2.65561
    endloop
  endfacet
  facet normal 1 -0 0
    outer loop
      vertex 1.5 1.61424 -3.62563
      vertex 1.5 9.525 -16.6688
      vertex 1.5 2.33277 -3.21079
    endloop
  endfacet
  facet normal 1 -0 0
    outer loop
      vertex 1.5 0.825149 -3.88202
      vertex 1.5 9.525 -16.6688
      vertex 1.5 1.61424 -3.62563
    endloop
  endfacet
  facet normal 1 -0 0
    outer loop
      vertex 1.5 0.766209 -3.88822
      vertex 1.5 9.525 -16.6688
      vertex 1.5 0.825149 -3.88202
    endloop
  endfacet
  facet normal 1 -0 0
    outer loop
      vertex 1.5 0 -3.96875
      vertex 1.5 9.525 -16.6688
      vertex 1.5 0.766209 -3.88822
    endloop
  endfacet
  facet normal 1 0 0
    outer loop
      vertex 1.5 -9.525 -16.6688
      vertex 1.5 0 -3.96875
      vertex 1.5 -0.766209 -3.88822
    endloop
  endfacet
  facet normal 1 0 0
    outer loop
      vertex 1.5 -9.525 -16.6688
      vertex 1.5 -0.766209 -3.88822
      vertex 1.5 -0.825149 -3.88202
    endloop
  endfacet
  facet normal 1 0 0
    outer loop
      vertex 1.5 -9.525 -16.6688
      vertex 1.5 -0.825149 -3.88202
      vertex 1.5 -1.61424 -3.62563
    endloop
  endfacet
  facet normal 1 0 0
    outer loop
      vertex 1.5 -9.525 -16.6688
      vertex 1.5 -1.61424 -3.62563
      vertex 1.5 -2.33277 -3.21079
    endloop
  endfacet
  facet normal 1 0 0
    outer loop
      vertex 1.5 -9.525 -16.6688
      vertex 1.5 -2.33277 -3.21079
      vertex 1.5 -2.94936 -2.65561
    endloop
  endfacet
  facet normal 1 0 0
    outer loop
      vertex 1.5 -9.525 7.14375
      vertex 1.5 -3.7745 -1.22641
      vertex 1.5 -3.94701 -0.414846
    endloop
  endfacet
  facet normal 1 0 0
    outer loop
      vertex 1.5 -9.525 -16.6688
      vertex 1.5 -3.7745 -1.22641
      vertex 1.5 -9.525 7.14375
    endloop
  endfacet
  facet normal 1 0 0
    outer loop
      vertex 1.5 0 -3.96875
      vertex 1.5 -9.525 -16.6688
      vertex 1.5 9.525 -16.6688
    endloop
  endfacet
  facet normal 1 0 0
    outer loop
      vertex 1.5 -3.43704 -1.98438
      vertex 1.5 -9.525 -16.6688
      vertex 1.5 -2.94936 -2.65561
    endloop
  endfacet
  facet normal 1 0 0
    outer loop
      vertex 1.5 -3.7745 -1.22641
      vertex 1.5 -9.525 -16.6688
      vertex 1.5 -3.43704 -1.98438
    endloop
  endfacet
  facet normal 0 0 -1
    outer loop
      vertex 0.881249 -9.525 -16.6688
      vertex 1.5 9.525 -16.6688
      vertex 1.5 -9.525 -16.6688
    endloop
  endfacet
  facet normal -0 0 -1
    outer loop
      vertex 1.5 9.525 -16.6688
      vertex 0.881249 -9.525 -16.6688
      vertex 0.881249 9.525 -16.6688
    endloop
  endfacet
  facet normal 0 -0.10453 0.994522
    outer loop
      vertex -1.5 0.825149 -3.88202
      vertex 1.5 0.766209 -3.88822
      vertex 1.5 0.825149 -3.88202
    endloop
  endfacet
  facet normal 1.15306e-08 -0.104529 0.994522
    outer loop
      vertex 1.5 0.766209 -3.88822
      vertex -1.5 0.825149 -3.88202
      vertex -1.5 0.058939 -3.96256
    endloop
  endfacet
  facet normal -2.72512e-07 -0.104528 0.994522
    outer loop
      vertex -1.5 0.058939 -3.96256
      vertex 1.5 0 -3.96875
      vertex 1.5 0.766209 -3.88822
    endloop
  endfacet
  facet normal -3.1615e-07 -0.10453 0.994522
    outer loop
      vertex 1.5 0 -3.96875
      vertex -1.5 0.058939 -3.96256
      vertex -1.5 0 -3.96875
    endloop
  endfacet
  facet normal 1.15306e-08 0.104529 0.994522
    outer loop
      vertex -1.5 -0.825149 -3.88202
      vertex 1.5 -0.766209 -3.88822
      vertex -1.5 -0.058939 -3.96256
    endloop
  endfacet
  facet normal 0 0.10453 0.994522
    outer loop
      vertex 1.5 -0.766209 -3.88822
      vertex -1.5 -0.825149 -3.88202
      vertex 1.5 -0.825149 -3.88202
    endloop
  endfacet
  facet normal 0 -0.5 -0.866025
    outer loop
      vertex -1.5 1.61424 3.62563
      vertex 1.5 2.33277 3.21079
      vertex 1.5 1.61424 3.62563
    endloop
  endfacet
  facet normal -0 -0.5 -0.866025
    outer loop
      vertex 1.5 2.33277 3.21079
      vertex -1.5 1.61424 3.62563
      vertex -1.5 2.33277 3.21079
    endloop
  endfacet
  facet normal -1.15306e-08 -0.104529 -0.994522
    outer loop
      vertex -1.5 0.766209 3.88822
      vertex 1.5 0.825149 3.88202
      vertex 1.5 0.058939 3.96256
    endloop
  endfacet
  facet normal -0 -0.10453 -0.994522
    outer loop
      vertex 1.5 0.825149 3.88202
      vertex -1.5 0.766209 3.88822
      vertex -1.5 0.825149 3.88202
    endloop
  endfacet
  facet normal -0 0.669131 0.743145
    outer loop
      vertex -1.5 -2.33277 -3.21079
      vertex 1.5 -2.94936 -2.65561
      vertex 1.5 -2.33277 -3.21079
    endloop
  endfacet
  facet normal 0 0.669131 0.743145
    outer loop
      vertex 1.5 -2.94936 -2.65561
      vertex -1.5 -2.33277 -3.21079
      vertex -1.5 -2.94936 -2.65561
    endloop
  endfacet
  facet normal 0 -0.309017 0.951057
    outer loop
      vertex -1.5 1.61424 -3.62563
      vertex 1.5 0.825149 -3.88202
      vertex 1.5 1.61424 -3.62563
    endloop
  endfacet
  facet normal 0 -0.309017 0.951057
    outer loop
      vertex 1.5 0.825149 -3.88202
      vertex -1.5 1.61424 -3.62563
      vertex -1.5 0.825149 -3.88202
    endloop
  endfacet
  facet normal 0 -1 0
    outer loop
      vertex -1.5 3.94701 -0.414846
      vertex 1.5 3.94701 0.414846
      vertex -1.5 3.94701 0.414846
    endloop
  endfacet
  facet normal 0 -1 -0
    outer loop
      vertex 1.5 3.94701 0.414846
      vertex -1.5 3.94701 -0.414846
      vertex 1.5 3.94701 -0.414846
    endloop
  endfacet
  facet normal 0 -0.809017 -0.587785
    outer loop
      vertex -1.5 3.43704 1.98437
      vertex 1.5 2.94936 2.65561
      vertex -1.5 2.94936 2.65561
    endloop
  endfacet
  facet normal 0 -0.809017 -0.587785
    outer loop
      vertex 1.5 2.94936 2.65561
      vertex -1.5 3.43704 1.98437
      vertex 1.5 3.43704 1.98437
    endloop
  endfacet
  facet normal 0 0.10453 -0.994522
    outer loop
      vertex -1.5 -0.766209 3.88822
      vertex 1.5 -0.825149 3.88202
      vertex -1.5 -0.825149 3.88202
    endloop
  endfacet
  facet normal -1.15306e-08 0.104529 -0.994522
    outer loop
      vertex 1.5 -0.825149 3.88202
      vertex -1.5 -0.766209 3.88822
      vertex 1.5 -0.058939 3.96256
    endloop
  endfacet
  facet normal -0 0.309017 0.951057
    outer loop
      vertex -1.5 -0.825149 -3.88202
      vertex 1.5 -1.61424 -3.62563
      vertex 1.5 -0.825149 -3.88202
    endloop
  endfacet
  facet normal 0 0.309017 0.951057
    outer loop
      vertex 1.5 -1.61424 -3.62563
      vertex -1.5 -0.825149 -3.88202
      vertex -1.5 -1.61424 -3.62563
    endloop
  endfacet
  facet normal 0 0.978148 -0.207912
    outer loop
      vertex 1.5 -3.94701 0.414846
      vertex -1.5 -3.7745 1.22641
      vertex 1.5 -3.7745 1.22641
    endloop
  endfacet
  facet normal 0 0.978148 -0.207912
    outer loop
      vertex -1.5 -3.7745 1.22641
      vertex 1.5 -3.94701 0.414846
      vertex -1.5 -3.94701 0.414846
    endloop
  endfacet
  facet normal -3.1615e-07 0.10453 0.994522
    outer loop
      vertex -1.5 -0.058939 -3.96256
      vertex 1.5 0 -3.96875
      vertex -1.5 0 -3.96875
    endloop
  endfacet
  facet normal -2.72512e-07 0.104528 0.994522
    outer loop
      vertex 1.5 0 -3.96875
      vertex -1.5 -0.058939 -3.96256
      vertex 1.5 -0.766209 -3.88822
    endloop
  endfacet
  facet normal 0 -0.5 0.866025
    outer loop
      vertex -1.5 2.33277 -3.21079
      vertex 1.5 1.61424 -3.62563
      vertex 1.5 2.33277 -3.21079
    endloop
  endfacet
  facet normal 0 -0.5 0.866025
    outer loop
      vertex 1.5 1.61424 -3.62563
      vertex -1.5 2.33277 -3.21079
      vertex -1.5 1.61424 -3.62563
    endloop
  endfacet
  facet normal 0 -0.913546 0.406736
    outer loop
      vertex -1.5 3.43704 -1.98438
      vertex 1.5 3.7745 -1.22641
      vertex -1.5 3.7745 -1.22641
    endloop
  endfacet
  facet normal 0 -0.913546 0.406736
    outer loop
      vertex 1.5 3.7745 -1.22641
      vertex -1.5 3.43704 -1.98438
      vertex 1.5 3.43704 -1.98438
    endloop
  endfacet
  facet normal 0 -0.978148 0.207912
    outer loop
      vertex -1.5 3.7745 -1.22641
      vertex 1.5 3.94701 -0.414846
      vertex -1.5 3.94701 -0.414846
    endloop
  endfacet
  facet normal 0 -0.978148 0.207912
    outer loop
      vertex 1.5 3.94701 -0.414846
      vertex -1.5 3.7745 -1.22641
      vertex 1.5 3.7745 -1.22641
    endloop
  endfacet
  facet normal 0 -0.309017 -0.951057
    outer loop
      vertex -1.5 0.825149 3.88202
      vertex 1.5 1.61424 3.62563
      vertex 1.5 0.825149 3.88202
    endloop
  endfacet
  facet normal -0 -0.309017 -0.951057
    outer loop
      vertex 1.5 1.61424 3.62563
      vertex -1.5 0.825149 3.88202
      vertex -1.5 1.61424 3.62563
    endloop
  endfacet
  facet normal 3.1615e-07 -0.10453 -0.994522
    outer loop
      vertex -1.5 0 3.96875
      vertex 1.5 0.058939 3.96256
      vertex 1.5 0 3.96875
    endloop
  endfacet
  facet normal 2.72512e-07 -0.104528 -0.994522
    outer loop
      vertex 1.5 0.058939 3.96256
      vertex -1.5 0 3.96875
      vertex -1.5 0.766209 3.88822
    endloop
  endfacet
  facet normal 0 0.669131 -0.743145
    outer loop
      vertex -1.5 -2.94936 2.65561
      vertex 1.5 -2.33277 3.21079
      vertex 1.5 -2.94936 2.65561
    endloop
  endfacet
  facet normal 0 0.669131 -0.743145
    outer loop
      vertex 1.5 -2.33277 3.21079
      vertex -1.5 -2.94936 2.65561
      vertex -1.5 -2.33277 3.21079
    endloop
  endfacet
  facet normal 0 0.309017 -0.951057
    outer loop
      vertex -1.5 -1.61424 3.62563
      vertex 1.5 -0.825149 3.88202
      vertex 1.5 -1.61424 3.62563
    endloop
  endfacet
  facet normal 0 0.309017 -0.951057
    outer loop
      vertex 1.5 -0.825149 3.88202
      vertex -1.5 -1.61424 3.62563
      vertex -1.5 -0.825149 3.88202
    endloop
  endfacet
  facet normal -0 0.5 0.866025
    outer loop
      vertex -1.5 -1.61424 -3.62563
      vertex 1.5 -2.33277 -3.21079
      vertex 1.5 -1.61424 -3.62563
    endloop
  endfacet
  facet normal 0 0.5 0.866025
    outer loop
      vertex 1.5 -2.33277 -3.21079
      vertex -1.5 -1.61424 -3.62563
      vertex -1.5 -2.33277 -3.21079
    endloop
  endfacet
  facet normal 0 0.978148 0.207912
    outer loop
      vertex 1.5 -3.7745 -1.22641
      vertex -1.5 -3.94701 -0.414846
      vertex 1.5 -3.94701 -0.414846
    endloop
  endfacet
  facet normal 0 0.978148 0.207912
    outer loop
      vertex -1.5 -3.94701 -0.414846
      vertex 1.5 -3.7745 -1.22641
      vertex -1.5 -3.7745 -1.22641
    endloop
  endfacet
  facet normal 0 1 -0
    outer loop
      vertex 1.5 -3.94701 -0.414846
      vertex -1.5 -3.94701 0.414846
      vertex 1.5 -3.94701 0.414846
    endloop
  endfacet
  facet normal 0 1 0
    outer loop
      vertex -1.5 -3.94701 0.414846
      vertex 1.5 -3.94701 -0.414846
      vertex -1.5 -3.94701 -0.414846
    endloop
  endfacet
  facet normal 0 -0.809017 0.587785
    outer loop
      vertex -1.5 2.94936 -2.65561
      vertex 1.5 3.43704 -1.98438
      vertex -1.5 3.43704 -1.98438
    endloop
  endfacet
  facet normal 0 -0.809017 0.587785
    outer loop
      vertex 1.5 3.43704 -1.98438
      vertex -1.5 2.94936 -2.65561
      vertex 1.5 2.94936 -2.65561
    endloop
  endfacet
  facet normal 0 -0.669131 -0.743145
    outer loop
      vertex -1.5 2.33277 3.21079
      vertex 1.5 2.94936 2.65561
      vertex 1.5 2.33277 3.21079
    endloop
  endfacet
  facet normal -0 -0.669131 -0.743145
    outer loop
      vertex 1.5 2.94936 2.65561
      vertex -1.5 2.33277 3.21079
      vertex -1.5 2.94936 2.65561
    endloop
  endfacet
  facet normal 0 -0.913545 -0.406737
    outer loop
      vertex -1.5 3.7745 1.22641
      vertex 1.5 3.43704 1.98437
      vertex -1.5 3.43704 1.98437
    endloop
  endfacet
  facet normal 0 -0.913545 -0.406737
    outer loop
      vertex 1.5 3.43704 1.98437
      vertex -1.5 3.7745 1.22641
      vertex 1.5 3.7745 1.22641
    endloop
  endfacet
  facet normal 0 -0.978148 -0.207912
    outer loop
      vertex -1.5 3.94701 0.414846
      vertex 1.5 3.7745 1.22641
      vertex -1.5 3.7745 1.22641
    endloop
  endfacet
  facet normal 0 -0.978148 -0.207912
    outer loop
      vertex 1.5 3.7745 1.22641
      vertex -1.5 3.94701 0.414846
      vertex 1.5 3.94701 0.414846
    endloop
  endfacet
  facet normal 2.72512e-07 0.104528 -0.994522
    outer loop
      vertex -1.5 0 3.96875
      vertex 1.5 -0.058939 3.96256
      vertex -1.5 -0.766209 3.88822
    endloop
  endfacet
  facet normal 3.1615e-07 0.10453 -0.994522
    outer loop
      vertex 1.5 -0.058939 3.96256
      vertex -1.5 0 3.96875
      vertex 1.5 0 3.96875
    endloop
  endfacet
  facet normal 0 0.5 -0.866025
    outer loop
      vertex -1.5 -2.33277 3.21079
      vertex 1.5 -1.61424 3.62563
      vertex 1.5 -2.33277 3.21079
    endloop
  endfacet
  facet normal 0 0.5 -0.866025
    outer loop
      vertex 1.5 -1.61424 3.62563
      vertex -1.5 -2.33277 3.21079
      vertex -1.5 -1.61424 3.62563
    endloop
  endfacet
  facet normal 0 0.809017 0.587785
    outer loop
      vertex 1.5 -2.94936 -2.65561
      vertex -1.5 -3.43704 -1.98438
      vertex 1.5 -3.43704 -1.98438
    endloop
  endfacet
  facet normal 0 0.809017 0.587785
    outer loop
      vertex -1.5 -3.43704 -1.98438
      vertex 1.5 -2.94936 -2.65561
      vertex -1.5 -2.94936 -2.65561
    endloop
  endfacet
  facet normal 0 0.913546 0.406736
    outer loop
      vertex 1.5 -3.43704 -1.98438
      vertex -1.5 -3.7745 -1.22641
      vertex 1.5 -3.7745 -1.22641
    endloop
  endfacet
  facet normal 0 0.913546 0.406736
    outer loop
      vertex -1.5 -3.7745 -1.22641
      vertex 1.5 -3.43704 -1.98438
      vertex -1.5 -3.43704 -1.98438
    endloop
  endfacet
  facet normal 0 0.913546 -0.406736
    outer loop
      vertex 1.5 -3.7745 1.22641
      vertex -1.5 -3.43704 1.98438
      vertex 1.5 -3.43704 1.98438
    endloop
  endfacet
  facet normal 0 0.913546 -0.406736
    outer loop
      vertex -1.5 -3.43704 1.98438
      vertex 1.5 -3.7745 1.22641
      vertex -1.5 -3.7745 1.22641
    endloop
  endfacet
  facet normal 0 0.809017 -0.587785
    outer loop
      vertex 1.5 -3.43704 1.98438
      vertex -1.5 -2.94936 2.65561
      vertex 1.5 -2.94936 2.65561
    endloop
  endfacet
  facet normal 0 0.809017 -0.587785
    outer loop
      vertex -1.5 -2.94936 2.65561
      vertex 1.5 -3.43704 1.98438
      vertex -1.5 -3.43704 1.98438
    endloop
  endfacet
  facet normal 0 -0.669131 0.743145
    outer loop
      vertex -1.5 2.94936 -2.65561
      vertex 1.5 2.33277 -3.21079
      vertex 1.5 2.94936 -2.65561
    endloop
  endfacet
  facet normal 0 -0.669131 0.743145
    outer loop
      vertex 1.5 2.33277 -3.21079
      vertex -1.5 2.94936 -2.65561
      vertex -1.5 2.33277 -3.21079
    endloop
  endfacet
endsolid OpenSCAD_Model
